<?xml version="1.0" standalone="no"?>
<!DOCTYPE svg PUBLIC "-//W3C//DTD SVG 1.1//EN" "http://www.w3.org/Graphics/SVG/1.1/DTD/svg11.dtd" >
<svg>
<metadata>
Created by FontForge 20110222 at Fri Jun 20 02:19:28 2014
 By deploy user
Copyright (C) 2007 Markanna Studios Inc. d.b.a. MVB Fonts. www.mvbfonts.com. 
</metadata>
<defs>
<font id="SolanoGothicMVBPro-BdRetro" horiz-adv-x="400" >
  <font-face 
    font-family="Solano Gothic MVB Pro Retro"
    font-weight="700"
    font-stretch="normal"
    units-per-em="1000"
    panose-1="2 0 5 6 3 0 0 2 0 4"
    ascent="750"
    descent="-250"
    x-height="499"
    cap-height="700"
    bbox="-96 -264 1050 898"
    underline-thickness="20"
    underline-position="-113"
    unicode-range="U+0020-FB04"
  />
<missing-glyph horiz-adv-x="500" 
d="M0 0v700h500v-700h-500zM50 50h400v600h-400v-600z" />
    <glyph glyph-name="ff" unicode="ff" horiz-adv-x="495" 
d="M169 500h135v100q0 41 29.5 70.5t70.5 29.5h85v-90h-60q-10 0 -17.5 -7.5t-7.5 -17.5v-85h85v-90h-85v-410h-100v410h-135v-410h-100v410h-50v90h50v100q0 41 29.5 70.5t70.5 29.5h85v-90h-60q-10 0 -17.5 -7.5t-7.5 -17.5v-85z" />
    <glyph glyph-name="fi" unicode="fi" horiz-adv-x="466" 
d="M169 500h85v-90h-85v-410h-100v410h-50v90h50v100q0 41 29.5 70.5t70.5 29.5h85v-90h-60q-10 0 -17.5 -7.5t-7.5 -17.5v-85zM413 600h-100v100h100v-100zM413 0h-100v500h100v-500z" />
    <glyph glyph-name="fl" unicode="fl" horiz-adv-x="487" 
d="M169 500h85v-90h-85v-410h-100v410h-50v90h50v100q0 41 29.5 70.5t70.5 29.5h85v-90h-60q-10 0 -17.5 -7.5t-7.5 -17.5v-85zM481 90v-90h-70q-41 0 -70.5 29.5t-29.5 70.5v600h100v-585q0 -10 7.5 -17.5t17.5 -7.5h45z" />
    <glyph glyph-name="ffi" unicode="ffi" horiz-adv-x="701" 
d="M169 500h135v100q0 41 29.5 70.5t70.5 29.5h85v-90h-60q-10 0 -17.5 -7.5t-7.5 -17.5v-85h85v-90h-85v-410h-100v410h-135v-410h-100v410h-50v90h50v100q0 41 29.5 70.5t70.5 29.5h85v-90h-60q-10 0 -17.5 -7.5t-7.5 -17.5v-85zM648 0h-100v500h100v-500zM648 600h-100
v100h100v-100z" />
    <glyph glyph-name="ffl" unicode="ffl" horiz-adv-x="724" 
d="M404 500h85v-90h-85v-410h-100v410h-135v-410h-100v410h-50v90h50v100q0 41 29.5 70.5t70.5 29.5h85v-90h-60q-10 0 -17.5 -7.5t-7.5 -17.5v-85h135v100q0 41 29.5 70.5t70.5 29.5h85v-90h-60q-10 0 -17.5 -7.5t-7.5 -17.5v-85zM718 90v-90h-70q-41 0 -70.5 29.5
t-29.5 70.5v600h100v-585q0 -10 7.5 -17.5t17.5 -7.5h45z" />
    <glyph glyph-name=".notdef" horiz-adv-x="500" 
d="M0 0v700h500v-700h-500zM50 50h400v600h-400v-600z" />
    <glyph glyph-name=".null" unicode="&#xe000;" horiz-adv-x="0" 
 />
    <glyph glyph-name="nonmarkingreturn" horiz-adv-x="333" 
 />
    <glyph glyph-name="space" unicode=" " horiz-adv-x="150" 
 />
    <glyph glyph-name="exclam" unicode="!" horiz-adv-x="270" 
d="M167 200h-64l-20 300v200h104v-200zM188 106v-106h-106v106h106z" />
    <glyph glyph-name="quotedbl" unicode="&#x22;" horiz-adv-x="278" 
d="M253 700v-200h-90v200h90zM115 700v-200h-90v200h90z" />
    <glyph glyph-name="numbersign" unicode="#" 
d="M121 116l-23 -116h-68l24 116h-54v90h69l34 194h-66v90h82l20 110h65l-20 -110h102l21 110h65l-20 -110h48v-90h-62l-35 -194h62v-90h-77l-22 -116h-68l23 116h-100zM135 206h102l34 194h-102z" />
    <glyph glyph-name="dollar" unicode="$" horiz-adv-x="380" 
d="M235 600h5q41 0 70.5 -29.5t29.5 -70.5v-75h-100v60q0 10 -7.5 17.5t-17.5 7.5h-50q-10 0 -17.5 -7.5t-7.5 -17.5v-70q0 -29 25 -40l82 -41q46 -23 69.5 -51.5t23.5 -77.5v-105q0 -41 -29.5 -70.5t-70.5 -29.5h-5v-100h-90v100h-5q-41 0 -70.5 29.5t-29.5 70.5v75h100
v-60q0 -10 7.5 -17.5t17.5 -7.5h50q10 0 17.5 7.5t7.5 17.5v80q0 27 -25 40l-84 45q-47 25 -69 51t-22 74v95q0 41 29.5 70.5t70.5 29.5h5v100h90v-100z" />
    <glyph glyph-name="percent" unicode="%" horiz-adv-x="560" 
d="M230 361q0 -25 -18 -43t-44 -18h-76q-26 0 -44 18t-18 43v178q0 25 18 43t44 18h76q26 0 44 -18t18 -43v-178zM164 524q0 7 -5.5 12.5t-12.5 5.5h-31q-7 0 -13 -5.5t-6 -12.5v-147q0 -8 5.5 -14t13.5 -6h31q7 0 12.5 6t5.5 14v147zM114 0l262 600h61l-262 -600h-61z
M530 61q0 -25 -18 -43t-44 -18h-76q-26 0 -44 18t-18 43v178q0 25 18 43t44 18h76q26 0 44 -18t18 -43v-178zM464 224q0 7 -5.5 12.5t-12.5 5.5h-31q-7 0 -13 -5.5t-6 -12.5v-147q0 -8 5.5 -14t13.5 -6h31q7 0 12.5 6t5.5 14v147z" />
    <glyph glyph-name="ampersand" unicode="&#x26;" horiz-adv-x="429" 
d="M364 100q0 -41 -29.5 -70.5t-70.5 -29.5h-110q-41 0 -70.5 29.5t-29.5 70.5v163q0 40 26 68t60 30v5q-33 5 -54.5 32t-21.5 63v139q0 41 29.5 70.5t70.5 29.5h100q41 0 70.5 -29.5t29.5 -70.5v-100h-100v85q0 10 -7.5 17.5t-17.5 7.5h-50q-10 0 -17.5 -7.5t-7.5 -17.5
v-155q0 -10 7.5 -17.5t17.5 -7.5h225v-85h-59q9 -7 9 -20v-200zM264 320h-60q-20 0 -35 -15t-15 -35v-155q0 -10 7.5 -17.5t17.5 -7.5h60q10 0 17.5 7.5t7.5 17.5v205z" />
    <glyph glyph-name="quotesingle" unicode="'" horiz-adv-x="140" 
d="M115 700v-200h-90v200h90z" />
    <glyph glyph-name="parenleft" unicode="(" horiz-adv-x="254" 
d="M132 290q0 -148 31.5 -237.5t90.5 -174.5h-84q-68 65 -109 170t-41 240q0 136 41 241.5t109 170.5h84q-59 -85 -90.5 -174t-31.5 -236z" />
    <glyph glyph-name="parenright" unicode=")" horiz-adv-x="254" 
d="M122 290q0 147 -31.5 236t-90.5 174h84q68 -65 109 -170.5t41 -241.5q0 -135 -41 -240t-109 -170h-84q59 85 90.5 174.5t31.5 237.5z" />
    <glyph glyph-name="asterisk" unicode="*" horiz-adv-x="402" 
d="M28 556l17 50l111 -18l18 112h53l20 -112l111 16l16 -48l-104 -52l55 -103l-43 -32l-83 83l-80 -83l-43 32l54 103z" />
    <glyph glyph-name="plus" unicode="+" 
d="M244 354h144v-82h-144v-147h-86v147h-145v82h145v146h86v-146z" />
    <glyph glyph-name="comma" unicode="," horiz-adv-x="144" 
d="M117 106v-173l-90 -53v226h90z" />
    <glyph glyph-name="hyphen" unicode="-" horiz-adv-x="250" 
d="M40 219v102h170v-102h-170z" />
    <glyph glyph-name="period" unicode="." horiz-adv-x="160" 
d="M133 106v-106h-106v106h106z" />
    <glyph glyph-name="slash" unicode="/" 
d="M0 -121l300 821h100l-300 -821h-100z" />
    <glyph glyph-name="zero" unicode="0" 
d="M350 500v-400q0 -41 -29.5 -70.5t-70.5 -29.5h-100q-41 0 -70.5 29.5t-29.5 70.5v400q0 41 29.5 70.5t70.5 29.5h100q41 0 70.5 -29.5t29.5 -70.5zM250 485q0 10 -7.5 17.5t-17.5 7.5h-50q-10 0 -17.5 -7.5t-7.5 -17.5v-370q0 -10 7.5 -17.5t17.5 -7.5h50q10 0 17.5 7.5
t7.5 17.5v370z" />
    <glyph glyph-name="one" unicode="1" horiz-adv-x="290" 
d="M210 600v-600h-100v510h-76v90h176z" />
    <glyph glyph-name="two" unicode="2" 
d="M150 90h200v-90h-300v145q0 33 17 61.5t34 42.5t50 38l74 53q25 18 25 50v95q0 10 -7.5 17.5t-17.5 7.5h-50q-10 0 -17.5 -7.5t-7.5 -17.5v-85h-100v100q0 41 29.5 70.5t70.5 29.5h100q41 0 70.5 -29.5t29.5 -70.5v-125q0 -10 -1.5 -20t-3.5 -17.5t-7 -16t-8.5 -14.5
t-11 -13.5l-11.5 -11.5t-13.5 -12t-13.5 -11t-15 -11t-14 -11l-76 -57q-25 -20 -25 -50v-40z" />
    <glyph glyph-name="three" unicode="3" 
d="M145 0q-41 0 -70.5 29.5t-29.5 70.5v40h100v-25q0 -10 7.5 -17.5t17.5 -7.5h60q10 0 17.5 7.5t7.5 17.5v100q0 19 -15.5 34.5t-34.5 15.5h-61v90h76q10 0 17.5 7.5t7.5 17.5v105q0 10 -7.5 17.5t-17.5 7.5h-50q-10 0 -17.5 -7.5t-7.5 -17.5v-35h-100v50q0 41 29.5 70.5
t70.5 29.5h100q41 0 70.5 -29.5t29.5 -70.5v-89q0 -36 -21.5 -63t-54.5 -32v-5q34 -2 60 -30t26 -68v-113q0 -41 -29.5 -70.5t-70.5 -29.5h-110z" />
    <glyph glyph-name="four" unicode="4" 
d="M213 600h100v-394h67v-90h-67v-116h-100v116h-203v78zM213 206v246l-123 -246h123z" />
    <glyph glyph-name="five" unicode="5" 
d="M55 265v335h290v-90h-200v-163q4 14 20 24t30 10h60q41 0 70.5 -29.5t29.5 -70.5v-181q0 -41 -29.5 -70.5t-70.5 -29.5h-100q-41 0 -70.5 29.5t-29.5 70.5v40h100v-25q0 -10 7.5 -17.5t17.5 -7.5h50q10 0 17.5 7.5t7.5 17.5v150q0 10 -7.5 17.5t-17.5 7.5h-50
q-10 0 -17.5 -7.5t-7.5 -17.5h-100z" />
    <glyph glyph-name="six" unicode="6" 
d="M50 100v400q0 41 29.5 70.5t70.5 29.5h100q41 0 70.5 -29.5t29.5 -70.5v-50h-100v35q0 10 -7.5 17.5t-17.5 7.5h-50q-10 0 -17.5 -7.5t-7.5 -17.5v-144q7 12 25.5 23t32.5 11h42q41 0 70.5 -29.5t29.5 -70.5v-175q0 -41 -29.5 -70.5t-70.5 -29.5h-100q-41 0 -70.5 29.5
t-29.5 70.5zM250 260q0 10 -7.5 17.5t-17.5 7.5h-50q-10 0 -17.5 -7.5t-7.5 -17.5v-145q0 -10 7.5 -17.5t17.5 -7.5h50q10 0 17.5 7.5t7.5 17.5v145z" />
    <glyph glyph-name="seven" unicode="7" 
d="M350 442q0 -24 -11.5 -50t-24 -42t-34.5 -41t-30 -36l-8 -9q-42 -52 -42 -81v-183h-100v193q0 25 12.5 52.5t21.5 40.5t37 45.5t30 34.5l8 10q10 11 25.5 38t15.5 43v53h-190v90h290v-158z" />
    <glyph glyph-name="eight" unicode="8" 
d="M145 0q-41 0 -70.5 29.5t-29.5 70.5v113q0 40 26 68t60 30v5q-33 5 -57 32t-24 63v89q0 41 29.5 70.5t70.5 29.5h100q41 0 70.5 -29.5t29.5 -70.5v-89q0 -36 -24 -63t-57 -32v-5q34 -2 60 -30t26 -68v-113q0 -41 -29.5 -70.5t-70.5 -29.5h-110zM225 355q10 0 17.5 7.5
t7.5 17.5v105q0 10 -7.5 17.5t-17.5 7.5h-50q-10 0 -17.5 -7.5t-7.5 -17.5v-105q0 -10 7.5 -17.5t17.5 -7.5h50zM255 238q0 11 -7.5 19t-17.5 8h-60q-10 0 -17.5 -7.5t-7.5 -17.5v-125q0 -10 7.5 -17.5t17.5 -7.5h60q10 0 17.5 7.5t7.5 17.5v123z" />
    <glyph glyph-name="nine" unicode="9" 
d="M350 500v-400q0 -41 -29.5 -70.5t-70.5 -29.5h-100q-41 0 -70.5 29.5t-29.5 70.5v40h100v-25q0 -10 7.5 -17.5t17.5 -7.5h50q10 0 17.5 7.5t7.5 17.5v144q-7 -12 -25.5 -23t-32.5 -11h-42q-41 0 -70.5 29.5t-29.5 70.5v175q0 41 29.5 70.5t70.5 29.5h100q41 0 70.5 -29.5
t29.5 -70.5zM150 340q0 -10 7.5 -17.5t17.5 -7.5h50q10 0 17.5 7.5t7.5 17.5v145q0 10 -7.5 17.5t-17.5 7.5h-50q-10 0 -17.5 -7.5t-7.5 -17.5v-145z" />
    <glyph glyph-name="colon" unicode=":" horiz-adv-x="216" 
d="M161 500v-106h-106v106h106zM161 106v-106h-106v106h106z" />
    <glyph glyph-name="semicolon" unicode=";" horiz-adv-x="216" 
d="M161 500v-106h-106v106h106zM153 106v-173l-90 -53v226h90z" />
    <glyph glyph-name="less" unicode="&#x3c;" 
d="M130 307l22 -6l223 -95v-91l-349 164v54l349 166v-92l-223 -95z" />
    <glyph glyph-name="equal" unicode="=" 
d="M26 346v82h349v-82h-349zM26 184v82h349v-82h-349z" />
    <glyph glyph-name="greater" unicode="&#x3e;" 
d="M271 307l-22 5l-223 95v92l349 -166v-54l-349 -164v91l223 95z" />
    <glyph glyph-name="question" unicode="?" horiz-adv-x="385" 
d="M224 279v-79h-94v84q0 30 11.5 54.5t28 41.5t33.5 32.5t28.5 37t11.5 46.5v89q0 10 -7.5 17.5t-17.5 7.5h-50q-10 0 -17.5 -7.5t-7.5 -17.5v-85h-100v100q0 41 29.5 70.5t70.5 29.5h100q41 0 70.5 -29.5t29.5 -70.5v-125q0 -34 -18.5 -63t-41 -46t-41 -40.5t-18.5 -46.5z
M233 106v-106h-106v106h106z" />
    <glyph glyph-name="at" unicode="@" horiz-adv-x="792" 
d="M374 -99q-71 0 -128.5 22t-93.5 56t-60 78t-33 86t-8 82v77q2 77 23 145.5t62 126.5t109.5 92.5t157.5 34.5q91 0 158.5 -23.5t105.5 -64.5t56.5 -90t18.5 -106v-52q0 -73 -19.5 -127.5t-50 -82.5t-61.5 -41.5t-61 -13.5q-55 0 -81 17.5t-37 56.5l-21 -22q-1 -1 -6 -6.5
t-7.5 -7.5t-8 -7.5t-9.5 -8t-10.5 -7t-12.5 -6.5t-14 -4.5t-16.5 -3.5t-18.5 -1q-42 0 -71 34t-28 88q-1 12 3 35l19 105q11 63 52 109t105 46q58 0 88 -60l10 56h88l-54 -303q-3 -16 6 -28t30 -12q39 0 71 49t35 158v40q2 91 -64.5 149.5t-195.5 58.5q-130 0 -198.5 -91
t-70.5 -236v-68q-1 -44 12 -86.5t40 -81t76.5 -62t113.5 -23.5q90 0 129 12t65 37l14 13l64 -42l-19 -21q-68 -75 -254 -75zM324 368l-17 -83q-5 -25 -5 -42q0 -54 53 -54q31 0 53 19.5t27 50.5l15 81q4 22 4 31q0 60 -52 60q-30 0 -51.5 -18t-26.5 -45z" />
    <glyph glyph-name="A" unicode="A" horiz-adv-x="438" 
d="M374 0h-100v315h-110v-315h-100v600q0 41 29.5 70.5t70.5 29.5h110q41 0 70.5 -29.5t29.5 -70.5v-600zM274 405v180q0 10 -7.5 17.5t-17.5 7.5h-60q-10 0 -17.5 -7.5t-7.5 -17.5v-180h110z" />
    <glyph glyph-name="B" unicode="B" horiz-adv-x="440" 
d="M302 366v-5q34 -2 60 -30t26 -68v-163q0 -41 -29.5 -70.5t-70.5 -29.5h-220v700h210q41 0 70.5 -29.5t29.5 -70.5v-139q0 -36 -21.5 -63t-54.5 -32zM253 405q10 0 17.5 7.5t7.5 17.5v155q0 10 -7.5 17.5t-17.5 7.5h-85v-205h85zM168 315v-225h95q10 0 17.5 7.5t7.5 17.5
v150q0 19 -15 34.5t-35 15.5h-70z" />
    <glyph glyph-name="C" unicode="C" 
d="M367 200v-100q0 -41 -29.5 -70.5t-70.5 -29.5h-110q-41 0 -70.5 29.5t-29.5 70.5v500q0 41 29.5 70.5t70.5 29.5h110q41 0 70.5 -29.5t29.5 -70.5v-100h-100v85q0 10 -7.5 17.5t-17.5 7.5h-60q-10 0 -17.5 -7.5t-7.5 -17.5v-470q0 -10 7.5 -17.5t17.5 -7.5h60
q10 0 17.5 7.5t7.5 17.5v85h100z" />
    <glyph glyph-name="D" unicode="D" horiz-adv-x="435" 
d="M378 600v-500q0 -41 -29.5 -70.5t-70.5 -29.5h-210v700h210q41 0 70.5 -29.5t29.5 -70.5zM278 115v470q0 10 -7.5 17.5t-17.5 7.5h-85v-520h85q10 0 17.5 7.5t7.5 17.5z" />
    <glyph glyph-name="E" unicode="E" horiz-adv-x="350" 
d="M68 700h250v-90h-150v-205h122v-90h-122v-225h150v-90h-250v700z" />
    <glyph glyph-name="F" unicode="F" horiz-adv-x="336" 
d="M68 700h250v-90h-150v-205h122v-90h-122v-315h-100v700z" />
    <glyph glyph-name="G" unicode="G" horiz-adv-x="422" 
d="M267 310h-60v90h160v-300q0 -41 -29.5 -70.5t-70.5 -29.5h-110q-41 0 -70.5 29.5t-29.5 70.5v500q0 41 29.5 70.5t70.5 29.5h110q41 0 70.5 -29.5t29.5 -70.5v-100h-100v85q0 10 -7.5 17.5t-17.5 7.5h-60q-10 0 -17.5 -7.5t-7.5 -17.5v-470q0 -10 7.5 -17.5t17.5 -7.5h60
q10 0 17.5 7.5t7.5 17.5v195z" />
    <glyph glyph-name="H" unicode="H" horiz-adv-x="446" 
d="M378 700v-700h-100v315h-110v-315h-100v700h100v-295h110v295h100z" />
    <glyph glyph-name="I" unicode="I" horiz-adv-x="236" 
d="M168 0h-100v700h100v-700z" />
    <glyph glyph-name="J" unicode="J" horiz-adv-x="371" 
d="M312 700v-600q0 -41 -29.5 -70.5t-70.5 -29.5h-100q-41 0 -70.5 29.5t-29.5 70.5v100h100v-85q0 -10 7.5 -17.5t17.5 -7.5h50q10 0 17.5 7.5t7.5 17.5v585h100z" />
    <glyph glyph-name="K" unicode="K" horiz-adv-x="434" 
d="M272 389v-5q45 0 76.5 -29t31.5 -74v-281h-100v265q0 19 -15 34.5t-35 15.5h-62v-315h-100v700h100v-320h4l148 320h109z" />
    <glyph glyph-name="L" unicode="L" horiz-adv-x="323" 
d="M168 90h150v-90h-250v700h100v-610z" />
    <glyph glyph-name="M" unicode="M" horiz-adv-x="637" 
d="M68 700h90v-40q7 14 25 27t33 13h69q15 0 33 -13t25 -27q7 14 25 27t33 13h72q41 0 70.5 -29.5t29.5 -70.5v-600h-95v585q0 10 -7.5 17.5t-17.5 7.5h-55q-10 0 -17.5 -7.5t-7.5 -17.5v-585h-100v585q0 10 -7.5 17.5t-17.5 7.5h-55q-10 0 -17.5 -7.5t-7.5 -17.5v-585h-100
v700z" />
    <glyph glyph-name="N" unicode="N" horiz-adv-x="442" 
d="M68 700h90v-40q7 14 25 27t33 13h62q41 0 70.5 -29.5t29.5 -70.5v-600h-100v585q0 10 -7.5 17.5t-17.5 7.5h-60q-10 0 -17.5 -7.5t-7.5 -17.5v-585h-100v700z" />
    <glyph glyph-name="O" unicode="O" horiz-adv-x="424" 
d="M367 600v-500q0 -41 -29.5 -70.5t-70.5 -29.5h-110q-41 0 -70.5 29.5t-29.5 70.5v500q0 41 29.5 70.5t70.5 29.5h110q41 0 70.5 -29.5t29.5 -70.5zM267 585q0 10 -7.5 17.5t-17.5 7.5h-60q-10 0 -17.5 -7.5t-7.5 -17.5v-470q0 -10 7.5 -17.5t17.5 -7.5h60q10 0 17.5 7.5
t7.5 17.5v470z" />
    <glyph glyph-name="P" unicode="P" horiz-adv-x="410" 
d="M378 600v-185q0 -41 -29.5 -70.5t-70.5 -29.5h-110v-315h-100v700h210q41 0 70.5 -29.5t29.5 -70.5zM253 405q10 0 17.5 7.5t7.5 17.5v155q0 10 -7.5 17.5t-17.5 7.5h-85v-205h85z" />
    <glyph glyph-name="Q" unicode="Q" horiz-adv-x="424" 
d="M327 21l50 -86l-77 -45l-64 110h-79q-41 0 -70.5 29.5t-29.5 70.5v500q0 41 29.5 70.5t70.5 29.5h110q41 0 70.5 -29.5t29.5 -70.5v-500q0 -49 -40 -79zM267 585q0 10 -7.5 17.5t-17.5 7.5h-60q-10 0 -17.5 -7.5t-7.5 -17.5v-470q0 -10 7.5 -17.5t17.5 -7.5h60
q10 0 17.5 7.5t7.5 17.5v470z" />
    <glyph glyph-name="R" unicode="R" horiz-adv-x="440" 
d="M288 265q0 19 -15 34.5t-35 15.5h-70v-315h-100v700h210q41 0 70.5 -29.5t29.5 -70.5v-139q0 -36 -21.5 -63t-54.5 -32v-5q34 -2 60 -30t26 -68v-263h-100v265zM253 405q10 0 17.5 7.5t7.5 17.5v155q0 10 -7.5 17.5t-17.5 7.5h-85v-205h85z" />
    <glyph glyph-name="S" unicode="S" horiz-adv-x="402" 
d="M46 475v125q0 41 29.5 70.5t70.5 29.5h110q41 0 70.5 -29.5t29.5 -70.5v-100h-100v85q0 10 -7.5 17.5t-17.5 7.5h-60q-10 0 -17.5 -7.5t-7.5 -17.5v-95q0 -35 25 -50l84 -53q47 -30 74 -62.5t27 -79.5v-145q0 -41 -29.5 -70.5t-70.5 -29.5h-110q-41 0 -70.5 29.5
t-29.5 70.5v100h100v-85q0 -10 7.5 -17.5t17.5 -7.5h60q10 0 17.5 7.5t7.5 17.5v115q0 34 -25 50l-86 57q-33 22 -50.5 36.5t-33 41.5t-15.5 60z" />
    <glyph glyph-name="T" unicode="T" horiz-adv-x="320" 
d="M10 700h300v-90h-100v-610h-100v610h-100v90z" />
    <glyph glyph-name="U" unicode="U" horiz-adv-x="438" 
d="M374 700v-600q0 -41 -29.5 -70.5t-70.5 -29.5h-110q-41 0 -70.5 29.5t-29.5 70.5v600h100v-585q0 -10 7.5 -17.5t17.5 -7.5h60q10 0 17.5 7.5t7.5 17.5v585h100z" />
    <glyph glyph-name="V" unicode="V" horiz-adv-x="434" 
d="M165 0q-2 2 -22 26t-29 37t-24 35.5t-21.5 41.5t-6.5 37v523h100v-508q0 -16 19.5 -47.5t30.5 -44.5l9 -11l9 11q9 10 25.5 43t16.5 49v508h100v-523q0 -18 -6.5 -37t-21.5 -41.5t-24 -35.5t-29 -37t-22 -26h-104z" />
    <glyph glyph-name="W" unicode="W" horiz-adv-x="633" 
d="M474 700h95v-600q0 -41 -29.5 -70.5t-70.5 -29.5h-94q-14 0 -32.5 11t-25.5 23q-7 -12 -25.5 -23t-32.5 -11h-95q-41 0 -70.5 29.5t-29.5 70.5v600h100v-585q0 -10 7.5 -17.5t17.5 -7.5h55q10 0 17.5 7.5t7.5 17.5v585h100v-585q0 -10 7.5 -17.5t17.5 -7.5h55
q10 0 17.5 7.5t7.5 17.5v585z" />
    <glyph glyph-name="X" unicode="X" horiz-adv-x="418" 
d="M141 362q-2 3 -18.5 21.5t-21.5 24.5t-17 22.5t-16.5 27.5t-9 26.5t-4.5 30.5v185h100v-170q0 -16 17.5 -45t28.5 -41l9 -11l9 11q11 12 28.5 41t17.5 45v170h100v-185q0 -15 -4.5 -30.5t-9 -26.5t-16.5 -27.5t-17 -22.5t-21.5 -24.5t-18.5 -21.5q29 -33 41.5 -48.5
t29 -47.5t16.5 -61v-205h-100v190q0 27 -47 86l-8 10l-8 -10q-47 -59 -47 -86v-190h-100v205q0 29 16.5 61t29 47.5t41.5 48.5z" />
    <glyph glyph-name="Y" unicode="Y" horiz-adv-x="394" 
d="M247 0h-100v288q-4 5 -24 27t-30 34.5t-24 32.5t-20.5 38.5t-6.5 36.5v243h100v-228q0 -16 17.5 -45t28.5 -41l9 -11l9 11q11 12 28.5 41t17.5 45v228h100v-243q0 -18 -6.5 -36.5t-20.5 -38.5t-24 -32.5t-30 -34.5t-24 -27v-288z" />
    <glyph glyph-name="Z" unicode="Z" horiz-adv-x="340" 
d="M20 700h300v-84l-200 -526h200v-90h-300v84l200 526h-200v90z" />
    <glyph glyph-name="bracketleft" unicode="[" horiz-adv-x="275" 
d="M75 -121v821h175v-72h-75v-678h75v-71h-175z" />
    <glyph glyph-name="backslash" unicode="\" 
d="M400 -121h-100l-300 821h100z" />
    <glyph glyph-name="bracketright" unicode="]" horiz-adv-x="275" 
d="M200 -121h-175v71h75v678h-75v72h175v-821z" />
    <glyph glyph-name="asciicircum" unicode="^" 
d="M200 497l-10 -21l-92 -169h-90l164 300h54l167 -300h-91l-93 169z" />
    <glyph glyph-name="underscore" unicode="_" horiz-adv-x="300" 
d="M-5 -200v82h310v-82h-310z" />
    <glyph glyph-name="grave" unicode="`" 
d="M180 700l80 -142h-83l-97 142h100z" />
    <glyph glyph-name="a" unicode="a" horiz-adv-x="397" 
d="M198 0h-52q-41 0 -70.5 29.5t-29.5 70.5v90q0 41 29.5 70.5t70.5 29.5h100v95q0 10 -7.5 17.5t-17.5 7.5h-50q-10 0 -17.5 -7.5t-7.5 -17.5v-35h-100v50q0 41 29.5 70.5t70.5 29.5h100q41 0 70.5 -29.5t29.5 -70.5v-400h-90v41q-7 -14 -25.5 -27.5t-32.5 -13.5zM146 115
q0 -10 7.5 -17.5t17.5 -7.5h50q10 0 17.5 7.5t7.5 17.5v95h-75q-10 0 -17.5 -7.5t-7.5 -17.5v-70z" />
    <glyph glyph-name="b" unicode="b" horiz-adv-x="401" 
d="M53 0v700h100v-240q4 17 20 28.5t30 11.5h50q41 0 70.5 -29.5t29.5 -70.5v-300q0 -41 -29.5 -70.5t-70.5 -29.5h-60q-14 0 -30 12t-20 29v-41h-90zM253 385q0 10 -7.5 17.5t-17.5 7.5h-50q-10 0 -17.5 -7.5t-7.5 -17.5v-270q0 -10 7.5 -17.5t17.5 -7.5h50q10 0 17.5 7.5
t7.5 17.5v270z" />
    <glyph glyph-name="c" unicode="c" horiz-adv-x="379" 
d="M348 150v-50q0 -41 -29.5 -70.5t-70.5 -29.5h-100q-41 0 -70.5 29.5t-29.5 70.5v300q0 41 29.5 70.5t70.5 29.5h100q41 0 70.5 -29.5t29.5 -70.5v-50h-100v35q0 10 -7.5 17.5t-17.5 7.5h-50q-10 0 -17.5 -7.5t-7.5 -17.5v-270q0 -10 7.5 -17.5t17.5 -7.5h50
q10 0 17.5 7.5t7.5 17.5v35h100z" />
    <glyph glyph-name="d" unicode="d" horiz-adv-x="399" 
d="M348 0h-90v41q-4 -17 -20 -29t-30 -12h-60q-41 0 -70.5 29.5t-29.5 70.5v300q0 41 29.5 70.5t70.5 29.5h50q14 0 30 -11.5t20 -28.5v240h100v-700zM148 385v-270q0 -10 7.5 -17.5t17.5 -7.5h50q10 0 17.5 7.5t7.5 17.5v270q0 10 -7.5 17.5t-17.5 7.5h-50
q-10 0 -17.5 -7.5t-7.5 -17.5z" />
    <glyph glyph-name="e" unicode="e" horiz-adv-x="396" 
d="M148 210v-95q0 -10 7.5 -17.5t17.5 -7.5h50q10 0 17.5 7.5t7.5 17.5v35h100v-50q0 -41 -29.5 -70.5t-70.5 -29.5h-100q-41 0 -70.5 29.5t-29.5 70.5v300q0 41 29.5 70.5t70.5 29.5h100q41 0 70.5 -29.5t29.5 -70.5v-190h-200zM148 290h100v95q0 10 -7.5 17.5t-17.5 7.5
h-50q-10 0 -17.5 -7.5t-7.5 -17.5v-95z" />
    <glyph glyph-name="f" unicode="f" horiz-adv-x="260" 
d="M169 500h85v-90h-85v-410h-100v410h-50v90h50v100q0 41 29.5 70.5t70.5 29.5h85v-90h-60q-10 0 -17.5 -7.5t-7.5 -17.5v-85z" />
    <glyph glyph-name="g" unicode="g" horiz-adv-x="392" 
d="M251 385q0 10 -7.5 17.5t-17.5 7.5h-60q-10 0 -17.5 -7.5t-7.5 -17.5v-126q0 -10 7.5 -17.5t17.5 -7.5h60q10 0 17.5 7.5t7.5 17.5v126zM215 500l64 110l77 -45l-32 -55q-9 -15 -30 -22q52 -30 52 -88v-156q0 -41 -29.5 -70.5t-70.5 -29.5h-89q-16 -4 -16 -27
q0 -27 25 -27h90q41 0 70.5 -29.5t29.5 -70.5v-90q0 -41 -29.5 -70.5t-70.5 -29.5h-110q-41 0 -70.5 29.5t-29.5 70.5v50h100v-35q0 -10 7.5 -17.5t17.5 -7.5h60q10 0 17.5 7.5t7.5 17.5v60q0 10 -7.5 17.5t-17.5 7.5h-121q-27 0 -45.5 18.5t-18.5 45.5v28q0 24 15.5 41.5
t38.5 21.5q-54 29 -54 89v156q0 41 29.5 70.5t70.5 29.5h69z" />
    <glyph glyph-name="h" unicode="h" horiz-adv-x="404" 
d="M253 0v385q0 10 -7.5 17.5t-17.5 7.5h-50q-10 0 -17.5 -7.5t-7.5 -17.5v-385h-100v700h100v-240q4 17 20 28.5t30 11.5h50q41 0 70.5 -29.5t29.5 -70.5v-400h-100z" />
    <glyph glyph-name="i" unicode="i" horiz-adv-x="206" 
d="M153 600h-100v100h100v-100zM153 0h-100v500h100v-500z" />
    <glyph glyph-name="j" unicode="j" horiz-adv-x="211" 
d="M158 600h-100v100h100v-100zM58 500h100v-600q0 -41 -29.5 -70.5t-70.5 -29.5h-85v90h60q10 0 17.5 7.5t7.5 17.5v585z" />
    <glyph glyph-name="k" unicode="k" horiz-adv-x="402" 
d="M245 289v-5q45 0 76.5 -29t31.5 -74v-181h-100v165q0 19 -15.5 34.5t-34.5 15.5h-50v-215h-100v700h100v-400h4l145 218l80 -47z" />
    <glyph glyph-name="l" unicode="l" horiz-adv-x="233" 
d="M227 90v-90h-70q-41 0 -70.5 29.5t-29.5 70.5v600h100v-585q0 -10 7.5 -17.5t17.5 -7.5h45z" />
    <glyph glyph-name="m" unicode="m" horiz-adv-x="589" 
d="M53 500h90v-40q7 14 25 27t33 13h59q15 0 33 -13t25 -27q7 14 25 27t33 13h62q41 0 70.5 -29.5t29.5 -70.5v-400h-95v385q0 10 -7.5 17.5t-17.5 7.5h-45q-10 0 -17.5 -7.5t-7.5 -17.5v-385h-100v385q0 10 -7.5 17.5t-17.5 7.5h-45q-10 0 -17.5 -7.5t-7.5 -17.5v-385h-100
v500z" />
    <glyph glyph-name="n" unicode="n" horiz-adv-x="404" 
d="M53 500h90v-40q7 14 25 27t33 13h52q41 0 70.5 -29.5t29.5 -70.5v-400h-100v385q0 10 -7.5 17.5t-17.5 7.5h-50q-10 0 -17.5 -7.5t-7.5 -17.5v-385h-100v500z" />
    <glyph glyph-name="o" unicode="o" horiz-adv-x="396" 
d="M348 399v-300q0 -41 -29.5 -70.5t-70.5 -29.5h-100q-41 0 -70.5 29.5t-29.5 70.5v300q0 41 29.5 70.5t70.5 29.5h100q41 0 70.5 -29.5t29.5 -70.5zM248 384q0 10 -7.5 17.5t-17.5 7.5h-50q-10 0 -17.5 -7.5t-7.5 -17.5v-270q0 -10 7.5 -17.5t17.5 -7.5h50q10 0 17.5 7.5
t7.5 17.5v270z" />
    <glyph glyph-name="p" unicode="p" horiz-adv-x="401" 
d="M53 -200v700h90v-40q4 17 20 28.5t30 11.5h60q41 0 70.5 -29.5t29.5 -70.5v-300q0 -41 -29.5 -70.5t-70.5 -29.5h-50q-14 0 -30 11.5t-20 28.5v-240h-100zM253 385q0 10 -7.5 17.5t-17.5 7.5h-50q-10 0 -17.5 -7.5t-7.5 -17.5v-270q0 -10 7.5 -17.5t17.5 -7.5h50
q10 0 17.5 7.5t7.5 17.5v270z" />
    <glyph glyph-name="q" unicode="q" horiz-adv-x="401" 
d="M348 -200h-100v240q-4 -17 -20 -28.5t-30 -11.5h-50q-41 0 -70.5 29.5t-29.5 70.5v300q0 41 29.5 70.5t70.5 29.5h60q14 0 30 -11.5t20 -28.5v40h90v-700zM148 385v-270q0 -10 7.5 -17.5t17.5 -7.5h50q10 0 17.5 7.5t7.5 17.5v270q0 10 -7.5 17.5t-17.5 7.5h-50
q-10 0 -17.5 -7.5t-7.5 -17.5z" />
    <glyph glyph-name="r" unicode="r" horiz-adv-x="280" 
d="M269 399h-66q-20 0 -36 -15.5t-14 -34.5v-349h-100v500l90 -1v-68q12 20 21 32t25.5 24t35.5 12h44v-100z" />
    <glyph glyph-name="s" unicode="s" horiz-adv-x="384" 
d="M42 335v65q0 41 29.5 70.5t70.5 29.5h100q41 0 70.5 -29.5t29.5 -70.5v-50h-100v35q0 10 -7.5 17.5t-17.5 7.5h-50q-10 0 -17.5 -7.5t-7.5 -17.5v-45q0 -13 5 -19t20 -11l89 -28q46 -15 66 -40.5t20 -76.5v-65q0 -41 -29.5 -70.5t-70.5 -29.5h-100q-41 0 -70.5 29.5
t-29.5 70.5v50h100v-35q0 -10 7.5 -17.5t17.5 -7.5h50q10 0 17.5 7.5t7.5 17.5v45q0 13 -5 19t-20 11l-91 33q-48 17 -66 39.5t-18 72.5z" />
    <glyph glyph-name="t" unicode="t" horiz-adv-x="268" 
d="M67 410h-55v90h55v200h100v-200h80v-90h-80v-295q0 -10 7.5 -17.5t17.5 -7.5h55v-90h-80q-41 0 -70.5 29.5t-29.5 70.5v310z" />
    <glyph glyph-name="u" unicode="u" horiz-adv-x="404" 
d="M351 0h-90v41q-7 -14 -25.5 -27.5t-32.5 -13.5h-52q-41 0 -70.5 29.5t-29.5 70.5v400h100v-385q0 -10 7.5 -17.5t17.5 -7.5h50q10 0 17.5 7.5t7.5 17.5v385h100v-500z" />
    <glyph glyph-name="v" unicode="v" horiz-adv-x="398" 
d="M152 0q-2 2 -22 26t-29 37t-24 35.5t-21.5 41.5t-6.5 37v323h100v-319q0 -16 15.5 -43t25.5 -38l9 -11l9 11q10 11 25.5 38t15.5 43v319h100v-323q0 -18 -6.5 -37t-21.5 -41.5t-24 -35.5t-29 -37t-22 -26h-94z" />
    <glyph glyph-name="w" unicode="w" horiz-adv-x="587" 
d="M441 500h95v-400q0 -41 -29.5 -70.5t-70.5 -29.5h-84q-14 0 -32.5 11t-25.5 23q-7 -12 -25.5 -23t-32.5 -11h-85q-41 0 -70.5 29.5t-29.5 70.5v400h100v-385q0 -10 7.5 -17.5t17.5 -7.5h45q10 0 17.5 7.5t7.5 17.5v385h100v-385q0 -10 7.5 -17.5t17.5 -7.5h45
q10 0 17.5 7.5t7.5 17.5v385z" />
    <glyph glyph-name="x" unicode="x" horiz-adv-x="384" 
d="M129 262q-2 3 -18.5 21.5t-21.5 24.5t-17 22.5t-16.5 27.5t-9 26.5t-4.5 30.5v85h100v-75q0 -16 15.5 -43t25.5 -38l9 -11l9 11q10 11 25.5 38t15.5 43v75h100v-85q0 -15 -4.5 -30.5t-9 -26.5t-16.5 -27.5t-17 -22.5t-21.5 -24.5t-18.5 -21.5q29 -33 41.5 -48.5t29 -47.5
t16.5 -61v-105h-100v95q0 29 -42 81l-8 10l-8 -10q-42 -52 -42 -81v-95h-100v105q0 29 16.5 61t29 47.5t41.5 48.5z" />
    <glyph glyph-name="y" unicode="y" horiz-adv-x="404" 
d="M351 -100q0 -41 -29.5 -70.5t-70.5 -29.5h-100q-41 0 -70.5 29.5t-29.5 70.5v50h100v-35q0 -10 7.5 -17.5t17.5 -7.5h50q10 0 17.5 7.5t7.5 17.5v85v41q-7 -14 -25.5 -27.5t-32.5 -13.5h-42q-41 0 -70.5 29.5t-29.5 70.5v400h100v-385q0 -10 7.5 -17.5t17.5 -7.5h50
q10 0 17.5 7.5t7.5 17.5v385h100v-500v-100z" />
    <glyph glyph-name="z" unicode="z" horiz-adv-x="342" 
d="M21 500h300v-84l-190 -326h190v-90h-300v84l190 326h-190v90z" />
    <glyph glyph-name="braceleft" unicode="{" horiz-adv-x="325" 
d="M158 295l60 -64q14 -14 11 -31l-29 -180q-11 -70 54 -70h46v-71h-54q-73 0 -113 41t-29 113l23 151q10 69 -37 69h-56v83h56q49 0 37 70l-23 140q-12 72 28.5 113t113.5 41h54v-71h-46q-31 0 -45.5 -18t-8.5 -52l29 -167q3 -17 -11 -31l-60 -64v-2z" />
    <glyph glyph-name="bar" unicode="|" horiz-adv-x="300" 
d="M100 890h100v-1060h-100v1060z" />
    <glyph glyph-name="braceright" unicode="}" horiz-adv-x="325" 
d="M167 295v2l-60 64q-14 14 -11 31l29 167q6 34 -8.5 52t-45.5 18h-46v71h54q73 0 113.5 -41t28.5 -113l-23 -140q-12 -70 37 -70h56v-83h-56q-47 0 -37 -69l23 -151q11 -72 -29 -113t-113 -41h-54v71h46q65 0 54 70l-29 180q-3 17 11 31z" />
    <glyph glyph-name="asciitilde" unicode="~" 
d="M188 265q-28 15 -38 15q-15 0 -48 -45l-70 42q32 54 58.5 75t58.5 21q26 0 50 -13l13 -7q28 -15 38 -15q15 0 48 45l70 -42q-32 -54 -58.5 -75t-58.5 -21q-26 0 -50 13z" />
    <glyph glyph-name="nbspace" unicode="&#xa0;" horiz-adv-x="150" 
 />
    <glyph glyph-name="exclamdown" unicode="&#xa1;" horiz-adv-x="270" 
d="M188 394h-106v106h106v-106zM167 300l20 -300v-200h-104v200l20 300h64z" />
    <glyph glyph-name="cent" unicode="&#xa2;" 
d="M155 500v100h90v-100h5q41 0 70.5 -29.5t29.5 -70.5v-50h-100v35q0 10 -7.5 17.5t-17.5 7.5h-50q-10 0 -17.5 -7.5t-7.5 -17.5v-270q0 -10 7.5 -17.5t17.5 -7.5h50q10 0 17.5 7.5t7.5 17.5v35h100v-50q0 -41 -29.5 -70.5t-70.5 -29.5h-5v-100h-90v100h-5
q-41 0 -70.5 29.5t-29.5 70.5v300q0 41 29.5 70.5t70.5 29.5h5z" />
    <glyph glyph-name="sterling" unicode="&#xa3;" 
d="M170 236v-146h200v-90h-300v236h-70v80h70v184q0 41 29.5 70.5t70.5 29.5h100q41 0 70.5 -29.5t29.5 -70.5v-100h-100v85q0 10 -7.5 17.5t-17.5 7.5h-50q-10 0 -17.5 -7.5t-7.5 -17.5v-169h130v-80h-130z" />
    <glyph glyph-name="currency" unicode="&#xa4;" horiz-adv-x="500" 
d="M300 435q0 10 -7.5 17.5t-17.5 7.5h-50q-10 0 -17.5 -7.5t-7.5 -17.5v-270q0 -10 7.5 -17.5t17.5 -7.5h50q10 0 17.5 7.5t7.5 17.5v270zM376 85l52 -90l-78 -45l-58 100h-84l-58 -100l-78 45l52 90q-24 27 -24 65v300q0 38 24 65l-52 90l78 45l58 -100h84l58 100l78 -45
l-52 -90q24 -27 24 -65v-300q0 -38 -24 -65z" />
    <glyph glyph-name="yen" unicode="&#xa5;" 
d="M250 266v-70h100v-80h-100v-116h-100v116h-100v80h100v70h-100v80h74l-98 254h98l55 -155l18 -64h6l17 64l56 155h98l-98 -254h74v-80h-100z" />
    <glyph glyph-name="brokenbar" unicode="&#xa6;" horiz-adv-x="300" 
d="M100 800h100v-400h-100v400zM100 300h100v-400h-100v400z" />
    <glyph glyph-name="section" unicode="&#xa7;" 
d="M320 132q30 -32 30 -85v-65q0 -41 -29.5 -70.5t-70.5 -29.5h-100q-41 0 -70.5 29.5t-29.5 70.5v50h100v-35q0 -10 7.5 -17.5t17.5 -7.5h50q10 0 17.5 7.5t7.5 17.5v45q0 13 -5 19t-20 11l-91 33q-48 17 -66 39.5t-18 72.5v65q0 37 31 70q-31 28 -31 83v65q0 41 29.5 70.5
t70.5 29.5h100q41 0 70.5 -29.5t29.5 -70.5v-50h-100v35q0 10 -7.5 17.5t-17.5 7.5h-50q-10 0 -17.5 -7.5t-7.5 -17.5v-45q0 -13 5 -19t20 -11l89 -28q46 -15 66 -40.5t20 -76.5v-65q0 -36 -30 -68zM250 267q0 17 -25 25l-50 15q-9 3 -17 -6t-8 -19v-67q0 -17 25 -25l50 -15
q9 -3 17 6t8 19v67z" />
    <glyph glyph-name="dieresis" unicode="&#xa8;" 
d="M325 600h-100v100h100v-100zM175 600h-100v100h100v-100z" />
    <glyph glyph-name="copyright" unicode="&#xa9;" horiz-adv-x="660" 
d="M610 247q0 -42 -16 -85t-48 -82.5t-88 -64.5t-128 -25q-71 0 -127.5 25t-88 64.5t-48 82.5t-16.5 85v106q0 42 16.5 85t48 82.5t88 64.5t127.5 25q72 0 128 -25t88 -64.5t48 -82.5t16 -85v-106zM549 247v106q0 79 -56 141t-163 62t-163 -62t-56 -141v-106
q0 -79 56 -141.5t163 -62.5t163 62.5t56 141.5zM455 245v-40q0 -33 -23.5 -56.5t-56.5 -23.5h-90q-33 0 -56.5 23.5t-23.5 56.5v190q0 33 23.5 56.5t56.5 23.5h90q33 0 56.5 -23.5t23.5 -56.5v-40h-80v28q0 7 -6.5 13.5t-13.5 6.5h-50q-7 0 -13.5 -6.5t-6.5 -13.5v-166
q0 -7 6.5 -13.5t13.5 -6.5h50q7 0 13.5 6.5t6.5 13.5v28h80z" />
    <glyph glyph-name="ordfeminine" unicode="&#xaa;" horiz-adv-x="271" 
d="M101 507h-66v32q0 25 18.5 43t43.5 18h77q25 0 43.5 -18t18.5 -43v-289h-60v16q-16 -16 -30 -16h-49q-26 0 -44 17.5t-18 42.5v88q0 25 18 42.5t44 17.5h73v66q0 7 -5.5 12.5t-12.5 5.5h-32q-7 0 -13 -5.5t-6 -12.5v-17zM101 387v-62q0 -7 6 -12.5t13 -5.5h32
q7 0 12.5 5.5t5.5 12.5v80h-50q-7 0 -13 -5.5t-6 -12.5z" />
    <glyph glyph-name="guillemotleft" unicode="&#xab;" horiz-adv-x="391" 
d="M122 260l8 -8l75 -123h-89l-79 106v49l79 106h89l-75 -122zM286 260l8 -8l75 -123h-89l-79 106v49l79 106h89l-75 -122z" />
    <glyph glyph-name="logicalnot" unicode="&#xac;" 
d="M291 272h-271v82h356v-208h-85v126z" />
    <glyph glyph-name="registered" unicode="&#xae;" horiz-adv-x="439" 
d="M219 328q-87 0 -133 51t-46 110v61q0 59 46 110t133 51q88 0 134 -51t46 -110v-61q0 -59 -46 -110t-134 -51zM357 489v61q0 49 -35.5 86.5t-102.5 37.5t-102 -37.5t-35 -86.5v-61q0 -49 35 -87t102 -38t102.5 38t35.5 87zM183 502l1 -7v-76h-40v203h102q19 0 35.5 -15
t16.5 -36v-6q0 -40 -32 -50l52 -96h-45l-43 82h-39zM241 585h-51h-7l1 -6v-35l-1 -7h7h49q5 0 10 5.5t5 11.5v18q0 5 -4 9t-9 4z" />
    <glyph glyph-name="macron" unicode="&#xaf;" 
d="M76 583v82h248v-82h-248z" />
    <glyph glyph-name="degree" unicode="&#xb0;" horiz-adv-x="280" 
d="M250 525v-150q0 -31 -22 -53t-53 -22h-70q-31 0 -53 22t-22 53v150q0 31 22 53t53 22h70q31 0 53 -22t22 -53zM184 524q0 7 -5.5 12.5t-12.5 5.5h-51q-7 0 -13 -5.5t-6 -12.5v-147q0 -8 5.5 -14t13.5 -6h51q7 0 12.5 6t5.5 14v147z" />
    <glyph glyph-name="plusminus" unicode="&#xb1;" 
d="M26 89v82h349v-82h-349zM244 386h131v-83h-131v-115h-86v115h-132v83h132v114h86v-114z" />
    <glyph glyph-name="twosuperior" unicode="&#xb2;" horiz-adv-x="260" 
d="M165 524q0 7 -5.5 12.5t-12.5 5.5h-32q-7 0 -13 -5.5t-6 -12.5v-46h-66v61q0 25 18 43t44 18h77q26 0 44 -18t18 -43v-71q0 -52 -60 -82l-62 -32q-13 -6 -13 -26v-19h135v-59h-201v87q0 53 61 83l61 31q13 8 13 25v48z" />
    <glyph glyph-name="threesuperior" unicode="&#xb3;" horiz-adv-x="260" 
d="M96 338v-13q0 -7 6 -12.5t13 -5.5h38q7 0 12.5 5.5t5.5 12.5v51q0 10 -7.5 18t-18.5 8h-57v58h66q11 0 11 11v53q0 7 -5.5 12.5t-12.5 5.5h-32q-7 0 -13 -5.5t-6 -12.5v-18h-66v33q0 25 18 43t44 18h77q26 0 44 -18t18 -43v-46q0 -23 -13 -39.5t-31 -19.5v-3
q18 -1 34 -18.5t16 -41.5v-60q0 -25 -18 -43t-44 -18h-83q-26 0 -44 18t-18 43v27h66z" />
    <glyph glyph-name="acute" unicode="&#xb4;" 
d="M220 700h100l-97 -142h-83z" />
    <glyph glyph-name="mu" unicode="&#xb5;" horiz-adv-x="414" 
d="M220 0l7 41q-9 -14 -30 -27.5t-35 -13.5h-52q-16 0 -33 6q10 -10 18 -30t5 -34l-25 -142h-100l49 276l74 424h100l-68 -385q-2 -10 4.5 -17.5t16.5 -7.5h50q10 0 19 7.5t10 17.5l68 385h100l-88 -500h-90z" />
    <glyph glyph-name="mu" unicode="&#x3bc;" horiz-adv-x="414" 
d="M220 0l7 41q-9 -14 -30 -27.5t-35 -13.5h-52q-16 0 -33 6q10 -10 18 -30t5 -34l-25 -142h-100l49 276l74 424h100l-68 -385q-2 -10 4.5 -17.5t16.5 -7.5h50q10 0 19 7.5t10 17.5l68 385h100l-88 -500h-90z" />
    <glyph glyph-name="paragraph" unicode="&#xb6;" horiz-adv-x="567" 
d="M492 700v-900h-100v810h-110v-810h-100v399h-25q-41 0 -70.5 29.5t-29.5 70.5v301q0 41 29.5 70.5t70.5 29.5h335z" />
    <glyph glyph-name="periodcentered" unicode="&#xb7;" horiz-adv-x="150" 
d="M128 323v-106h-106v106h106z" />
    <glyph glyph-name="cedilla" unicode="&#xb8;" 
d="M179 22l77 -46l-70 -121l-77 45z" />
    <glyph glyph-name="onesuperior" unicode="&#xb9;" horiz-adv-x="190" 
d="M140 250h-66v290h-44v60h110v-350z" />
    <glyph glyph-name="ordmasculine" unicode="&#xba;" horiz-adv-x="271" 
d="M236 310q0 -25 -18 -42.5t-44 -17.5h-77q-26 0 -44 17.5t-18 42.5v229q0 25 18.5 43t43.5 18h77q25 0 43.5 -18t18.5 -43v-229zM170 325v199q0 7 -5.5 12.5t-12.5 5.5h-32q-7 0 -13 -5.5t-6 -12.5v-199q0 -7 6 -12.5t13 -5.5h32q7 0 12.5 5.5t5.5 12.5z" />
    <glyph glyph-name="guillemotright" unicode="&#xbb;" horiz-adv-x="391" 
d="M269 260l-8 8l-75 122h89l79 -106v-49l-79 -106h-89l75 123zM105 260l-8 8l-75 122h89l79 -106v-49l-79 -106h-89l75 123z" />
    <glyph glyph-name="onequarter" unicode="&#xbc;" horiz-adv-x="575" 
d="M150 250h-66v290h-44v60h110v-350zM104 0l262 600h61l-262 -600h-61zM483 350v-225h53v-58h-53v-67h-67v67h-122v48l123 235h66zM416 264l-72 -139h72v139z" />
    <glyph glyph-name="onehalf" unicode="&#xbd;" horiz-adv-x="600" 
d="M150 250h-66v290h-44v60h110v-350zM104 0l262 600h61l-262 -600h-61zM495 274q0 7 -5.5 12.5t-12.5 5.5h-32q-7 0 -13 -5.5t-6 -12.5v-46h-66v61q0 25 18 43t44 18h77q26 0 44 -18t18 -43v-71q0 -52 -60 -82l-62 -32q-13 -6 -13 -26v-19h135v-59h-201v87q0 53 61 83
l61 31q13 8 13 25v48z" />
    <glyph glyph-name="threequarters" unicode="&#xbe;" horiz-adv-x="650" 
d="M111 338v-13q0 -7 6 -12.5t13 -5.5h38q7 0 12.5 5.5t5.5 12.5v51q0 10 -8 18t-18 8h-57v58h66q11 0 11 11v53q0 7 -5.5 12.5t-12.5 5.5h-32q-7 0 -13 -5.5t-6 -12.5v-18h-66v33q0 25 18 43t44 18h77q26 0 44 -18t18 -43v-46q0 -23 -13 -39.5t-31 -19.5v-3q18 -1 34 -18.5
t16 -41.5v-60q0 -25 -18 -43t-44 -18h-83q-26 0 -44 18t-18 43v27h66zM179 0l262 600h61l-262 -600h-61zM558 350v-225h53v-58h-53v-67h-67v67h-122v48l123 235h66zM491 264l-72 -139h72v139z" />
    <glyph glyph-name="questiondown" unicode="&#xbf;" horiz-adv-x="385" 
d="M161 221v79h94v-84q0 -30 -11.5 -54.5t-28.5 -41.5t-33.5 -32.5t-28 -37t-11.5 -46.5v-89q0 -10 7.5 -17.5t17.5 -7.5h50q10 0 17.5 7.5t7.5 17.5v85h100v-100q0 -41 -29.5 -70.5t-70.5 -29.5h-100q-41 0 -70.5 29.5t-29.5 70.5v125q0 34 18.5 63t41 46t41 40.5
t18.5 46.5zM152 394v106h106v-106h-106z" />
    <glyph glyph-name="Agrave" unicode="&#xc0;" horiz-adv-x="438" 
d="M374 0h-100v315h-110v-315h-100v600q0 41 29.5 70.5t70.5 29.5h110q41 0 70.5 -29.5t29.5 -70.5v-600zM274 405v180q0 10 -7.5 17.5t-17.5 7.5h-60q-10 0 -17.5 -7.5t-7.5 -17.5v-180h110zM188 880l79 -142h-82l-95 142h98z" />
    <glyph glyph-name="Aacute" unicode="&#xc1;" horiz-adv-x="438" 
d="M374 0h-100v315h-110v-315h-100v600q0 41 29.5 70.5t70.5 29.5h110q41 0 70.5 -29.5t29.5 -70.5v-600zM274 405v180q0 10 -7.5 17.5t-17.5 7.5h-60q-10 0 -17.5 -7.5t-7.5 -17.5v-180h110zM255 880h100l-97 -142h-83z" />
    <glyph glyph-name="Acircumflex" unicode="&#xc2;" horiz-adv-x="438" 
d="M374 0h-100v315h-110v-315h-100v600q0 41 29.5 70.5t70.5 29.5h110q41 0 70.5 -29.5t29.5 -70.5v-600zM274 405v180q0 10 -7.5 17.5t-17.5 7.5h-60q-10 0 -17.5 -7.5t-7.5 -17.5v-180h110zM359 738h-90l-50 81l-50 -81h-90l103 142h74z" />
    <glyph glyph-name="Atilde" unicode="&#xc3;" horiz-adv-x="438" 
d="M374 0h-100v315h-110v-315h-100v600q0 41 29.5 70.5t70.5 29.5h110q41 0 70.5 -29.5t29.5 -70.5v-600zM274 405v180q0 10 -7.5 17.5t-17.5 7.5h-60q-10 0 -17.5 -7.5t-7.5 -17.5v-180h110zM208 765q-28 14 -34 14q-14 0 -44 -41l-64 38q29 49 53 68t54 19q21 0 45 -12
l12 -6q28 -14 34 -14q14 0 44 41l64 -38q-29 -49 -53 -68t-54 -19q-21 0 -45 12z" />
    <glyph glyph-name="Adieresis" unicode="&#xc4;" horiz-adv-x="438" 
d="M374 0h-100v315h-110v-315h-100v600q0 41 29.5 70.5t70.5 29.5h110q41 0 70.5 -29.5t29.5 -70.5v-600zM274 405v180q0 10 -7.5 17.5t-17.5 7.5h-60q-10 0 -17.5 -7.5t-7.5 -17.5v-180h110zM344 738h-100v100h100v-100zM194 738h-100v100h100v-100z" />
    <glyph glyph-name="Aring" unicode="&#xc5;" horiz-adv-x="438" 
d="M374 0h-100v315h-110v-315h-100v600q0 41 29.5 70.5t70.5 29.5h110q41 0 70.5 -29.5t29.5 -70.5v-600zM274 405v180q0 10 -7.5 17.5t-17.5 7.5h-60q-10 0 -17.5 -7.5t-7.5 -17.5v-180h110zM219 898q37 0 63 -26t26 -63t-26 -63t-63 -26t-63 26t-26 63t26 63t63 26z
M219 855q-19 0 -32 -13.5t-13 -32.5t13 -32.5t32 -13.5t32 13.5t13 32.5t-13 32.5t-32 13.5z" />
    <glyph glyph-name="AE" unicode="&#xc6;" horiz-adv-x="525" 
d="M125 110l-31 -110h-104l223 700h280v-90h-150v-205h122v-90h-122v-225h150v-90h-250v110h-118zM243 200v250l6 98h-6l-22 -98l-71 -250h93z" />
    <glyph glyph-name="Ccedilla" unicode="&#xc7;" 
d="M367 200v-100q0 -41 -29.5 -70.5t-70.5 -29.5h-39l40 -24l-70 -121l-77 45l57 100h-21q-41 0 -70.5 29.5t-29.5 70.5v500q0 41 29.5 70.5t70.5 29.5h110q41 0 70.5 -29.5t29.5 -70.5v-100h-100v85q0 10 -7.5 17.5t-17.5 7.5h-60q-10 0 -17.5 -7.5t-7.5 -17.5v-470
q0 -10 7.5 -17.5t17.5 -7.5h60q10 0 17.5 7.5t7.5 17.5v85h100z" />
    <glyph glyph-name="Egrave" unicode="&#xc8;" horiz-adv-x="350" 
d="M68 700h250v-90h-150v-205h122v-90h-122v-225h150v-90h-250v700zM168 880l80 -142h-83l-97 142h100z" />
    <glyph glyph-name="Eacute" unicode="&#xc9;" horiz-adv-x="350" 
d="M68 700h250v-90h-150v-205h122v-90h-122v-225h150v-90h-250v700zM225 880h100l-97 -142h-83z" />
    <glyph glyph-name="Ecircumflex" unicode="&#xca;" horiz-adv-x="350" 
d="M68 700h250v-90h-150v-205h122v-90h-122v-225h150v-90h-250v700zM333 738h-90l-50 81l-50 -81h-90l103 142h74z" />
    <glyph glyph-name="Edieresis" unicode="&#xcb;" horiz-adv-x="350" 
d="M68 700h250v-90h-150v-205h122v-90h-122v-225h150v-90h-250v700zM318 738h-100v100h100v-100zM168 738h-100v100h100v-100z" />
    <glyph glyph-name="Igrave" unicode="&#xcc;" horiz-adv-x="236" 
d="M168 0h-100v700h100v-700zM88 880l80 -142h-83l-97 142h100z" />
    <glyph glyph-name="Iacute" unicode="&#xcd;" horiz-adv-x="236" 
d="M168 0h-100v700h100v-700zM148 880h100l-97 -142h-83z" />
    <glyph glyph-name="Icircumflex" unicode="&#xce;" horiz-adv-x="236" 
d="M168 0h-100v700h100v-700zM258 738h-90l-50 81l-50 -81h-90l103 142h74z" />
    <glyph glyph-name="Idieresis" unicode="&#xcf;" horiz-adv-x="236" 
d="M168 0h-100v700h100v-700zM243 738h-100v100h100v-100zM93 738h-100v100h100v-100z" />
    <glyph glyph-name="Eth" unicode="&#xd0;" horiz-adv-x="442" 
d="M175 393h56v-83h-56v-220h85q10 0 17.5 7.5t7.5 17.5v470q0 10 -7.5 17.5t-17.5 7.5h-85v-217zM75 310h-52v83h52v307h210q41 0 70.5 -29.5t29.5 -70.5v-500q0 -41 -29.5 -70.5t-70.5 -29.5h-210v310z" />
    <glyph glyph-name="Ntilde" unicode="&#xd1;" horiz-adv-x="442" 
d="M68 700h90v-40q7 14 25 27t33 13h62q41 0 70.5 -29.5t29.5 -70.5v-600h-100v585q0 10 -7.5 17.5t-17.5 7.5h-60q-10 0 -17.5 -7.5t-7.5 -17.5v-585h-100v700zM211 765q-28 14 -34 14q-14 0 -44 -41l-64 38q29 49 53 68t54 19q21 0 45 -12l12 -6q28 -14 34 -14q14 0 44 41
l64 -38q-29 -49 -53 -68t-54 -19q-21 0 -45 12z" />
    <glyph glyph-name="Ograve" unicode="&#xd2;" horiz-adv-x="424" 
d="M367 600v-500q0 -41 -29.5 -70.5t-70.5 -29.5h-110q-41 0 -70.5 29.5t-29.5 70.5v500q0 41 29.5 70.5t70.5 29.5h110q41 0 70.5 -29.5t29.5 -70.5zM267 585q0 10 -7.5 17.5t-17.5 7.5h-60q-10 0 -17.5 -7.5t-7.5 -17.5v-470q0 -10 7.5 -17.5t17.5 -7.5h60q10 0 17.5 7.5
t7.5 17.5v470zM187 880l80 -142h-83l-97 142h100z" />
    <glyph glyph-name="Oacute" unicode="&#xd3;" horiz-adv-x="424" 
d="M367 600v-500q0 -41 -29.5 -70.5t-70.5 -29.5h-110q-41 0 -70.5 29.5t-29.5 70.5v500q0 41 29.5 70.5t70.5 29.5h110q41 0 70.5 -29.5t29.5 -70.5zM267 585q0 10 -7.5 17.5t-17.5 7.5h-60q-10 0 -17.5 -7.5t-7.5 -17.5v-470q0 -10 7.5 -17.5t17.5 -7.5h60q10 0 17.5 7.5
t7.5 17.5v470zM247 880h100l-97 -142h-83z" />
    <glyph glyph-name="Ocircumflex" unicode="&#xd4;" horiz-adv-x="424" 
d="M367 600v-500q0 -41 -29.5 -70.5t-70.5 -29.5h-110q-41 0 -70.5 29.5t-29.5 70.5v500q0 41 29.5 70.5t70.5 29.5h110q41 0 70.5 -29.5t29.5 -70.5zM267 585q0 10 -7.5 17.5t-17.5 7.5h-60q-10 0 -17.5 -7.5t-7.5 -17.5v-470q0 -10 7.5 -17.5t17.5 -7.5h60q10 0 17.5 7.5
t7.5 17.5v470zM352 738h-90l-50 81l-50 -81h-90l103 142h74z" />
    <glyph glyph-name="Otilde" unicode="&#xd5;" horiz-adv-x="424" 
d="M367 600v-500q0 -41 -29.5 -70.5t-70.5 -29.5h-110q-41 0 -70.5 29.5t-29.5 70.5v500q0 41 29.5 70.5t70.5 29.5h110q41 0 70.5 -29.5t29.5 -70.5zM267 585q0 10 -7.5 17.5t-17.5 7.5h-60q-10 0 -17.5 -7.5t-7.5 -17.5v-470q0 -10 7.5 -17.5t17.5 -7.5h60q10 0 17.5 7.5
t7.5 17.5v470zM201 765q-28 14 -34 14q-14 0 -44 -41l-64 38q29 49 53 68t54 19q21 0 45 -12l12 -6q28 -14 34 -14q14 0 44 41l64 -38q-29 -49 -53 -68t-54 -19q-21 0 -45 12z" />
    <glyph glyph-name="Odieresis" unicode="&#xd6;" horiz-adv-x="424" 
d="M367 600v-500q0 -41 -29.5 -70.5t-70.5 -29.5h-110q-41 0 -70.5 29.5t-29.5 70.5v500q0 41 29.5 70.5t70.5 29.5h110q41 0 70.5 -29.5t29.5 -70.5zM267 585q0 10 -7.5 17.5t-17.5 7.5h-60q-10 0 -17.5 -7.5t-7.5 -17.5v-470q0 -10 7.5 -17.5t17.5 -7.5h60q10 0 17.5 7.5
t7.5 17.5v470zM337 738h-100v100h100v-100zM187 738h-100v100h100v-100z" />
    <glyph glyph-name="multiply" unicode="&#xd7;" 
d="M259 313l127 -126l-59 -60l-127 127l-127 -127l-59 59l128 127l-128 128l59 58l127 -127l127 127l59 -59z" />
    <glyph glyph-name="Oslash" unicode="&#xd8;" horiz-adv-x="424" 
d="M79 38q-22 27 -22 62v500q0 41 29.5 70.5t70.5 29.5h110q23 0 42 -9l20 59h43l-29 -86q24 -27 24 -64v-500q0 -41 -29.5 -70.5t-70.5 -29.5h-110q-23 0 -42 9l-5 -15q-5 -14 -10 -29l-5 -15h-46zM272 581v4q0 10 -7.5 17.5t-17.5 7.5h-70q-10 0 -17.5 -7.5t-7.5 -17.5
v-269q0 -35 -9 -96zM152 122v-7q0 -10 7.5 -17.5t17.5 -7.5h70q10 0 17.5 7.5t7.5 17.5v272q0 35 9 96z" />
    <glyph glyph-name="Ugrave" unicode="&#xd9;" horiz-adv-x="438" 
d="M374 700v-600q0 -41 -29.5 -70.5t-70.5 -29.5h-110q-41 0 -70.5 29.5t-29.5 70.5v600h100v-585q0 -10 7.5 -17.5t17.5 -7.5h60q10 0 17.5 7.5t7.5 17.5v585h100zM194 880l80 -142h-83l-97 142h100z" />
    <glyph glyph-name="Uacute" unicode="&#xda;" horiz-adv-x="438" 
d="M374 698v-600q0 -41 -29.5 -70.5t-70.5 -29.5h-110q-41 0 -70.5 29.5t-29.5 70.5v600h100v-585q0 -10 7.5 -17.5t17.5 -7.5h60q10 0 17.5 7.5t7.5 17.5v585h100zM249 880h100l-97 -142h-83z" />
    <glyph glyph-name="Ucircumflex" unicode="&#xdb;" horiz-adv-x="438" 
d="M374 700v-600q0 -41 -29.5 -70.5t-70.5 -29.5h-110q-41 0 -70.5 29.5t-29.5 70.5v600h100v-585q0 -10 7.5 -17.5t17.5 -7.5h60q10 0 17.5 7.5t7.5 17.5v585h100zM359 738h-90l-50 81l-50 -81h-90l103 142h74z" />
    <glyph glyph-name="Udieresis" unicode="&#xdc;" horiz-adv-x="438" 
d="M374 700v-600q0 -41 -29.5 -70.5t-70.5 -29.5h-110q-41 0 -70.5 29.5t-29.5 70.5v600h100v-585q0 -10 7.5 -17.5t17.5 -7.5h60q10 0 17.5 7.5t7.5 17.5v585h100zM344 738h-100v100h100v-100zM194 738h-100v100h100v-100z" />
    <glyph glyph-name="Yacute" unicode="&#xdd;" horiz-adv-x="394" 
d="M247 0h-100v288q-4 5 -24 27t-30 34.5t-24 32.5t-20.5 38.5t-6.5 36.5v243h100v-228q0 -16 17.5 -45t28.5 -41l9 -11l9 11q11 12 28.5 41t17.5 45v228h100v-243q0 -18 -6.5 -36.5t-20.5 -38.5t-24 -32.5t-30 -34.5t-24 -27v-288zM235 880h100l-97 -142h-83z" />
    <glyph glyph-name="Thorn" unicode="&#xde;" horiz-adv-x="418" 
d="M68 700h100v-154h110q41 0 70.5 -29.5t29.5 -70.5v-185q0 -41 -29.5 -70.5t-70.5 -29.5h-110v-161h-100v700zM253 251q10 0 17.5 7.5t7.5 17.5v155q0 10 -7.5 17.5t-17.5 7.5h-85v-205h85z" />
    <glyph glyph-name="germandbls" unicode="&#xdf;" horiz-adv-x="425" 
d="M232 90h47q10 0 17.5 7.5t7.5 17.5v45q0 26 -13 49l-59 102v89h12q12 0 18.5 7.5t6.5 16.5v161q0 10 -7.5 17.5t-17.5 7.5h-50q-9 0 -17 -7.5t-8 -17.5v-585h-100v410h-50v90h50v100q0 41 29.5 70.5t70.5 29.5h100q41 0 70.5 -29.5t29.5 -70.5v-145q0 -69 -54 -86v-5
l33 -56q1 -1 13 -21t16 -28t12.5 -26t11.5 -34.5t3 -33.5v-65q0 -41 -29.5 -70.5t-70.5 -29.5h-72v90z" />
    <glyph glyph-name="agrave" unicode="&#xe0;" horiz-adv-x="397" 
d="M198 0h-52q-41 0 -70.5 29.5t-29.5 70.5v90q0 41 29.5 70.5t70.5 29.5h100v95q0 10 -7.5 17.5t-17.5 7.5h-50q-10 0 -17.5 -7.5t-7.5 -17.5v-35h-100v50q0 41 29.5 70.5t70.5 29.5h100q41 0 70.5 -29.5t29.5 -70.5v-400h-90v41q-7 -14 -25.5 -27.5t-32.5 -13.5zM146 115
q0 -10 7.5 -17.5t17.5 -7.5h50q10 0 17.5 7.5t7.5 17.5v95h-75q-10 0 -17.5 -7.5t-7.5 -17.5v-70zM166 700l80 -142h-83l-97 142h100z" />
    <glyph glyph-name="aacute" unicode="&#xe1;" horiz-adv-x="397" 
d="M198 0h-52q-41 0 -70.5 29.5t-29.5 70.5v90q0 41 29.5 70.5t70.5 29.5h100v95q0 10 -7.5 17.5t-17.5 7.5h-50q-10 0 -17.5 -7.5t-7.5 -17.5v-35h-100v50q0 41 29.5 70.5t70.5 29.5h100q41 0 70.5 -29.5t29.5 -70.5v-400h-90v41q-7 -14 -25.5 -27.5t-32.5 -13.5zM146 115
q0 -10 7.5 -17.5t17.5 -7.5h50q10 0 17.5 7.5t7.5 17.5v95h-75q-10 0 -17.5 -7.5t-7.5 -17.5v-70zM226 700h100l-97 -142h-83z" />
    <glyph glyph-name="acircumflex" unicode="&#xe2;" horiz-adv-x="397" 
d="M198 0h-52q-41 0 -70.5 29.5t-29.5 70.5v90q0 41 29.5 70.5t70.5 29.5h100v95q0 10 -7.5 17.5t-17.5 7.5h-50q-10 0 -17.5 -7.5t-7.5 -17.5v-35h-100v50q0 41 29.5 70.5t70.5 29.5h100q41 0 70.5 -29.5t29.5 -70.5v-400h-90v41q-7 -14 -25.5 -27.5t-32.5 -13.5zM146 115
q0 -10 7.5 -17.5t17.5 -7.5h50q10 0 17.5 7.5t7.5 17.5v95h-75q-10 0 -17.5 -7.5t-7.5 -17.5v-70zM346 558h-90l-50 81l-50 -81h-90l103 142h74z" />
    <glyph glyph-name="atilde" unicode="&#xe3;" horiz-adv-x="397" 
d="M190 585q-28 14 -34 14q-14 0 -44 -41l-64 38q29 49 53 68t54 19q21 0 45 -12l12 -6q28 -14 34 -14q14 0 44 41l64 -38q-29 -49 -53 -68t-54 -19q-21 0 -45 12zM198 0h-52q-41 0 -70.5 29.5t-29.5 70.5v90q0 41 29.5 70.5t70.5 29.5h100v95q0 10 -7.5 17.5t-17.5 7.5h-50
q-10 0 -17.5 -7.5t-7.5 -17.5v-35h-100v50q0 41 29.5 70.5t70.5 29.5h100q41 0 70.5 -29.5t29.5 -70.5v-400h-90v41q-7 -14 -25.5 -27.5t-32.5 -13.5zM146 115q0 -10 7.5 -17.5t17.5 -7.5h50q10 0 17.5 7.5t7.5 17.5v95h-75q-10 0 -17.5 -7.5t-7.5 -17.5v-70z" />
    <glyph glyph-name="adieresis" unicode="&#xe4;" horiz-adv-x="397" 
d="M198 0h-52q-41 0 -70.5 29.5t-29.5 70.5v90q0 41 29.5 70.5t70.5 29.5h100v95q0 10 -7.5 17.5t-17.5 7.5h-50q-10 0 -17.5 -7.5t-7.5 -17.5v-35h-100v50q0 41 29.5 70.5t70.5 29.5h100q41 0 70.5 -29.5t29.5 -70.5v-400h-90v41q-7 -14 -25.5 -27.5t-32.5 -13.5zM146 115
q0 -10 7.5 -17.5t17.5 -7.5h50q10 0 17.5 7.5t7.5 17.5v95h-75q-10 0 -17.5 -7.5t-7.5 -17.5v-70zM331 600h-100v100h100v-100zM181 600h-100v100h100v-100z" />
    <glyph glyph-name="aring" unicode="&#xe5;" horiz-adv-x="397" 
d="M198 0h-52q-41 0 -70.5 29.5t-29.5 70.5v90q0 41 29.5 70.5t70.5 29.5h100v95q0 10 -7.5 17.5t-17.5 7.5h-50q-10 0 -17.5 -7.5t-7.5 -17.5v-35h-100v50q0 41 29.5 70.5t70.5 29.5h100q41 0 70.5 -29.5t29.5 -70.5v-400h-90v41q-7 -14 -25.5 -27.5t-32.5 -13.5zM146 115
q0 -10 7.5 -17.5t17.5 -7.5h50q10 0 17.5 7.5t7.5 17.5v95h-75q-10 0 -17.5 -7.5t-7.5 -17.5v-70zM196 718q38 0 63.5 -26t25.5 -63t-25.5 -63t-63.5 -26t-63.5 26t-25.5 63t25.5 63t63.5 26zM196 675q-19 0 -32 -13.5t-13 -32.5t13 -32.5t32 -13.5t32 13.5t13 32.5
t-13 32.5t-32 13.5z" />
    <glyph glyph-name="ae" unicode="&#xe6;" horiz-adv-x="594" 
d="M446 500q41 0 70.5 -29.5t29.5 -70.5v-190h-200v-95q0 -10 7.5 -17.5t17.5 -7.5h50q10 0 17.5 7.5t7.5 17.5v35h100v-50q0 -41 -29.5 -70.5t-70.5 -29.5h-100q-20 0 -50 18q-30 -18 -50 -18h-100q-41 0 -70.5 29.5t-29.5 70.5v90q0 41 29.5 70.5t70.5 29.5h100v95
q0 10 -7.5 17.5t-17.5 7.5h-50q-10 0 -17.5 -7.5t-7.5 -17.5v-35h-100v50q0 41 29.5 70.5t70.5 29.5h100q20 0 50 -18q30 18 50 18h100zM346 290h100v95q0 10 -7.5 17.5t-17.5 7.5h-50q-10 0 -17.5 -7.5t-7.5 -17.5v-95zM146 115q0 -10 7.5 -17.5t17.5 -7.5h50
q10 0 17.5 7.5t7.5 17.5v95h-75q-10 0 -17.5 -7.5t-7.5 -17.5v-70z" />
    <glyph glyph-name="ccedilla" unicode="&#xe7;" horiz-adv-x="379" 
d="M348 150v-50q0 -41 -29.5 -70.5t-70.5 -29.5h-34l40 -24l-70 -121l-77 45l57 100h-16q-41 0 -70.5 29.5t-29.5 70.5v300q0 41 29.5 70.5t70.5 29.5h100q41 0 70.5 -29.5t29.5 -70.5v-50h-100v35q0 10 -7.5 17.5t-17.5 7.5h-50q-10 0 -17.5 -7.5t-7.5 -17.5v-270
q0 -10 7.5 -17.5t17.5 -7.5h50q10 0 17.5 7.5t7.5 17.5v35h100z" />
    <glyph glyph-name="egrave" unicode="&#xe8;" horiz-adv-x="396" 
d="M148 210v-95q0 -10 7.5 -17.5t17.5 -7.5h50q10 0 17.5 7.5t7.5 17.5v35h100v-50q0 -41 -29.5 -70.5t-70.5 -29.5h-100q-41 0 -70.5 29.5t-29.5 70.5v300q0 41 29.5 70.5t70.5 29.5h100q41 0 70.5 -29.5t29.5 -70.5v-190h-200zM148 290h100v95q0 10 -7.5 17.5t-17.5 7.5
h-50q-10 0 -17.5 -7.5t-7.5 -17.5v-95zM168 700l80 -142h-83l-97 142h100z" />
    <glyph glyph-name="eacute" unicode="&#xe9;" horiz-adv-x="396" 
d="M148 210v-95q0 -10 7.5 -17.5t17.5 -7.5h50q10 0 17.5 7.5t7.5 17.5v35h100v-50q0 -41 -29.5 -70.5t-70.5 -29.5h-100q-41 0 -70.5 29.5t-29.5 70.5v300q0 41 29.5 70.5t70.5 29.5h100q41 0 70.5 -29.5t29.5 -70.5v-190h-200zM148 290h100v95q0 10 -7.5 17.5t-17.5 7.5
h-50q-10 0 -17.5 -7.5t-7.5 -17.5v-95zM228 700h100l-97 -142h-83z" />
    <glyph glyph-name="ecircumflex" unicode="&#xea;" horiz-adv-x="396" 
d="M148 210v-95q0 -10 7.5 -17.5t17.5 -7.5h50q10 0 17.5 7.5t7.5 17.5v35h100v-50q0 -41 -29.5 -70.5t-70.5 -29.5h-100q-41 0 -70.5 29.5t-29.5 70.5v300q0 41 29.5 70.5t70.5 29.5h100q41 0 70.5 -29.5t29.5 -70.5v-190h-200zM148 290h100v95q0 10 -7.5 17.5t-17.5 7.5
h-50q-10 0 -17.5 -7.5t-7.5 -17.5v-95zM338 558h-90l-50 81l-50 -81h-90l103 142h74z" />
    <glyph glyph-name="edieresis" unicode="&#xeb;" horiz-adv-x="396" 
d="M148 210v-95q0 -10 7.5 -17.5t17.5 -7.5h50q10 0 17.5 7.5t7.5 17.5v35h100v-50q0 -41 -29.5 -70.5t-70.5 -29.5h-100q-41 0 -70.5 29.5t-29.5 70.5v300q0 41 29.5 70.5t70.5 29.5h100q41 0 70.5 -29.5t29.5 -70.5v-190h-200zM148 290h100v95q0 10 -7.5 17.5t-17.5 7.5
h-50q-10 0 -17.5 -7.5t-7.5 -17.5v-95zM323 600h-100v100h100v-100zM173 600h-100v100h100v-100z" />
    <glyph glyph-name="igrave" unicode="&#xec;" horiz-adv-x="206" 
d="M136 0h-100v500h100v-500zM66 700l80 -142h-83l-97 142h100z" />
    <glyph glyph-name="iacute" unicode="&#xed;" horiz-adv-x="206" 
d="M153 0h-100v500h100v-500zM123 700h100l-97 -142h-83z" />
    <glyph glyph-name="icircumflex" unicode="&#xee;" horiz-adv-x="206" 
d="M243 558h-90l-50 81l-50 -81h-90l103 142h74zM153 0h-100v500h100v-500z" />
    <glyph glyph-name="idieresis" unicode="&#xef;" horiz-adv-x="206" 
d="M228 600h-100v100h100v-100zM78 600h-100v100h100v-100zM153 0h-100v500h100v-500z" />
    <glyph glyph-name="eth" unicode="&#xf0;" horiz-adv-x="403" 
d="M255 385q0 10 -7.5 17.5t-17.5 7.5h-50q-10 0 -17.5 -7.5t-7.5 -17.5v-270q0 -10 7.5 -17.5t17.5 -7.5h50q10 0 17.5 7.5t7.5 17.5v270zM146 564l-91 -36v72l51 20l-58 80h115l32 -44l110 44v-72l-70 -28l94 -130q26 -36 26 -70v-300q0 -41 -29.5 -70.5t-70.5 -29.5h-100
q-41 0 -70.5 29.5t-29.5 70.5v300q0 41 29.5 70.5t70.5 29.5h18l35 -10z" />
    <glyph glyph-name="ntilde" unicode="&#xf1;" horiz-adv-x="404" 
d="M53 500h90v-40q7 14 25 27t33 13h52q41 0 70.5 -29.5t29.5 -70.5v-400h-100v385q0 10 -7.5 17.5t-17.5 7.5h-50q-10 0 -17.5 -7.5t-7.5 -17.5v-385h-100v500zM197 585q-28 14 -34 14q-14 0 -44 -41l-64 38q29 49 53 68t54 19q21 0 45 -12l12 -6q28 -14 34 -14q14 0 44 41
l64 -38q-29 -49 -53 -68t-54 -19q-21 0 -45 12z" />
    <glyph glyph-name="ograve" unicode="&#xf2;" horiz-adv-x="396" 
d="M348 399v-300q0 -41 -29.5 -70.5t-70.5 -29.5h-100q-41 0 -70.5 29.5t-29.5 70.5v300q0 41 29.5 70.5t70.5 29.5h100q41 0 70.5 -29.5t29.5 -70.5zM248 384q0 10 -7.5 17.5t-17.5 7.5h-50q-10 0 -17.5 -7.5t-7.5 -17.5v-270q0 -10 7.5 -17.5t17.5 -7.5h50q10 0 17.5 7.5
t7.5 17.5v270zM168 700l80 -142h-83l-97 142h100z" />
    <glyph glyph-name="oacute" unicode="&#xf3;" horiz-adv-x="396" 
d="M348 399v-300q0 -41 -29.5 -70.5t-70.5 -29.5h-100q-41 0 -70.5 29.5t-29.5 70.5v300q0 41 29.5 70.5t70.5 29.5h100q41 0 70.5 -29.5t29.5 -70.5zM248 384q0 10 -7.5 17.5t-17.5 7.5h-50q-10 0 -17.5 -7.5t-7.5 -17.5v-270q0 -10 7.5 -17.5t17.5 -7.5h50q10 0 17.5 7.5
t7.5 17.5v270zM228 700h100l-97 -142h-83z" />
    <glyph glyph-name="ocircumflex" unicode="&#xf4;" horiz-adv-x="396" 
d="M348 399v-300q0 -41 -29.5 -70.5t-70.5 -29.5h-100q-41 0 -70.5 29.5t-29.5 70.5v300q0 41 29.5 70.5t70.5 29.5h100q41 0 70.5 -29.5t29.5 -70.5zM248 384q0 10 -7.5 17.5t-17.5 7.5h-50q-10 0 -17.5 -7.5t-7.5 -17.5v-270q0 -10 7.5 -17.5t17.5 -7.5h50q10 0 17.5 7.5
t7.5 17.5v270zM338 558h-90l-50 81l-50 -81h-90l103 142h74z" />
    <glyph glyph-name="otilde" unicode="&#xf5;" horiz-adv-x="396" 
d="M348 399v-300q0 -41 -29.5 -70.5t-70.5 -29.5h-100q-41 0 -70.5 29.5t-29.5 70.5v300q0 41 29.5 70.5t70.5 29.5h100q41 0 70.5 -29.5t29.5 -70.5zM248 384q0 10 -7.5 17.5t-17.5 7.5h-50q-10 0 -17.5 -7.5t-7.5 -17.5v-270q0 -10 7.5 -17.5t17.5 -7.5h50q10 0 17.5 7.5
t7.5 17.5v270zM187 585q-28 14 -34 14q-14 0 -44 -41l-64 38q29 49 53 68t54 19q21 0 45 -12l12 -6q28 -14 34 -14q14 0 44 41l64 -38q-29 -49 -53 -68t-54 -19q-21 0 -45 12z" />
    <glyph glyph-name="odieresis" unicode="&#xf6;" horiz-adv-x="396" 
d="M348 399v-300q0 -41 -29.5 -70.5t-70.5 -29.5h-100q-41 0 -70.5 29.5t-29.5 70.5v300q0 41 29.5 70.5t70.5 29.5h100q41 0 70.5 -29.5t29.5 -70.5zM248 384q0 10 -7.5 17.5t-17.5 7.5h-50q-10 0 -17.5 -7.5t-7.5 -17.5v-270q0 -10 7.5 -17.5t17.5 -7.5h50q10 0 17.5 7.5
t7.5 17.5v270zM323 600h-100v100h100v-100zM173 600h-100v100h100v-100z" />
    <glyph glyph-name="divide" unicode="&#xf7;" 
d="M250 400h-100v100h100v-100zM40 272v82h320v-82h-320zM250 125h-100v100h100v-100z" />
    <glyph glyph-name="oslash" unicode="&#xf8;" horiz-adv-x="396" 
d="M134 154q7 16 18 42t35 81t40 91l16 36q-6 6 -15 6h-60q-10 0 -17.5 -7.5t-7.5 -17.5v-135q0 -35 -9 -96zM76 31q-28 30 -28 69v300q0 41 29.5 70.5t70.5 29.5h100q18 0 35 -6l25 56h45q-16 -36 -35 -79q30 -28 30 -71v-300q0 -41 -29.5 -70.5t-70.5 -29.5h-100
q-18 0 -35 6l-7 -14l-12 -28l-6 -14h-48zM262 346q-7 -16 -18 -42t-35 -81t-40 -91l-16 -36q6 -6 15 -6h60q10 0 17.5 7.5t7.5 17.5v135q0 35 9 96z" />
    <glyph glyph-name="ugrave" unicode="&#xf9;" horiz-adv-x="404" 
d="M351 0h-90v41q-7 -14 -25.5 -27.5t-32.5 -13.5h-52q-41 0 -70.5 29.5t-29.5 70.5v400h100v-385q0 -10 7.5 -17.5t17.5 -7.5h50q10 0 17.5 7.5t7.5 17.5v385h100v-500zM181 700l80 -142h-83l-97 142h100z" />
    <glyph glyph-name="uacute" unicode="&#xfa;" horiz-adv-x="404" 
d="M351 0h-90v41q-7 -14 -25.5 -27.5t-32.5 -13.5h-52q-41 0 -70.5 29.5t-29.5 70.5v400h100v-385q0 -10 7.5 -17.5t17.5 -7.5h50q10 0 17.5 7.5t7.5 17.5v385h100v-500zM226 700h100l-97 -142h-83z" />
    <glyph glyph-name="ucircumflex" unicode="&#xfb;" horiz-adv-x="404" 
d="M351 0h-90v41q-7 -14 -25.5 -27.5t-32.5 -13.5h-52q-41 0 -70.5 29.5t-29.5 70.5v400h100v-385q0 -10 7.5 -17.5t17.5 -7.5h50q10 0 17.5 7.5t7.5 17.5v385h100v-500zM341 558h-90l-50 81l-50 -81h-90l103 142h74z" />
    <glyph glyph-name="udieresis" unicode="&#xfc;" horiz-adv-x="404" 
d="M351 0h-90v41q-7 -14 -25.5 -27.5t-32.5 -13.5h-52q-41 0 -70.5 29.5t-29.5 70.5v400h100v-385q0 -10 7.5 -17.5t17.5 -7.5h50q10 0 17.5 7.5t7.5 17.5v385h100v-500zM326 600h-100v100h100v-100zM176 600h-100v100h100v-100z" />
    <glyph glyph-name="yacute" unicode="&#xfd;" horiz-adv-x="404" 
d="M351 -100q0 -41 -29.5 -70.5t-70.5 -29.5h-100q-41 0 -70.5 29.5t-29.5 70.5v50h100v-35q0 -10 7.5 -17.5t17.5 -7.5h50q10 0 17.5 7.5t7.5 17.5v85v41q-7 -14 -25.5 -27.5t-32.5 -13.5h-42q-41 0 -70.5 29.5t-29.5 70.5v400h100v-385q0 -10 7.5 -17.5t17.5 -7.5h50
q10 0 17.5 7.5t7.5 17.5v385h100v-500v-100zM234 700h100l-97 -142h-83z" />
    <glyph glyph-name="thorn" unicode="&#xfe;" horiz-adv-x="401" 
d="M53 -200v900h100v-240q4 17 20 28.5t30 11.5h50q41 0 70.5 -29.5t29.5 -70.5v-300q0 -41 -29.5 -70.5t-70.5 -29.5h-50q-14 0 -30 11.5t-20 28.5v-240h-100zM253 385q0 10 -7.5 17.5t-17.5 7.5h-50q-10 0 -17.5 -7.5t-7.5 -17.5v-270q0 -10 7.5 -17.5t17.5 -7.5h50
q10 0 17.5 7.5t7.5 17.5v270z" />
    <glyph glyph-name="ydieresis" unicode="&#xff;" horiz-adv-x="404" 
d="M351 -100q0 -41 -29.5 -70.5t-70.5 -29.5h-100q-41 0 -70.5 29.5t-29.5 70.5v50h100v-35q0 -10 7.5 -17.5t17.5 -7.5h50q10 0 17.5 7.5t7.5 17.5v85v41q-7 -14 -25.5 -27.5t-32.5 -13.5h-42q-41 0 -70.5 29.5t-29.5 70.5v400h100v-385q0 -10 7.5 -17.5t17.5 -7.5h50
q10 0 17.5 7.5t7.5 17.5v385h100v-500v-100zM327 600h-100v100h100v-100zM177 600h-100v100h100v-100z" />
    <glyph glyph-name="Amacron" unicode="&#x100;" horiz-adv-x="438" 
d="M374 0h-100v315h-110v-315h-100v600q0 41 29.5 70.5t70.5 29.5h110q41 0 70.5 -29.5t29.5 -70.5v-600zM274 405v180q0 10 -7.5 17.5t-17.5 7.5h-60q-10 0 -17.5 -7.5t-7.5 -17.5v-180h110zM95 738v82h248v-82h-248z" />
    <glyph glyph-name="amacron" unicode="&#x101;" horiz-adv-x="397" 
d="M198 0h-52q-41 0 -70.5 29.5t-29.5 70.5v90q0 41 29.5 70.5t70.5 29.5h100v95q0 10 -7.5 17.5t-17.5 7.5h-50q-10 0 -17.5 -7.5t-7.5 -17.5v-35h-100v50q0 41 29.5 70.5t70.5 29.5h100q41 0 70.5 -29.5t29.5 -70.5v-400h-90v41q-7 -14 -25.5 -27.5t-32.5 -13.5zM146 115
q0 -10 7.5 -17.5t17.5 -7.5h50q10 0 17.5 7.5t7.5 17.5v95h-75q-10 0 -17.5 -7.5t-7.5 -17.5v-70zM74 599v82h248v-82h-248z" />
    <glyph glyph-name="Abreve" unicode="&#x102;" horiz-adv-x="438" 
d="M374 0h-100v315h-110v-315h-100v600q0 41 29.5 70.5t70.5 29.5h110q41 0 70.5 -29.5t29.5 -70.5v-600zM274 405v180q0 10 -7.5 17.5t-17.5 7.5h-60q-10 0 -17.5 -7.5t-7.5 -17.5v-180h110zM189 738q-41 0 -70.5 29.5t-29.5 70.5v42h80v-47q0 -10 7.5 -17.5t17.5 -7.5h50
q10 0 17.5 7.5t7.5 17.5v47h80v-42q0 -41 -29.5 -70.5t-70.5 -29.5h-60z" />
    <glyph glyph-name="abreve" unicode="&#x103;" horiz-adv-x="397" 
d="M198 0h-52q-41 0 -70.5 29.5t-29.5 70.5v90q0 41 29.5 70.5t70.5 29.5h100v95q0 10 -7.5 17.5t-17.5 7.5h-50q-10 0 -17.5 -7.5t-7.5 -17.5v-35h-100v50q0 41 29.5 70.5t70.5 29.5h100q41 0 70.5 -29.5t29.5 -70.5v-400h-90v41q-7 -14 -25.5 -27.5t-32.5 -13.5zM146 115
q0 -10 7.5 -17.5t17.5 -7.5h50q10 0 17.5 7.5t7.5 17.5v95h-75q-10 0 -17.5 -7.5t-7.5 -17.5v-70zM169 558q-41 0 -70.5 29.5t-29.5 70.5v42h80v-47q0 -10 7.5 -17.5t17.5 -7.5h50q10 0 17.5 7.5t7.5 17.5v47h80v-42q0 -41 -29.5 -70.5t-70.5 -29.5h-60z" />
    <glyph glyph-name="Aogonek" unicode="&#x104;" horiz-adv-x="438" 
d="M374 0h-34l58 -100l-77 -45l-70 121l40 24h-17v315h-110v-315h-100v600q0 41 29.5 70.5t70.5 29.5h110q41 0 70.5 -29.5t29.5 -70.5v-600zM274 405v180q0 10 -7.5 17.5t-17.5 7.5h-60q-10 0 -17.5 -7.5t-7.5 -17.5v-180h110z" />
    <glyph glyph-name="aogonek" unicode="&#x105;" horiz-adv-x="397" 
d="M198 0h-52q-41 0 -70.5 29.5t-29.5 70.5v90q0 41 29.5 70.5t70.5 29.5h100v95q0 10 -7.5 17.5t-17.5 7.5h-50q-10 0 -17.5 -7.5t-7.5 -17.5v-35h-100v50q0 41 29.5 70.5t70.5 29.5h100q41 0 70.5 -29.5t29.5 -70.5v-400h-26l58 -100l-77 -45l-70 121l40 24h-15v41
q-7 -14 -25.5 -27.5t-32.5 -13.5zM146 115q0 -10 7.5 -17.5t17.5 -7.5h50q10 0 17.5 7.5t7.5 17.5v95h-75q-10 0 -17.5 -7.5t-7.5 -17.5v-70z" />
    <glyph glyph-name="Cacute" unicode="&#x106;" 
d="M367 200v-100q0 -41 -29.5 -70.5t-70.5 -29.5h-110q-41 0 -70.5 29.5t-29.5 70.5v500q0 41 29.5 70.5t70.5 29.5h110q41 0 70.5 -29.5t29.5 -70.5v-100h-100v85q0 10 -7.5 17.5t-17.5 7.5h-60q-10 0 -17.5 -7.5t-7.5 -17.5v-470q0 -10 7.5 -17.5t17.5 -7.5h60
q10 0 17.5 7.5t7.5 17.5v85h100zM250 880h100l-97 -142h-83z" />
    <glyph glyph-name="cacute" unicode="&#x107;" horiz-adv-x="379" 
d="M348 150v-50q0 -41 -29.5 -70.5t-70.5 -29.5h-100q-41 0 -70.5 29.5t-29.5 70.5v300q0 41 29.5 70.5t70.5 29.5h100q41 0 70.5 -29.5t29.5 -70.5v-50h-100v35q0 10 -7.5 17.5t-17.5 7.5h-50q-10 0 -17.5 -7.5t-7.5 -17.5v-270q0 -10 7.5 -17.5t17.5 -7.5h50
q10 0 17.5 7.5t7.5 17.5v35h100zM237 700h100l-97 -142h-83z" />
    <glyph glyph-name="Ccaron" unicode="&#x10c;" 
d="M367 200v-100q0 -41 -29.5 -70.5t-70.5 -29.5h-110q-41 0 -70.5 29.5t-29.5 70.5v500q0 41 29.5 70.5t70.5 29.5h110q41 0 70.5 -29.5t29.5 -70.5v-100h-100v85q0 10 -7.5 17.5t-17.5 7.5h-60q-10 0 -17.5 -7.5t-7.5 -17.5v-470q0 -10 7.5 -17.5t17.5 -7.5h60
q10 0 17.5 7.5t7.5 17.5v85h100zM352 880l-103 -142h-74l-103 142h90l50 -81l50 81h90z" />
    <glyph glyph-name="ccaron" unicode="&#x10d;" horiz-adv-x="379" 
d="M348 150v-50q0 -41 -29.5 -70.5t-70.5 -29.5h-100q-41 0 -70.5 29.5t-29.5 70.5v300q0 41 29.5 70.5t70.5 29.5h100q41 0 70.5 -29.5t29.5 -70.5v-50h-100v35q0 10 -7.5 17.5t-17.5 7.5h-50q-10 0 -17.5 -7.5t-7.5 -17.5v-270q0 -10 7.5 -17.5t17.5 -7.5h50
q10 0 17.5 7.5t7.5 17.5v35h100zM337 700l-103 -142h-74l-103 142h90l50 -81l50 81h90z" />
    <glyph glyph-name="Dcaron" unicode="&#x10e;" horiz-adv-x="435" 
d="M378 600v-500q0 -41 -29.5 -70.5t-70.5 -29.5h-210v700h210q41 0 70.5 -29.5t29.5 -70.5zM278 115v470q0 10 -7.5 17.5t-17.5 7.5h-85v-520h85q10 0 17.5 7.5t7.5 17.5zM357 880l-103 -142h-74l-103 142h90l50 -81l50 81h90z" />
    <glyph glyph-name="dcaron" unicode="&#x10f;" horiz-adv-x="459" 
d="M348 0h-90v41q-4 -17 -20 -29t-30 -12h-60q-41 0 -70.5 29.5t-29.5 70.5v300q0 41 29.5 70.5t70.5 29.5h50q14 0 30 -11.5t20 -28.5v240h100v-700zM148 385v-270q0 -10 7.5 -17.5t17.5 -7.5h50q10 0 17.5 7.5t7.5 17.5v270q0 10 -7.5 17.5t-17.5 7.5h-50
q-10 0 -17.5 -7.5t-7.5 -17.5zM493 700v-173l-90 -53v226h90z" />
    <glyph glyph-name="Dcroat" unicode="&#x110;" horiz-adv-x="442" 
d="M175 393h56v-83h-56v-220h85q10 0 17.5 7.5t7.5 17.5v470q0 10 -7.5 17.5t-17.5 7.5h-85v-217zM75 310h-52v83h52v307h210q41 0 70.5 -29.5t29.5 -70.5v-500q0 -41 -29.5 -70.5t-70.5 -29.5h-210v310z" />
    <glyph glyph-name="dcroat" unicode="&#x111;" horiz-adv-x="399" 
d="M138 568v82h110v50h100v-50h68v-82h-68v-568h-90v41q-4 -17 -20 -29t-30 -12h-60q-41 0 -70.5 29.5t-29.5 70.5v300q0 41 29.5 70.5t70.5 29.5h50q14 0 30 -11.5t20 -28.5v108h-110zM148 385v-270q0 -10 7.5 -17.5t17.5 -7.5h50q10 0 17.5 7.5t7.5 17.5v270
q0 10 -7.5 17.5t-17.5 7.5h-50q-10 0 -17.5 -7.5t-7.5 -17.5z" />
    <glyph glyph-name="Emacron" unicode="&#x112;" horiz-adv-x="350" 
d="M68 700h250v-90h-150v-205h122v-90h-122v-225h150v-90h-250v700zM68 738v82h248v-82h-248z" />
    <glyph glyph-name="emacron" unicode="&#x113;" horiz-adv-x="396" 
d="M148 210v-95q0 -10 7.5 -17.5t17.5 -7.5h50q10 0 17.5 7.5t7.5 17.5v35h100v-50q0 -41 -29.5 -70.5t-70.5 -29.5h-100q-41 0 -70.5 29.5t-29.5 70.5v300q0 41 29.5 70.5t70.5 29.5h100q41 0 70.5 -29.5t29.5 -70.5v-190h-200zM148 290h100v95q0 10 -7.5 17.5t-17.5 7.5
h-50q-10 0 -17.5 -7.5t-7.5 -17.5v-95zM74 599v82h248v-82h-248z" />
    <glyph glyph-name="Edotaccent" unicode="&#x116;" horiz-adv-x="350" 
d="M68 700h250v-90h-150v-205h122v-90h-122v-225h150v-90h-250v700zM243 738h-100v100h100v-100z" />
    <glyph glyph-name="edotaccent" unicode="&#x117;" horiz-adv-x="396" 
d="M148 210v-95q0 -10 7.5 -17.5t17.5 -7.5h50q10 0 17.5 7.5t7.5 17.5v35h100v-50q0 -41 -29.5 -70.5t-70.5 -29.5h-100q-41 0 -70.5 29.5t-29.5 70.5v300q0 41 29.5 70.5t70.5 29.5h100q41 0 70.5 -29.5t29.5 -70.5v-190h-200zM148 290h100v95q0 10 -7.5 17.5t-17.5 7.5
h-50q-10 0 -17.5 -7.5t-7.5 -17.5v-95zM248 600h-100v100h100v-100z" />
    <glyph glyph-name="Eogonek" unicode="&#x118;" horiz-adv-x="350" 
d="M68 700h250v-90h-150v-205h122v-90h-122v-225h150v-90h-21l58 -100l-77 -45l-70 121l40 24h-180v700z" />
    <glyph glyph-name="eogonek" unicode="&#x119;" horiz-adv-x="396" 
d="M148 210v-95q0 -10 7.5 -17.5t17.5 -7.5h50q10 0 17.5 7.5t7.5 17.5v35h100v-50q0 -34 -20.5 -60.5t-52.5 -35.5l60 -104l-77 -45l-70 121l40 24h-80q-41 0 -70.5 29.5t-29.5 70.5v300q0 41 29.5 70.5t70.5 29.5h100q41 0 70.5 -29.5t29.5 -70.5v-190h-200zM148 290h100
v95q0 10 -7.5 17.5t-17.5 7.5h-50q-10 0 -17.5 -7.5t-7.5 -17.5v-95z" />
    <glyph glyph-name="Ecaron" unicode="&#x11a;" horiz-adv-x="350" 
d="M68 700h250v-90h-150v-205h122v-90h-122v-225h150v-90h-250v700zM333 880l-103 -142h-74l-103 142h90l50 -81l50 81h90z" />
    <glyph glyph-name="ecaron" unicode="&#x11b;" horiz-adv-x="396" 
d="M148 210v-95q0 -10 7.5 -17.5t17.5 -7.5h50q10 0 17.5 7.5t7.5 17.5v35h100v-50q0 -41 -29.5 -70.5t-70.5 -29.5h-100q-41 0 -70.5 29.5t-29.5 70.5v300q0 41 29.5 70.5t70.5 29.5h100q41 0 70.5 -29.5t29.5 -70.5v-190h-200zM148 290h100v95q0 10 -7.5 17.5t-17.5 7.5
h-50q-10 0 -17.5 -7.5t-7.5 -17.5v-95zM338 700l-103 -142h-74l-103 142h90l50 -81l50 81h90z" />
    <glyph glyph-name="Gbreve" unicode="&#x11e;" horiz-adv-x="422" 
d="M267 310h-60v90h160v-300q0 -41 -29.5 -70.5t-70.5 -29.5h-110q-41 0 -70.5 29.5t-29.5 70.5v500q0 41 29.5 70.5t70.5 29.5h110q41 0 70.5 -29.5t29.5 -70.5v-100h-100v85q0 10 -7.5 17.5t-17.5 7.5h-60q-10 0 -17.5 -7.5t-7.5 -17.5v-470q0 -10 7.5 -17.5t17.5 -7.5h60
q10 0 17.5 7.5t7.5 17.5v195zM182 738q-41 0 -70.5 29.5t-29.5 70.5v42h80v-47q0 -10 7.5 -17.5t17.5 -7.5h50q10 0 17.5 7.5t7.5 17.5v47h80v-42q0 -41 -29.5 -70.5t-70.5 -29.5h-60z" />
    <glyph glyph-name="gbreve" unicode="&#x11f;" horiz-adv-x="392" 
d="M251 385q0 10 -7.5 17.5t-17.5 7.5h-60q-10 0 -17.5 -7.5t-7.5 -17.5v-126q0 -10 7.5 -17.5t17.5 -7.5h60q10 0 17.5 7.5t7.5 17.5v126zM166 558q-41 0 -70.5 29.5t-29.5 70.5v42h80v-47q0 -10 7.5 -17.5t17.5 -7.5h50q10 0 17.5 7.5t7.5 17.5v47h80v-42
q0 -41 -29.5 -70.5t-70.5 -29.5h-60zM46 244v156q0 41 29.5 70.5t70.5 29.5h100q41 0 70.5 -29.5t29.5 -70.5v-156q0 -41 -29.5 -70.5t-70.5 -29.5h-89q-16 -4 -16 -27q0 -27 25 -27h90q41 0 70.5 -29.5t29.5 -70.5v-90q0 -41 -29.5 -70.5t-70.5 -29.5h-110
q-41 0 -70.5 29.5t-29.5 70.5v50h100v-35q0 -10 7.5 -17.5t17.5 -7.5h60q10 0 17.5 7.5t7.5 17.5v60q0 10 -7.5 17.5t-17.5 7.5h-121q-27 0 -45.5 18.5t-18.5 45.5v28q0 24 15.5 41.5t38.5 21.5q-54 29 -54 89z" />
    <glyph glyph-name="Gcommaaccent" unicode="&#x122;" horiz-adv-x="422" 
d="M267 310h-60v90h160v-300q0 -41 -29.5 -70.5t-70.5 -29.5h-110q-41 0 -70.5 29.5t-29.5 70.5v500q0 41 29.5 70.5t70.5 29.5h110q41 0 70.5 -29.5t29.5 -70.5v-100h-100v85q0 10 -7.5 17.5t-17.5 7.5h-60q-10 0 -17.5 -7.5t-7.5 -17.5v-470q0 -10 7.5 -17.5t17.5 -7.5h60
q10 0 17.5 7.5t7.5 17.5v195zM258 -38v-173l-90 -53v226h90z" />
    <glyph glyph-name="gcommaaccent" unicode="&#x123;" horiz-adv-x="392" 
d="M251 385q0 10 -7.5 17.5t-17.5 7.5h-60q-10 0 -17.5 -7.5t-7.5 -17.5v-126q0 -10 7.5 -17.5t17.5 -7.5h60q10 0 17.5 7.5t7.5 17.5v126zM46 244v156q0 41 29.5 70.5t70.5 29.5h100q41 0 70.5 -29.5t29.5 -70.5v-156q0 -41 -29.5 -70.5t-70.5 -29.5h-89q-16 -4 -16 -27
q0 -27 25 -27h90q41 0 70.5 -29.5t29.5 -70.5v-90q0 -41 -29.5 -70.5t-70.5 -29.5h-110q-41 0 -70.5 29.5t-29.5 70.5v50h100v-35q0 -10 7.5 -17.5t17.5 -7.5h60q10 0 17.5 7.5t7.5 17.5v60q0 10 -7.5 17.5t-17.5 7.5h-121q-27 0 -45.5 18.5t-18.5 45.5v28q0 24 15.5 41.5
t38.5 21.5q-54 29 -54 89zM151 558v173l90 53v-226h-90z" />
    <glyph glyph-name="Imacron" unicode="&#x12a;" horiz-adv-x="236" 
d="M168 0h-100v700h100v-700zM-6 738v82h248v-82h-248z" />
    <glyph glyph-name="imacron" unicode="&#x12b;" horiz-adv-x="206" 
d="M153 0h-100v500h100v-500zM-21 599v82h248v-82h-248z" />
    <glyph glyph-name="Iogonek" unicode="&#x12e;" horiz-adv-x="236" 
d="M168 0h-31l58 -100l-77 -45l-70 121l40 24h-20v700h100v-700z" />
    <glyph glyph-name="iogonek" unicode="&#x12f;" horiz-adv-x="206" 
d="M153 0h-26l58 -100l-77 -45l-70 121l40 24h-25v500h100v-500zM153 600h-100v100h100v-100z" />
    <glyph glyph-name="Idotaccent" unicode="&#x130;" horiz-adv-x="236" 
d="M168 0h-100v700h100v-700zM168 738h-100v100h100v-100z" />
    <glyph glyph-name="dotlessi" unicode="&#x131;" horiz-adv-x="206" 
d="M153 0h-100v500h100v-500z" />
    <glyph glyph-name="Kcommaaccent" unicode="&#x136;" horiz-adv-x="435" 
d="M273 389v-5q45 0 76.5 -29t31.5 -74v-281h-100v265q0 19 -15.5 34.5t-34.5 15.5h-62v-315h-100v700h100v-320h4l148 320h109zM269 -38v-173l-90 -53v226h90z" />
    <glyph glyph-name="kcommaaccent" unicode="&#x137;" horiz-adv-x="402" 
d="M245 289v-5q45 0 76.5 -29t31.5 -74v-181h-100v165q0 19 -15.5 34.5t-34.5 15.5h-50v-215h-100v700h100v-400h4l145 218l80 -47zM248 -38v-173l-90 -53v226h90z" />
    <glyph glyph-name="Lacute" unicode="&#x139;" horiz-adv-x="323" 
d="M168 90h150v-90h-250v700h100v-610zM148 880h100l-97 -142h-83z" />
    <glyph glyph-name="lacute" unicode="&#x13a;" horiz-adv-x="229" 
d="M223 90v-90h-70q-41 0 -70.5 29.5t-29.5 70.5v600h100v-585q0 -10 7.5 -17.5t17.5 -7.5h45zM133 880h100l-97 -142h-83z" />
    <glyph glyph-name="Lcommaaccent" unicode="&#x13b;" horiz-adv-x="323" 
d="M168 90h150v-90h-250v700h100v-610zM239 -38v-173l-90 -53v226h90z" />
    <glyph glyph-name="lcommaaccent" unicode="&#x13c;" horiz-adv-x="229" 
d="M223 90v-90h-70q-41 0 -70.5 29.5t-29.5 70.5v600h100v-585q0 -10 7.5 -17.5t17.5 -7.5h45zM183 -38v-173l-90 -53v226h90z" />
    <glyph glyph-name="Lcaron" unicode="&#x13d;" horiz-adv-x="333" 
d="M168 90h150v-90h-250v700h100v-610zM313 700v-173l-90 -53v226h90z" />
    <glyph glyph-name="lcaron" unicode="&#x13e;" horiz-adv-x="259" 
d="M223 90v-90h-70q-41 0 -70.5 29.5t-29.5 70.5v600h100v-585q0 -10 7.5 -17.5t17.5 -7.5h45zM294 700v-173l-90 -53v226h90z" />
    <glyph glyph-name="Lslash" unicode="&#x141;" horiz-adv-x="335" 
d="M175 349v-259h150v-90h-250v309l-70 -28v89l70 28v302h100v-262l80 32v-89z" />
    <glyph glyph-name="lslash" unicode="&#x142;" horiz-adv-x="262" 
d="M176 353v-238q0 -10 7.5 -17.5t17.5 -7.5h45v-90h-70q-41 0 -70.5 29.5t-29.5 70.5v205l-70 -34v89l70 34v306h100v-258l70 34v-89z" />
    <glyph glyph-name="Nacute" unicode="&#x143;" horiz-adv-x="442" 
d="M68 700h90v-40q7 14 25 27t33 13h62q41 0 70.5 -29.5t29.5 -70.5v-600h-100v585q0 10 -7.5 17.5t-17.5 7.5h-60q-10 0 -17.5 -7.5t-7.5 -17.5v-585h-100v700zM276 880h100l-97 -142h-83z" />
    <glyph glyph-name="nacute" unicode="&#x144;" horiz-adv-x="404" 
d="M53 500h90v-40q7 14 25 27t33 13h52q41 0 70.5 -29.5t29.5 -70.5v-400h-100v385q0 10 -7.5 17.5t-17.5 7.5h-50q-10 0 -17.5 -7.5t-7.5 -17.5v-385h-100v500zM237 700h100l-97 -142h-83z" />
    <glyph glyph-name="Ncommaaccent" unicode="&#x145;" horiz-adv-x="442" 
d="M68 700h90v-40q7 14 25 27t33 13h62q41 0 70.5 -29.5t29.5 -70.5v-600h-100v585q0 10 -7.5 17.5t-17.5 7.5h-60q-10 0 -17.5 -7.5t-7.5 -17.5v-585h-100v700zM268 -38v-173l-90 -53v226h90z" />
    <glyph glyph-name="ncommaaccent" unicode="&#x146;" horiz-adv-x="404" 
d="M53 500h90v-40q7 14 25 27t33 13h52q41 0 70.5 -29.5t29.5 -70.5v-400h-100v385q0 10 -7.5 17.5t-17.5 7.5h-50q-10 0 -17.5 -7.5t-7.5 -17.5v-385h-100v500zM248 -38v-173l-90 -53v226h90z" />
    <glyph glyph-name="Ncaron" unicode="&#x147;" horiz-adv-x="442" 
d="M68 700h90v-40q7 14 25 27t33 13h62q41 0 70.5 -29.5t29.5 -70.5v-600h-100v585q0 10 -7.5 17.5t-17.5 7.5h-60q-10 0 -17.5 -7.5t-7.5 -17.5v-585h-100v700zM376 880l-103 -142h-74l-103 142h90l50 -81l50 81h90z" />
    <glyph glyph-name="ncaron" unicode="&#x148;" horiz-adv-x="404" 
d="M53 500h90v-40q7 14 25 27t33 13h52q41 0 70.5 -29.5t29.5 -70.5v-400h-100v385q0 10 -7.5 17.5t-17.5 7.5h-50q-10 0 -17.5 -7.5t-7.5 -17.5v-385h-100v500zM352 700l-103 -142h-74l-103 142h90l50 -81l50 81h90z" />
    <glyph glyph-name="Omacron" unicode="&#x14c;" horiz-adv-x="424" 
d="M367 600v-500q0 -41 -29.5 -70.5t-70.5 -29.5h-110q-41 0 -70.5 29.5t-29.5 70.5v500q0 41 29.5 70.5t70.5 29.5h110q41 0 70.5 -29.5t29.5 -70.5zM267 585q0 10 -7.5 17.5t-17.5 7.5h-60q-10 0 -17.5 -7.5t-7.5 -17.5v-470q0 -10 7.5 -17.5t17.5 -7.5h60q10 0 17.5 7.5
t7.5 17.5v470zM88 738v82h248v-82h-248z" />
    <glyph glyph-name="omacron" unicode="&#x14d;" horiz-adv-x="396" 
d="M348 399v-300q0 -41 -29.5 -70.5t-70.5 -29.5h-100q-41 0 -70.5 29.5t-29.5 70.5v300q0 41 29.5 70.5t70.5 29.5h100q41 0 70.5 -29.5t29.5 -70.5zM248 384q0 10 -7.5 17.5t-17.5 7.5h-50q-10 0 -17.5 -7.5t-7.5 -17.5v-270q0 -10 7.5 -17.5t17.5 -7.5h50q10 0 17.5 7.5
t7.5 17.5v270zM74 599v82h248v-82h-248z" />
    <glyph glyph-name="Ohungarumlaut" unicode="&#x150;" horiz-adv-x="424" 
d="M367 600v-500q0 -41 -29.5 -70.5t-70.5 -29.5h-110q-41 0 -70.5 29.5t-29.5 70.5v500q0 41 29.5 70.5t70.5 29.5h110q41 0 70.5 -29.5t29.5 -70.5zM267 585q0 10 -7.5 17.5t-17.5 7.5h-60q-10 0 -17.5 -7.5t-7.5 -17.5v-470q0 -10 7.5 -17.5t17.5 -7.5h60q10 0 17.5 7.5
t7.5 17.5v470zM317 880h80l-97 -142h-63zM205 880h80l-97 -142h-63z" />
    <glyph glyph-name="ohungarumlaut" unicode="&#x151;" horiz-adv-x="396" 
d="M348 399v-300q0 -41 -29.5 -70.5t-70.5 -29.5h-100q-41 0 -70.5 29.5t-29.5 70.5v300q0 41 29.5 70.5t70.5 29.5h100q41 0 70.5 -29.5t29.5 -70.5zM248 384q0 10 -7.5 17.5t-17.5 7.5h-50q-10 0 -17.5 -7.5t-7.5 -17.5v-270q0 -10 7.5 -17.5t17.5 -7.5h50q10 0 17.5 7.5
t7.5 17.5v270zM304 700h80l-97 -142h-63zM192 700h80l-97 -142h-63z" />
    <glyph glyph-name="OE" unicode="&#x152;" horiz-adv-x="548" 
d="M267 0h-110q-41 0 -70.5 29.5t-29.5 70.5v500q0 41 29.5 70.5t70.5 29.5h110h249v-90h-150v-205h122v-90h-122v-225h150v-90h-249zM267 585q0 10 -7.5 17.5t-17.5 7.5h-60q-10 0 -17.5 -7.5t-7.5 -17.5v-470q0 -10 7.5 -17.5t17.5 -7.5h60q10 0 17.5 7.5t7.5 17.5v470z
" />
    <glyph glyph-name="oe" unicode="&#x153;" horiz-adv-x="596" 
d="M298 18q-30 -18 -50 -18h-100q-41 0 -70.5 29.5t-29.5 70.5v300q0 41 29.5 70.5t70.5 29.5h100q20 0 50 -18q30 18 50 18h100q41 0 70.5 -29.5t29.5 -70.5v-190h-200v-95q0 -10 7.5 -17.5t17.5 -7.5h50q10 0 17.5 7.5t7.5 17.5v35h100v-50q0 -41 -29.5 -70.5t-70.5 -29.5
h-100q-20 0 -50 18zM348 290h100v95q0 10 -7.5 17.5t-17.5 7.5h-50q-10 0 -17.5 -7.5t-7.5 -17.5v-95zM248 385q0 10 -7.5 17.5t-17.5 7.5h-50q-10 0 -17.5 -7.5t-7.5 -17.5v-270q0 -10 7.5 -17.5t17.5 -7.5h50q10 0 17.5 7.5t7.5 17.5v270z" />
    <glyph glyph-name="Racute" unicode="&#x154;" horiz-adv-x="440" 
d="M288 265q0 19 -15 34.5t-35 15.5h-70v-315h-100v700h210q41 0 70.5 -29.5t29.5 -70.5v-139q0 -36 -21.5 -63t-54.5 -32v-5q34 -2 60 -30t26 -68v-263h-100v265zM253 405q10 0 17.5 7.5t7.5 17.5v155q0 10 -7.5 17.5t-17.5 7.5h-85v-205h85zM236 880h100l-97 -142h-83z
" />
    <glyph glyph-name="racute" unicode="&#x155;" horiz-adv-x="280" 
d="M269 399h-66q-20 0 -36 -15.5t-14 -34.5v-349h-100v500l90 -1v-68q12 20 21 32t25.5 24t35.5 12h44v-100zM190 700h100l-97 -142h-83z" />
    <glyph glyph-name="Rcommaaccent" unicode="&#x156;" horiz-adv-x="440" 
d="M288 265q0 19 -15 34.5t-35 15.5h-70v-315h-100v700h210q41 0 70.5 -29.5t29.5 -70.5v-139q0 -36 -21.5 -63t-54.5 -32v-5q34 -2 60 -30t26 -68v-263h-100v265zM253 405q10 0 17.5 7.5t7.5 17.5v155q0 10 -7.5 17.5t-17.5 7.5h-85v-205h85zM275 -38v-173l-90 -53v226h90z
" />
    <glyph glyph-name="rcommaaccent" unicode="&#x157;" horiz-adv-x="280" 
d="M269 399h-66q-20 0 -36 -15.5t-14 -34.5v-349h-100v500l90 -1v-68q12 20 21 32t25.5 24t35.5 12h44v-100zM148 -38v-173l-90 -53v226h90z" />
    <glyph glyph-name="Rcaron" unicode="&#x158;" horiz-adv-x="440" 
d="M288 265q0 19 -15 34.5t-35 15.5h-70v-315h-100v700h210q41 0 70.5 -29.5t29.5 -70.5v-139q0 -36 -21.5 -63t-54.5 -32v-5q34 -2 60 -30t26 -68v-263h-100v265zM253 405q10 0 17.5 7.5t7.5 17.5v155q0 10 -7.5 17.5t-17.5 7.5h-85v-205h85zM349 880l-103 -142h-74
l-103 142h90l50 -81l50 81h90z" />
    <glyph glyph-name="rcaron" unicode="&#x159;" horiz-adv-x="280" 
d="M269 399h-66q-20 0 -36 -15.5t-14 -34.5v-349h-100v500l90 -1v-68q12 20 21 32t25.5 24t35.5 12h44v-100zM300 700l-103 -142h-74l-103 142h90l50 -81l50 81h90z" />
    <glyph glyph-name="Sacute" unicode="&#x15a;" horiz-adv-x="402" 
d="M46 475v125q0 41 29.5 70.5t70.5 29.5h110q41 0 70.5 -29.5t29.5 -70.5v-100h-100v85q0 10 -7.5 17.5t-17.5 7.5h-60q-10 0 -17.5 -7.5t-7.5 -17.5v-95q0 -35 25 -50l84 -53q47 -30 74 -62.5t27 -79.5v-145q0 -41 -29.5 -70.5t-70.5 -29.5h-110q-41 0 -70.5 29.5
t-29.5 70.5v100h100v-85q0 -10 7.5 -17.5t17.5 -7.5h60q10 0 17.5 7.5t7.5 17.5v115q0 34 -25 50l-86 57q-33 22 -50.5 36.5t-33 41.5t-15.5 60zM231 880h100l-97 -142h-83z" />
    <glyph glyph-name="sacute" unicode="&#x15b;" horiz-adv-x="384" 
d="M42 335v65q0 41 29.5 70.5t70.5 29.5h100q41 0 70.5 -29.5t29.5 -70.5v-50h-100v35q0 10 -7.5 17.5t-17.5 7.5h-50q-10 0 -17.5 -7.5t-7.5 -17.5v-45q0 -13 5 -19t20 -11l89 -28q46 -15 66 -40.5t20 -76.5v-65q0 -41 -29.5 -70.5t-70.5 -29.5h-100q-41 0 -70.5 29.5
t-29.5 70.5v50h100v-35q0 -10 7.5 -17.5t17.5 -7.5h50q10 0 17.5 7.5t7.5 17.5v45q0 13 -5 19t-20 11l-91 33q-48 17 -66 39.5t-18 72.5zM232 700h100l-97 -142h-83z" />
    <glyph glyph-name="Scedilla" unicode="&#x15e;" horiz-adv-x="402" 
d="M46 475v125q0 41 29.5 70.5t70.5 29.5h110q41 0 70.5 -29.5t29.5 -70.5v-100h-100v85q0 10 -7.5 17.5t-17.5 7.5h-60q-10 0 -17.5 -7.5t-7.5 -17.5v-95q0 -35 25 -50l84 -53q47 -30 74 -62.5t27 -79.5v-145q0 -41 -29.5 -70.5t-70.5 -29.5h-34l40 -24l-70 -121l-77 45
l57 100h-26q-41 0 -70.5 29.5t-29.5 70.5v100h100v-85q0 -10 7.5 -17.5t17.5 -7.5h60q10 0 17.5 7.5t7.5 17.5v115q0 34 -25 50l-86 57q-33 22 -50.5 36.5t-33 41.5t-15.5 60z" />
    <glyph glyph-name="scedilla" unicode="&#x15f;" horiz-adv-x="384" 
d="M42 335v65q0 41 29.5 70.5t70.5 29.5h100q41 0 70.5 -29.5t29.5 -70.5v-50h-100v35q0 10 -7.5 17.5t-17.5 7.5h-50q-10 0 -17.5 -7.5t-7.5 -17.5v-45q0 -13 5 -19t20 -11l89 -28q46 -15 66 -40.5t20 -76.5v-65q0 -41 -29.5 -70.5t-70.5 -29.5h-16l40 -24l-70 -121l-77 45
l57 100h-34q-41 0 -70.5 29.5t-29.5 70.5v50h100v-35q0 -10 7.5 -17.5t17.5 -7.5h50q10 0 17.5 7.5t7.5 17.5v45q0 13 -5 19t-20 11l-91 33q-48 17 -66 39.5t-18 72.5z" />
    <glyph glyph-name="Scaron" unicode="&#x160;" horiz-adv-x="402" 
d="M46 475v125q0 41 29.5 70.5t70.5 29.5h110q41 0 70.5 -29.5t29.5 -70.5v-100h-100v85q0 10 -7.5 17.5t-17.5 7.5h-60q-10 0 -17.5 -7.5t-7.5 -17.5v-95q0 -35 25 -50l84 -53q47 -30 74 -62.5t27 -79.5v-145q0 -41 -29.5 -70.5t-70.5 -29.5h-110q-41 0 -70.5 29.5
t-29.5 70.5v100h100v-85q0 -10 7.5 -17.5t17.5 -7.5h60q10 0 17.5 7.5t7.5 17.5v115q0 34 -25 50l-86 57q-33 22 -50.5 36.5t-33 41.5t-15.5 60zM341 880l-103 -142h-74l-103 142h90l50 -81l50 81h90z" />
    <glyph glyph-name="scaron" unicode="&#x161;" horiz-adv-x="384" 
d="M42 335v65q0 41 29.5 70.5t70.5 29.5h100q41 0 70.5 -29.5t29.5 -70.5v-50h-100v35q0 10 -7.5 17.5t-17.5 7.5h-50q-10 0 -17.5 -7.5t-7.5 -17.5v-45q0 -13 5 -19t20 -11l89 -28q46 -15 66 -40.5t20 -76.5v-65q0 -41 -29.5 -70.5t-70.5 -29.5h-100q-41 0 -70.5 29.5
t-29.5 70.5v50h100v-35q0 -10 7.5 -17.5t17.5 -7.5h50q10 0 17.5 7.5t7.5 17.5v45q0 13 -5 19t-20 11l-91 33q-48 17 -66 39.5t-18 72.5zM332 700l-103 -142h-74l-103 142h90l50 -81l50 81h90z" />
    <glyph glyph-name="Tcommaaccent" unicode="&#x162;" horiz-adv-x="320" 
d="M10 700h300v-90h-100v-610h-100v610h-100v90zM205 -38v-173l-90 -53v226h90z" />
    <glyph glyph-name="tcommaaccent" unicode="&#x163;" horiz-adv-x="268" 
d="M67 410h-55v90h55v200h100v-200h80v-90h-80v-295q0 -10 7.5 -17.5t17.5 -7.5h55v-90h-80q-41 0 -70.5 29.5t-29.5 70.5v310zM200 -38v-173l-90 -53v226h90z" />
    <glyph glyph-name="Tcaron" unicode="&#x164;" horiz-adv-x="320" 
d="M10 700h300v-90h-100v-610h-100v610h-100v90zM300 880l-103 -142h-74l-103 142h90l50 -81l50 81h90z" />
    <glyph glyph-name="tcaron" unicode="&#x165;" horiz-adv-x="288" 
d="M67 410h-55v90h55v200h100v-200h80v-90h-80v-295q0 -10 7.5 -17.5t17.5 -7.5h55v-90h-80q-41 0 -70.5 29.5t-29.5 70.5v310zM312 771v-173l-90 -53v226h90z" />
    <glyph glyph-name="Umacron" unicode="&#x16a;" horiz-adv-x="438" 
d="M374 700v-600q0 -41 -29.5 -70.5t-70.5 -29.5h-110q-41 0 -70.5 29.5t-29.5 70.5v600h100v-585q0 -10 7.5 -17.5t17.5 -7.5h60q10 0 17.5 7.5t7.5 17.5v585h100zM94 738v82h248v-82h-248z" />
    <glyph glyph-name="umacron" unicode="&#x16b;" horiz-adv-x="404" 
d="M351 0h-90v41q-7 -14 -25.5 -27.5t-32.5 -13.5h-52q-41 0 -70.5 29.5t-29.5 70.5v400h100v-385q0 -10 7.5 -17.5t17.5 -7.5h50q10 0 17.5 7.5t7.5 17.5v385h100v-500zM77 599v82h248v-82h-248z" />
    <glyph glyph-name="Uring" unicode="&#x16e;" horiz-adv-x="438" 
d="M374 700v-600q0 -41 -29.5 -70.5t-70.5 -29.5h-110q-41 0 -70.5 29.5t-29.5 70.5v600h100v-585q0 -10 7.5 -17.5t17.5 -7.5h60q10 0 17.5 7.5t7.5 17.5v585h100zM219 898q37 0 63 -26t26 -63t-26 -63t-63 -26t-63 26t-26 63t26 63t63 26zM219 855q-19 0 -32 -13.5
t-13 -32.5t13 -32.5t32 -13.5t32 13.5t13 32.5t-13 32.5t-32 13.5z" />
    <glyph glyph-name="uring" unicode="&#x16f;" horiz-adv-x="404" 
d="M351 0h-90v41q-7 -14 -25.5 -27.5t-32.5 -13.5h-52q-41 0 -70.5 29.5t-29.5 70.5v400h100v-385q0 -10 7.5 -17.5t17.5 -7.5h50q10 0 17.5 7.5t7.5 17.5v385h100v-500zM202 718q38 0 63.5 -26t25.5 -63t-25.5 -63t-63.5 -26t-63.5 26t-25.5 63t25.5 63t63.5 26zM202 675
q-19 0 -32 -13.5t-13 -32.5t13 -32.5t32 -13.5t32 13.5t13 32.5t-13 32.5t-32 13.5z" />
    <glyph glyph-name="Uhungarumlaut" unicode="&#x170;" horiz-adv-x="438" 
d="M374 700v-600q0 -41 -29.5 -70.5t-70.5 -29.5h-110q-41 0 -70.5 29.5t-29.5 70.5v600h100v-585q0 -10 7.5 -17.5t17.5 -7.5h60q10 0 17.5 7.5t7.5 17.5v585h100zM320 880h80l-97 -142h-63zM208 880h80l-97 -142h-63z" />
    <glyph glyph-name="uhungarumlaut" unicode="&#x171;" horiz-adv-x="404" 
d="M351 0h-90v41q-7 -14 -25.5 -27.5t-32.5 -13.5h-52q-41 0 -70.5 29.5t-29.5 70.5v400h100v-385q0 -10 7.5 -17.5t17.5 -7.5h50q10 0 17.5 7.5t7.5 17.5v385h100v-500zM308 700h80l-97 -142h-63zM196 700h80l-97 -142h-63z" />
    <glyph glyph-name="Uogonek" unicode="&#x172;" horiz-adv-x="438" 
d="M374 700v-600q0 -41 -29.5 -70.5t-70.5 -29.5h-15l58 -100l-77 -45l-70 121l40 24h-46q-41 0 -70.5 29.5t-29.5 70.5v600h100v-585q0 -10 7.5 -17.5t17.5 -7.5h60q10 0 17.5 7.5t7.5 17.5v585h100z" />
    <glyph glyph-name="uogonek" unicode="&#x173;" horiz-adv-x="404" 
d="M351 0h-24l58 -100l-77 -45l-70 121l40 24h-17v41q-7 -14 -25.5 -27.5t-32.5 -13.5h-52q-41 0 -70.5 29.5t-29.5 70.5v400h100v-385q0 -10 7.5 -17.5t17.5 -7.5h50q10 0 17.5 7.5t7.5 17.5v385h100v-500z" />
    <glyph glyph-name="Ydieresis" unicode="&#x178;" horiz-adv-x="394" 
d="M247 0h-100v288q-4 5 -24 27t-30 34.5t-24 32.5t-20.5 38.5t-6.5 36.5v243h100v-228q0 -16 17.5 -45t28.5 -41l9 -11l9 11q11 12 28.5 41t17.5 45v228h100v-243q0 -18 -6.5 -36.5t-20.5 -38.5t-24 -32.5t-30 -34.5t-24 -27v-288zM322 738h-100v100h100v-100zM172 738
h-100v100h100v-100z" />
    <glyph glyph-name="Zacute" unicode="&#x179;" horiz-adv-x="340" 
d="M20 700h300v-84l-200 -526h200v-90h-300v84l200 526h-200v90zM200 880h100l-97 -142h-83z" />
    <glyph glyph-name="zacute" unicode="&#x17a;" horiz-adv-x="342" 
d="M21 500h300v-84l-190 -326h190v-90h-300v84l190 326h-190v90zM206 700h100l-97 -142h-83z" />
    <glyph glyph-name="Zdotaccent" unicode="&#x17b;" horiz-adv-x="340" 
d="M20 700h300v-84l-200 -526h200v-90h-300v84l200 526h-200v90zM220 738h-100v100h100v-100z" />
    <glyph glyph-name="zdotaccent" unicode="&#x17c;" horiz-adv-x="342" 
d="M21 500h300v-84l-190 -326h190v-90h-300v84l190 326h-190v90zM221 600h-100v100h100v-100z" />
    <glyph glyph-name="Zcaron" unicode="&#x17d;" horiz-adv-x="340" 
d="M20 700h300v-84l-200 -526h200v-90h-300v84l200 526h-200v90zM310 880l-103 -142h-74l-103 142h90l50 -81l50 81h90z" />
    <glyph glyph-name="zcaron" unicode="&#x17e;" horiz-adv-x="342" 
d="M21 500h300v-84l-190 -326h190v-90h-300v84l190 326h-190v90zM311 700l-103 -142h-74l-103 142h90l50 -81l50 81h90z" />
    <glyph glyph-name="florin" unicode="&#x192;" 
d="M72 270v80h88l22 136q8 50 41.5 81.5t79.5 31.5h90v-89h-85q-23 0 -28 -33l-21 -127h92v-80h-108l-43 -242q-9 -49 -49.5 -85.5t-85.5 -36.5h-58v94h53q15 0 27.5 12.5t15.5 29.5l40 228h-71z" />
    <glyph glyph-name="Scommaaccent" unicode="&#x218;" horiz-adv-x="402" 
d="M46 475v125q0 41 29.5 70.5t70.5 29.5h110q41 0 70.5 -29.5t29.5 -70.5v-100h-100v85q0 10 -7.5 17.5t-17.5 7.5h-60q-10 0 -17.5 -7.5t-7.5 -17.5v-95q0 -35 25 -50l84 -53q47 -30 74 -62.5t27 -79.5v-145q0 -41 -29.5 -70.5t-70.5 -29.5h-110q-41 0 -70.5 29.5
t-29.5 70.5v100h100v-85q0 -10 7.5 -17.5t17.5 -7.5h60q10 0 17.5 7.5t7.5 17.5v115q0 34 -25 50l-86 57q-33 22 -50.5 36.5t-33 41.5t-15.5 60zM247 -38v-173l-90 -53v226h90z" />
    <glyph glyph-name="scommaaccent" unicode="&#x219;" horiz-adv-x="384" 
d="M42 335v65q0 41 29.5 70.5t70.5 29.5h100q41 0 70.5 -29.5t29.5 -70.5v-50h-100v35q0 10 -7.5 17.5t-17.5 7.5h-50q-10 0 -17.5 -7.5t-7.5 -17.5v-45q0 -13 5 -19t20 -11l89 -28q46 -15 66 -40.5t20 -76.5v-65q0 -41 -29.5 -70.5t-70.5 -29.5h-100q-41 0 -70.5 29.5
t-29.5 70.5v50h100v-35q0 -10 7.5 -17.5t17.5 -7.5h50q10 0 17.5 7.5t7.5 17.5v45q0 13 -5 19t-20 11l-91 33q-48 17 -66 39.5t-18 72.5zM237 -38v-173l-90 -53v226h90z" />
    <glyph glyph-name="hsuperior" unicode="&#x2b0;" horiz-adv-x="271" 
d="M170 250v274q0 7 -5.5 12.5t-12.5 5.5h-32q-7 0 -13 -5.5t-6 -12.5v-274h-66v450h66v-113q13 13 26 13h47q25 0 43.5 -18t18.5 -43v-289h-66z" />
    <glyph glyph-name="circumflex" unicode="&#x2c6;" 
d="M340 558h-90l-50 81l-50 -81h-90l103 142h74z" />
    <glyph glyph-name="caron" unicode="&#x2c7;" 
d="M340 700l-103 -142h-74l-103 142h90l50 -81l50 81h90z" />
    <glyph glyph-name="breve" unicode="&#x2d8;" 
d="M170 558q-41 0 -70.5 29.5t-29.5 70.5v42h80v-47q0 -10 7.5 -17.5t17.5 -7.5h50q10 0 17.5 7.5t7.5 17.5v47h80v-42q0 -41 -29.5 -70.5t-70.5 -29.5h-60z" />
    <glyph glyph-name="dotaccent" unicode="&#x2d9;" 
d="M250 600h-100v100h100v-100z" />
    <glyph glyph-name="ring" unicode="&#x2da;" 
d="M200 718q38 0 63.5 -26t25.5 -63t-25.5 -63t-63.5 -26t-63.5 26t-25.5 63t25.5 63t63.5 26zM200 675q-19 0 -32 -13.5t-13 -32.5t13 -32.5t32 -13.5t32 13.5t13 32.5t-13 32.5t-32 13.5z" />
    <glyph glyph-name="ogonek" unicode="&#x2db;" 
d="M185 22l70 -122l-77 -45l-70 121z" />
    <glyph glyph-name="tilde" unicode="&#x2dc;" 
d="M189 585q-28 14 -34 14q-14 0 -44 -41l-64 38q29 49 53 68t54 19q21 0 45 -12l12 -6q28 -14 34 -14q14 0 44 41l64 -38q-29 -49 -53 -68t-54 -19q-21 0 -45 12z" />
    <glyph glyph-name="hungarumlaut" unicode="&#x2dd;" 
d="M332 700h80l-97 -142h-63zM220 700h80l-97 -142h-63z" />
    <glyph glyph-name="Delta" unicode="&#x394;" horiz-adv-x="559" 
d="M31 0v71l192 629h113l192 -628v-72h-497zM415 90l-129 468l-7 20l-7 -20l-128 -468h271z" />
    <glyph glyph-name="Delta" unicode="&#x2206;" horiz-adv-x="559" 
d="M31 0v71l192 629h113l192 -628v-72h-497zM415 90l-129 468l-7 20l-7 -20l-128 -468h271z" />
    <glyph glyph-name="Omega" unicode="&#x3a9;" horiz-adv-x="605" 
d="M480 90h75v-90h-215v84q37 4 61.5 20.5t34.5 42.5t13 46.5t3 48.5v239q0 53 -37.5 93.5t-111.5 40.5q-73 0 -111.5 -41t-38.5 -93v-239q0 -28 3 -48.5t13 -46.5t34.5 -42.5t61.5 -20.5v-84h-215v90h76q-32 18 -54 55.5t-22 71.5v268q0 37 14 74.5t42 72.5t79 56.5
t117 21.5t117.5 -21.5t79.5 -56.5t42 -72.5t14 -74.5v-268q0 -34 -21.5 -71.5t-53.5 -55.5z" />
    <glyph glyph-name="Omega" unicode="&#x2126;" horiz-adv-x="605" 
d="M480 90h75v-90h-215v84q37 4 61.5 20.5t34.5 42.5t13 46.5t3 48.5v239q0 53 -37.5 93.5t-111.5 40.5q-73 0 -111.5 -41t-38.5 -93v-239q0 -28 3 -48.5t13 -46.5t34.5 -42.5t61.5 -20.5v-84h-215v90h76q-32 18 -54 55.5t-22 71.5v268q0 37 14 74.5t42 72.5t79 56.5
t117 21.5t117.5 -21.5t79.5 -56.5t42 -72.5t14 -74.5v-268q0 -34 -21.5 -71.5t-53.5 -55.5z" />
    <glyph glyph-name="pi" unicode="&#x3c0;" horiz-adv-x="525" 
d="M433 410l-76 -410h-97l75 410h-111l-75 -410h-99l77 410h-77v90h455v-90h-72z" />
    <glyph glyph-name="endash" unicode="&#x2013;" horiz-adv-x="450" 
d="M40 219v81h370v-81h-370z" />
    <glyph glyph-name="emdash" unicode="&#x2014;" horiz-adv-x="800" 
d="M760 300v-81h-720v81h720z" />
    <glyph glyph-name="quoteleft" unicode="&#x2018;" horiz-adv-x="140" 
d="M25 500v173l90 53v-226h-90z" />
    <glyph glyph-name="quoteright" unicode="&#x2019;" horiz-adv-x="140" 
d="M115 700v-173l-90 -53v226h90z" />
    <glyph glyph-name="quotesinglbase" unicode="&#x201a;" horiz-adv-x="140" 
d="M115 106v-173l-90 -53v226h90z" />
    <glyph glyph-name="quotedblleft" unicode="&#x201c;" horiz-adv-x="278" 
d="M163 500v173l90 53v-226h-90zM25 500v173l90 53v-226h-90z" />
    <glyph glyph-name="quotedblright" unicode="&#x201d;" horiz-adv-x="278" 
d="M253 700v-173l-90 -53v226h90zM115 700v-173l-90 -53v226h90z" />
    <glyph glyph-name="quotedblbase" unicode="&#x201e;" horiz-adv-x="278" 
d="M253 106v-173l-90 -53v226h90zM115 106v-173l-90 -53v226h90z" />
    <glyph glyph-name="dagger" unicode="&#x2020;" 
d="M244 200h-87v96l16 222l-9 8l-38 -13h-68v87h68l38 -14l7 8l-14 39v67h87v-67l-14 -39l7 -8l38 14h67v-87h-67l-38 13l-9 -8l16 -222v-96z" />
    <glyph glyph-name="daggerdbl" unicode="&#x2021;" horiz-adv-x="401" 
d="M157 406v88l16 23l-9 8l-38 -13h-68v88h68l38 -15l7 8l-14 40v67h87v-67l-14 -40l7 -8l38 15h67v-88h-67l-38 13l-9 -8l16 -23v-88l-16 -23l9 -8l38 13h67v-88h-67l-38 15l-7 -8l14 -39v-68h-87v68l14 39l-7 8l-38 -15h-68v88h68l38 -13l9 8z" />
    <glyph glyph-name="bullet" unicode="&#x2022;" horiz-adv-x="446" 
d="M48 266q0 73 51 124t124 51t124 -51t51 -124t-51 -124t-124 -51t-124 51t-51 124z" />
    <glyph glyph-name="ellipsis" unicode="&#x2026;" horiz-adv-x="1000" 
d="M263 106v-106h-106v106h106zM553 106v-106h-106v106h106zM843 106v-106h-106v106h106z" />
    <glyph glyph-name="perthousand" unicode="&#x2030;" horiz-adv-x="810" 
d="M230 361q0 -25 -18 -43t-44 -18h-76q-26 0 -44 18t-18 43v178q0 25 18 43t44 18h76q26 0 44 -18t18 -43v-178zM164 524q0 7 -5.5 12.5t-12.5 5.5h-31q-7 0 -13 -5.5t-6 -12.5v-147q0 -8 5.5 -14t13.5 -6h31q7 0 12.5 6t5.5 14v147zM114 0l262 600h61l-262 -600h-61z
M530 61q0 -25 -18 -43t-44 -18h-76q-26 0 -44 18t-18 43v178q0 25 18 43t44 18h76q26 0 44 -18t18 -43v-178zM464 224q0 7 -5.5 12.5t-12.5 5.5h-31q-7 0 -13 -5.5t-6 -12.5v-147q0 -8 5.5 -14t13.5 -6h31q7 0 12.5 6t5.5 14v147zM780 61q0 -25 -18 -43t-44 -18h-76
q-26 0 -44 18t-18 43v178q0 25 18 43t44 18h76q26 0 44 -18t18 -43v-178zM714 224q0 7 -5.5 12.5t-12.5 5.5h-31q-7 0 -13 -5.5t-6 -12.5v-147q0 -8 5.5 -14t13.5 -6h31q7 0 12.5 6t5.5 14v147z" />
    <glyph glyph-name="guilsinglleft" unicode="&#x2039;" horiz-adv-x="227" 
d="M122 260l8 -8l75 -123h-89l-79 106v49l79 106h89l-75 -122z" />
    <glyph glyph-name="guilsinglright" unicode="&#x203a;" horiz-adv-x="227" 
d="M105 260l-8 8l-75 122h89l79 -106v-49l-79 -106h-89l75 123z" />
    <glyph glyph-name="fraction" unicode="&#x2044;" horiz-adv-x="140" 
d="M-96 0l262 600h61l-262 -600h-61z" />
    <glyph glyph-name="zerosuperior" unicode="&#x2070;" horiz-adv-x="260" 
d="M231 311q0 -25 -18 -43t-44 -18h-77q-26 0 -44 18t-18 43v228q0 25 18 43t44 18h77q26 0 44 -18t18 -43v-228zM165 524q0 7 -5.5 12.5t-12.5 5.5h-32q-7 0 -13 -5.5t-6 -12.5v-197q0 -8 5.5 -14t13.5 -6h32q7 0 12.5 6t5.5 14v197z" />
    <glyph glyph-name="foursuperior" unicode="&#x2074;" horiz-adv-x="260" 
d="M193 600v-225h53v-58h-53v-67h-67v67h-122v48l123 235h66zM126 514l-72 -139h72v139z" />
    <glyph glyph-name="fivesuperior" unicode="&#x2075;" horiz-adv-x="260" 
d="M96 327q0 -8 5.5 -14t13.5 -6h32q7 0 12.5 6t5.5 14v79q0 9 -11 9h-47q-11 0 -11 -13h-66v198h195v-60h-134v-76q11 11 25 11h53q26 0 44 -18t18 -43v-103q0 -25 -18 -43t-44 -18h-77q-26 0 -44 18t-18 43v27h66v-11z" />
    <glyph glyph-name="sixsuperior" unicode="&#x2076;" horiz-adv-x="260" 
d="M165 506v18q0 7 -5.5 12.5t-12.5 5.5h-32q-7 0 -13 -5.5t-6 -12.5v-66q16 14 30 14h43q25 0 43.5 -18t18.5 -44v-99q0 -25 -18 -43t-44 -18h-77q-26 0 -44 18t-18 43v228q0 25 18 43t44 18h77q26 0 44 -18t18 -43v-33h-66zM165 394q0 7 -5.5 12.5t-12.5 5.5h-32
q-7 0 -13 -5.5t-6 -12.5v-67q0 -8 5.5 -14t13.5 -6h32q7 0 12.5 6t5.5 14v67z" />
    <glyph glyph-name="sevensuperior" unicode="&#x2077;" horiz-adv-x="260" 
d="M172 407l-5 -5q-6 -6 -14.5 -20.5t-8.5 -22.5v-109h-67v114q0 14 7.5 30.5t13.5 24.5t22 26.5t17 19.5l5 6q23 29 23 44v25h-129v60h195v-94q0 -19 -11 -39.5t-20.5 -31t-27.5 -28.5z" />
    <glyph glyph-name="eightsuperior" unicode="&#x2078;" horiz-adv-x="260" 
d="M27 311v60q0 24 16 41.5t34 18.5v3q-18 3 -32.5 20t-14.5 39v46q0 25 18 43t44 18h77q26 0 44 -18t18 -43v-46q0 -22 -14.5 -39t-32.5 -20v-3q18 -1 34 -18.5t16 -41.5v-60q0 -25 -18 -43t-44 -18h-82q-26 0 -44.5 18t-18.5 43zM165 524q0 7 -5.5 12.5t-12.5 5.5h-32
q-7 0 -13 -5.5t-6 -12.5v-46q0 -8 5.5 -14t13.5 -6h32q7 0 12.5 6t5.5 14v46zM168 386q0 7 -5.5 12.5t-12.5 5.5h-37q-7 0 -13 -5.5t-6 -12.5v-59q0 -8 5.5 -14t13.5 -6h37q7 0 12.5 6t5.5 14v59z" />
    <glyph glyph-name="ninesuperior" unicode="&#x2079;" horiz-adv-x="260" 
d="M231 311q0 -25 -18 -43t-44 -18h-77q-26 0 -44 18t-18 43v27h66v-18q0 -11 11 -11h47q11 0 11 11v71q-15 -13 -30 -13h-43q-26 0 -44 18t-18 44v99q0 25 18 43t44 18h77q26 0 44 -18t18 -43v-228zM165 524q0 7 -5.5 12.5t-12.5 5.5h-32q-7 0 -13 -5.5t-6 -12.5v-67
q0 -8 5.5 -14t13.5 -6h32q7 0 12.5 6t5.5 14v67z" />
    <glyph glyph-name="nsuperior" unicode="&#x207f;" horiz-adv-x="271" 
d="M170 250v274q0 7 -5.5 12.5t-12.5 5.5h-32q-7 0 -13 -5.5t-6 -12.5v-274h-66v350h61v-14q16 14 29 14h49q25 0 43.5 -18t18.5 -43v-289h-66z" />
    <glyph glyph-name="zeroinferior" unicode="&#x2080;" horiz-adv-x="260" 
d="M231 -14q0 -25 -18 -43t-44 -18h-77q-26 0 -44 18t-18 43v228q0 25 18 43t44 18h77q26 0 44 -18t18 -43v-228zM165 199q0 7 -5.5 12.5t-12.5 5.5h-32q-7 0 -13 -5.5t-6 -12.5v-197q0 -8 5.5 -14t13.5 -6h32q7 0 12.5 6t5.5 14v197z" />
    <glyph glyph-name="oneinferior" unicode="&#x2081;" horiz-adv-x="190" 
d="M140 -75h-66v290h-44v60h110v-350z" />
    <glyph glyph-name="twoinferior" unicode="&#x2082;" horiz-adv-x="260" 
d="M165 199q0 7 -5.5 12.5t-12.5 5.5h-32q-7 0 -13 -5.5t-6 -12.5v-46h-66v61q0 25 18 43t44 18h77q26 0 44 -18t18 -43v-71q0 -52 -60 -82l-62 -32q-13 -7 -13 -26v-19h135v-59h-201v87q0 52 61 83l61 31q13 8 13 25v48z" />
    <glyph glyph-name="threeinferior" unicode="&#x2083;" horiz-adv-x="260" 
d="M96 13v-13q0 -7 6 -12.5t13 -5.5h38q7 0 12.5 5.5t5.5 12.5v51q0 11 -7.5 18.5t-18.5 7.5h-57v58h66q11 0 11 11v53q0 7 -5.5 12.5t-12.5 5.5h-32q-7 0 -13 -5.5t-6 -12.5v-18h-66v33q0 25 18 43t44 18h77q26 0 44 -18t18 -43v-46q0 -23 -13 -39.5t-31 -19.5v-3
q18 -1 34 -18.5t16 -41.5v-60q0 -25 -18 -43t-44 -18h-83q-26 0 -44 18t-18 43v27h66z" />
    <glyph glyph-name="fourinferior" unicode="&#x2084;" horiz-adv-x="260" 
d="M193 275v-225h53v-58h-53v-67h-67v67h-122v48l123 235h66zM126 189l-72 -139h72v139z" />
    <glyph glyph-name="fiveinferior" unicode="&#x2085;" horiz-adv-x="260" 
d="M96 2q0 -8 5.5 -14t13.5 -6h32q7 0 12.5 6t5.5 14v79q0 9 -11 9h-47q-11 0 -11 -13h-66v198h195v-60h-134v-76q11 11 25 11h53q26 0 44 -18t18 -43v-103q0 -25 -18 -43t-44 -18h-77q-26 0 -44 18t-18 43v27h66v-11z" />
    <glyph glyph-name="sixinferior" unicode="&#x2086;" horiz-adv-x="260" 
d="M165 181v18q0 7 -5.5 12.5t-12.5 5.5h-32q-7 0 -13 -5.5t-6 -12.5v-66q16 14 30 14h43q25 0 43.5 -18.5t18.5 -43.5v-99q0 -25 -18 -43t-44 -18h-77q-26 0 -44 18t-18 43v228q0 25 18 43t44 18h77q26 0 44 -18t18 -43v-33h-66zM165 69q0 7 -5.5 12.5t-12.5 5.5h-32
q-7 0 -13 -5.5t-6 -12.5v-67q0 -8 5.5 -14t13.5 -6h32q7 0 12.5 6t5.5 14v67z" />
    <glyph glyph-name="seveninferior" unicode="&#x2087;" horiz-adv-x="260" 
d="M172 82l-5 -5q-6 -6 -14.5 -20.5t-8.5 -22.5v-109h-67v114q0 14 7.5 30.5t13.5 24.5t22 26.5t17 19.5l5 6q23 29 23 44v25h-129v60h195v-94q0 -19 -11 -39.5t-20.5 -31t-27.5 -28.5z" />
    <glyph glyph-name="eightinferior" unicode="&#x2088;" horiz-adv-x="260" 
d="M27 -14v60q0 24 16 41.5t34 18.5v3q-18 3 -32.5 20t-14.5 39v46q0 25 18 43t44 18h77q26 0 44 -18t18 -43v-46q0 -22 -14.5 -39t-32.5 -20v-3q18 -1 34 -18.5t16 -41.5v-60q0 -25 -18 -43t-44 -18h-82q-26 0 -44.5 18t-18.5 43zM165 199q0 7 -5.5 12.5t-12.5 5.5h-32
q-7 0 -13 -5.5t-6 -12.5v-46q0 -8 5.5 -14t13.5 -6h32q7 0 12.5 6t5.5 14v46zM168 61q0 7 -5.5 12.5t-12.5 5.5h-37q-7 0 -13 -5.5t-6 -12.5v-59q0 -8 5.5 -14t13.5 -6h37q7 0 12.5 6t5.5 14v59z" />
    <glyph glyph-name="nineinferior" unicode="&#x2089;" horiz-adv-x="260" 
d="M231 -14q0 -25 -18 -43t-44 -18h-77q-26 0 -44 18t-18 43v27h66v-18q0 -11 11 -11h47q11 0 11 11v71q-15 -13 -30 -13h-43q-26 0 -44 18.5t-18 43.5v99q0 25 18 43t44 18h77q26 0 44 -18t18 -43v-228zM165 199q0 7 -5.5 12.5t-12.5 5.5h-32q-7 0 -13 -5.5t-6 -12.5v-67
q0 -8 5.5 -14t13.5 -6h32q7 0 12.5 6t5.5 14v67z" />
    <glyph glyph-name="colonmonetary" unicode="&#x20a1;" 
d="M205 600h42l9 100h44q-9 -106 -9 -107q28 -11 46 -36.5t18 -56.5v-75h-100v60q0 10 -7.5 17.5t-17.5 7.5h-60q-10 0 -17.5 -7.5t-7.5 -17.5v-370q0 -10 7.5 -17.5t17.5 -7.5h60q10 0 17.5 7.5t7.5 17.5v60h100v-75q0 -41 -29.5 -70.5t-70.5 -29.5h-16l-9 -100h-44l9 100
h-42l-9 -100h-44l9 106q-28 11 -46 37t-18 57v400q0 41 29.5 70.5t70.5 29.5h16l9 100h44z" />
    <glyph glyph-name="franc" unicode="&#x20a3;" 
d="M207 108v-108h-100v108h-65v72h65v420h250v-90h-150v-131h122v-90h-122v-109h87v-72h-87z" />
    <glyph glyph-name="lira" unicode="&#x20a4;" 
d="M170 216v-126h200v-90h-300v216h-70v40h70v40h-70v40h70v164q0 41 29.5 70.5t70.5 29.5h100q41 0 70.5 -29.5t29.5 -70.5v-100h-100v85q0 10 -7.5 17.5t-17.5 7.5h-50q-10 0 -17.5 -7.5t-7.5 -17.5v-149h130v-40h-130v-40h130v-40h-130z" />
    <glyph glyph-name="peseta" unicode="&#x20a7;" horiz-adv-x="724" 
d="M260 357q10 0 17.5 7.5t7.5 17.5v103q0 10 -7.5 17.5t-17.5 7.5h-85v-153h85zM373 333h59v-66h-74v-191q0 -12 12 -12h62v-64h-79q-28 0 -48 20t-20 46v201h-110v-267h-100v600h210q41 0 70.5 -29.5t29.5 -70.5v-130q0 -24 -12 -37zM615 75q0 -11 -11 -11h-52
q-11 0 -11 11v26h-72v-36q0 -26 20 -45.5t48 -19.5h82q28 0 48.5 19.5t20.5 45.5v73q0 26 -20.5 46t-48.5 20h-67q-4 0 -7.5 3.5t-3.5 7.5v43q0 4 3.5 7.5t7.5 3.5h52q11 0 11 -11v-26h73v35q0 26 -20.5 46t-48.5 20h-82q-28 0 -48 -20t-20 -46v-73q0 -26 20 -45.5t48 -19.5
h67q11 0 11 -11v-43z" />
    <glyph glyph-name="Euro" unicode="&#x20ac;" 
d="M150 335v-65h135v-80h-135v-75q0 -10 7.5 -17.5t17.5 -7.5h60q10 0 17.5 7.5t7.5 17.5v25h100v-40q0 -41 -29.5 -70.5t-70.5 -29.5h-110q-41 0 -70.5 29.5t-29.5 70.5v90h-50v80h50v65h-50v80h50v85q0 41 29.5 70.5t70.5 29.5h110q41 0 70.5 -29.5t29.5 -70.5v-40h-100
v25q0 10 -7.5 17.5t-17.5 7.5h-60q-10 0 -17.5 -7.5t-7.5 -17.5v-70h135v-80h-135z" />
    <glyph glyph-name="peso" unicode="&#x20b1;" 
d="M263 403h-110v-73h85q10 0 17.5 7.5t7.5 17.5v48zM153 443h110v42q0 10 -7.5 17.5t-17.5 7.5h-85v-67zM53 443v157h210q41 0 70.5 -29.5t29.5 -70.5v-57h37v-40h-37v-63q0 -41 -29.5 -70.5t-70.5 -29.5h-110v-240h-100v403h-53v40h53z" />
    <glyph glyph-name="litre" unicode="&#x2113;" 
d="M268 0h-70q-41 0 -71 29.5t-30 70.5v103l-70 -46v89l70 46v308q0 41 29.5 70.5t70.5 29.5h73q40 0 62.5 -28.5t23.5 -71.5v-139q1 -86 -89 -146l-70 -46v-154q0 -10 7.5 -17.5t17.5 -7.5h46q26 0 88 45v-90q-62 -45 -88 -45zM270 450v135q0 10 -7.5 17.5t-17.5 7.5h-23
q-9 0 -17 -7.5t-8 -17.5v-227l40 27q33 21 33 65z" />
    <glyph glyph-name="trademark" unicode="&#x2122;" horiz-adv-x="497" 
d="M81 655l1 7l-8 -1h-48v39h158v-39h-48l-9 1l2 -7v-184h-48v184zM256 642v-171h-45v229h68l40 -144l40 144h68v-229h-46v171h-5l-37 -130h-40l-37 130h-6z" />
    <glyph glyph-name="estimated" unicode="&#x212e;" horiz-adv-x="760" 
d="M172 471v-157q0 -6 6 -6h407q9 0 9 6v157q0 9 -6 18q-68 93 -204 93q-54 0 -116.5 -27t-88.5 -66q-7 -11 -7 -18zM647 117q-48 -58 -117.5 -87.5t-145.5 -29.5q-84 0 -160.5 37t-125 107t-48.5 156q0 131 101.5 215.5t232.5 84.5q139 0 235.5 -84.5t96.5 -223.5h-538
q-6 0 -6 -8v-149q0 -18 7 -25q88 -92 205 -92q130 0 215 99h48z" />
    <glyph glyph-name="partialdiff" unicode="&#x2202;" horiz-adv-x="421" 
d="M256 490l-123 210h115l126 -230q19 -36 13 -70l-53 -300q-8 -41 -42 -70.5t-75 -29.5h-100q-41 0 -65.5 29.5t-17.5 70.5l53 300q8 41 42.5 70.5t75.5 29.5h18zM285 385q2 10 -4.5 17.5t-16.5 7.5h-50q-10 0 -19 -7.5t-10 -17.5l-48 -270q-2 -10 4.5 -17.5t16.5 -7.5h50
q10 0 19 7.5t10 17.5z" />
    <glyph glyph-name="product" unicode="&#x220f;" horiz-adv-x="588" 
d="M183 -100h-100v708h-68v92h558v-92h-68v-708h-99v708h-223v-708z" />
    <glyph glyph-name="summation" unicode="&#x2211;" horiz-adv-x="559" 
d="M520 -10v-90h-474v94l253 303l9 5l-9 6l-253 300v92h474v-90h-354l235 -276v-69l-233 -275h352z" />
    <glyph glyph-name="minus" unicode="&#x2212;" 
d="M40 272v82h320v-82h-320z" />
    <glyph glyph-name="radical" unicode="&#x221a;" horiz-adv-x="505" 
d="M30 418v82h156l87 -338l190 633h94l-257 -795h-65l-120 418h-85z" />
    <glyph glyph-name="infinity" unicode="&#x221e;" horiz-adv-x="599" 
d="M141 181q-50 0 -88.5 39.5t-38.5 85.5v16q0 46 38 85t89 39h49q24 0 109 -76q89 76 110 76h49q51 0 89 -39t38 -85v-16q0 -46 -38.5 -85.5t-88.5 -39.5h-49q-25 0 -110 78q-85 -78 -109 -78h-49zM422 264h38q16 0 27 10.5t11 23.5v31q0 14 -11 24.5t-27 10.5h-38
q-8 0 -62 -50q54 -50 62 -50zM176 364h-38q-15 0 -26 -10.5t-11 -24.5v-31q0 -13 11 -23.5t26 -10.5h38q3 0 7.5 2.5t11 8t12 10t16 14t16.5 15.5q-54 50 -63 50z" />
    <glyph glyph-name="integral" unicode="&#x222b;" horiz-adv-x="326" 
d="M80 -121h-80v94h63q14 0 23.5 12t10.5 28l31 563q3 51 38 87.5t81 36.5h79v-90h-63q-14 0 -23.5 -11.5t-10.5 -27.5l-30 -568q-3 -50 -38 -87t-81 -37z" />
    <glyph glyph-name="approxequal" unicode="&#x2248;" 
d="M190 345q-30 15 -38 15q-15 0 -48 -45l-70 42q32 54 58.5 75t58.5 21q26 0 50 -13l13 -7q30 -15 38 -15q15 0 48 45l70 -42q-32 -54 -58.5 -75t-58.5 -21q-26 0 -50 13zM190 185q-30 15 -38 15q-15 0 -48 -45l-70 42q32 54 58.5 75t58.5 21q26 0 50 -13l13 -7
q30 -15 38 -15q15 0 48 45l70 -42q-32 -54 -58.5 -75t-58.5 -21q-26 0 -50 13z" />
    <glyph glyph-name="notequal" unicode="&#x2260;" 
d="M375 435v-82h-107l-48 -80h155v-82h-202l-39 -66h-87l39 66h-60v82h108l47 80h-155v82h202l39 65h87l-39 -65h60z" />
    <glyph glyph-name="lessequal" unicode="&#x2264;" 
d="M140 339l24 -6l211 -71v-89l-349 137v55l349 141v-91l-211 -71zM26 89v82h349v-82h-349z" />
    <glyph glyph-name="greaterequal" unicode="&#x2265;" 
d="M261 339l-24 5l-211 71v91l349 -141v-55l-349 -137v89l211 71zM375 89h-349v82h349v-82z" />
    <glyph glyph-name="lozenge" unicode="&#x25ca;" 
d="M0 359l153 241h95l152 -241v-114l-152 -245h-95l-153 245v114zM200 506l-129 -205l129 -207l129 207z" />
    <glyph glyph-name="CR" unicode="&#xe001;" horiz-adv-x="150" 
 />
    <glyph glyph-name="mvbfonts.com" unicode="&#xe002;" horiz-adv-x="1100" 
d="M1050 300q0 -136 -67 -251t-182 -182t-251 -67t-251 67t-182 182t-67 251t67 251t182 182t251 67t251 -67t182 -182t67 -251zM936 275q0 40 -60 40v7q54 2 54 32q0 41 -63 41h-117v-167h127q59 0 59 47zM673 391v3h-45l-39 -107l-46 107h-62v-3l68 -162h56zM406 228v166
h-74l-41 -92l-46 92h-81v-166h41v106h7l49 -105h36l47 105h7v-106h55zM863 349q0 -21 -20 -21h-29v39h27q22 0 22 -18zM863 277q0 -20 -23 -20h-26v41h21q28 0 28 -21z" />
    <glyph glyph-name="one.tabular" unicode="&#xe003;" 
d="M163 90v420h-76v90h176v-510h87v-90h-263v90h76z" />
    <glyph glyph-name="E.alt01" unicode="&#xe004;" horiz-adv-x="396" 
d="M262 0h-110q-41 0 -70.5 29.5t-29.5 70.5v163q0 40 26 68t60 30v5q-33 5 -54.5 32t-21.5 63v139q0 41 29.5 70.5t70.5 29.5h100q41 0 70.5 -29.5t29.5 -70.5v-100h-100v85q0 10 -7.5 17.5t-17.5 7.5h-50q-10 0 -17.5 -7.5t-7.5 -17.5v-155q0 -10 7.5 -17.5t17.5 -7.5h104
v-90h-89q-20 0 -35 -15.5t-15 -34.5v-150q0 -10 7.5 -17.5t17.5 -7.5h60q10 0 17.5 7.5t7.5 17.5v85h100v-100q0 -41 -29.5 -70.5t-70.5 -29.5z" />
    <glyph glyph-name="E.alt02" unicode="&#xe005;" horiz-adv-x="354" 
d="M72 315h-50v90h50v195q0 41 29.5 70.5t70.5 29.5h150v-90h-125q-10 0 -17.5 -7.5t-7.5 -17.5v-180h122v-90h-122v-200q0 -10 7.5 -17.5t17.5 -7.5h125v-90h-150q-41 0 -70.5 29.5t-29.5 70.5v215z" />
    <glyph glyph-name="F.alt01" unicode="&#xe006;" horiz-adv-x="344" 
d="M176 0h-100v315h-50v90h50v195q0 41 29.5 70.5t70.5 29.5h150v-90h-125q-10 0 -17.5 -7.5t-7.5 -17.5v-180h122v-90h-122v-315z" />
    <glyph glyph-name="L.alt01" unicode="&#xe007;" horiz-adv-x="323" 
d="M318 90v-90h-150q-41 0 -70.5 29.5t-29.5 70.5v600h100v-585q0 -10 7.5 -17.5t17.5 -7.5h125z" />
    <glyph glyph-name="M.alt01" unicode="&#xe008;" horiz-adv-x="633" 
d="M474 0v585q0 10 -7.5 17.5t-17.5 7.5h-55q-10 0 -17.5 -7.5t-7.5 -17.5v-585h-100v585q0 10 -7.5 17.5t-17.5 7.5h-55q-10 0 -17.5 -7.5t-7.5 -17.5v-585h-100v600q0 41 29.5 70.5t70.5 29.5h95q14 0 32.5 -11t25.5 -23q7 12 25.5 23t32.5 11h94q41 0 70.5 -29.5
t29.5 -70.5v-600h-95z" />
    <glyph glyph-name="zerodenominator.tall" unicode="&#xe009;" horiz-adv-x="260" 
d="M231 61q0 -25 -18 -43t-44 -18h-77q-26 0 -44 18t-18 43v228q0 25 18 43t44 18h77q26 0 44 -18t18 -43v-228zM165 274q0 7 -5.5 12.5t-12.5 5.5h-32q-7 0 -13 -5.5t-6 -12.5v-197q0 -8 5.5 -14t13.5 -6h32q7 0 12.5 6t5.5 14v197z" />
    <glyph glyph-name="onedenominator.tall" unicode="&#xe00a;" horiz-adv-x="190" 
d="M140 0h-66v290h-44v60h110v-350z" />
    <glyph glyph-name="twodenominator.tall" unicode="&#xe00b;" horiz-adv-x="260" 
d="M165 274q0 7 -5.5 12.5t-12.5 5.5h-32q-7 0 -13 -5.5t-6 -12.5v-46h-66v61q0 25 18 43t44 18h77q26 0 44 -18t18 -43v-71q0 -52 -60 -82l-62 -32q-13 -6 -13 -26v-19h135v-59h-201v87q0 53 61 83l61 31q13 8 13 25v48z" />
    <glyph glyph-name="threedenominator.tall" unicode="&#xe00c;" horiz-adv-x="260" 
d="M96 88v-13q0 -7 6 -12.5t13 -5.5h38q7 0 12.5 5.5t5.5 12.5v51q0 10 -7.5 18t-18.5 8h-57v58h66q11 0 11 11v53q0 7 -5.5 12.5t-12.5 5.5h-32q-7 0 -13 -5.5t-6 -12.5v-18h-66v33q0 25 18 43t44 18h77q26 0 44 -18t18 -43v-46q0 -23 -13 -39.5t-31 -19.5v-3
q18 -1 34 -18.5t16 -41.5v-60q0 -25 -18 -43t-44 -18h-83q-26 0 -44 18t-18 43v27h66z" />
    <glyph glyph-name="fourdenominator.tall" unicode="&#xe00d;" horiz-adv-x="260" 
d="M193 350v-225h53v-58h-53v-67h-67v67h-122v48l123 235h66zM126 264l-72 -139h72v139z" />
    <glyph glyph-name="fivedenominator.tall" unicode="&#xe00e;" horiz-adv-x="260" 
d="M96 77q0 -8 5.5 -14t13.5 -6h32q7 0 12.5 6t5.5 14v79q0 9 -11 9h-47q-11 0 -11 -13h-66v198h195v-60h-134v-76q11 11 25 11h53q26 0 44 -18t18 -43v-103q0 -25 -18 -43t-44 -18h-77q-26 0 -44 18t-18 43v27h66v-11z" />
    <glyph glyph-name="sixdenominator.tall" unicode="&#xe00f;" horiz-adv-x="260" 
d="M165 256v18q0 7 -5.5 12.5t-12.5 5.5h-32q-7 0 -13 -5.5t-6 -12.5v-66q16 14 30 14h43q25 0 43.5 -18t18.5 -44v-99q0 -25 -18 -43t-44 -18h-77q-26 0 -44 18t-18 43v228q0 25 18 43t44 18h77q26 0 44 -18t18 -43v-33h-66zM165 144q0 7 -5.5 12.5t-12.5 5.5h-32
q-7 0 -13 -5.5t-6 -12.5v-67q0 -8 5.5 -14t13.5 -6h32q7 0 12.5 6t5.5 14v67z" />
    <glyph glyph-name="sevendenominator.tall" unicode="&#xe010;" horiz-adv-x="260" 
d="M172 157l-5 -5q-6 -6 -14.5 -20.5t-8.5 -22.5v-109h-67v114q0 14 7.5 30.5t13.5 24.5t22 26.5t17 19.5l5 6q23 29 23 44v25h-129v60h195v-94q0 -19 -11 -39.5t-20.5 -31t-27.5 -28.5z" />
    <glyph glyph-name="Imacron.small" unicode="&#xe011;" horiz-adv-x="236" 
d="M168 0h-100v600h100v-600zM-6 638v82h248v-82h-248z" />
    <glyph glyph-name="eightdenominator.tall" unicode="&#xe012;" horiz-adv-x="260" 
d="M27 61v60q0 24 16 41.5t34 18.5v3q-18 3 -32.5 20t-14.5 39v46q0 25 18 43t44 18h77q26 0 44 -18t18 -43v-46q0 -22 -14.5 -39t-32.5 -20v-3q18 -1 34 -18.5t16 -41.5v-60q0 -25 -18 -43t-44 -18h-82q-26 0 -44.5 18t-18.5 43zM165 274q0 7 -5.5 12.5t-12.5 5.5h-32
q-7 0 -13 -5.5t-6 -12.5v-46q0 -8 5.5 -14t13.5 -6h32q7 0 12.5 6t5.5 14v46zM168 136q0 7 -5.5 12.5t-12.5 5.5h-37q-7 0 -13 -5.5t-6 -12.5v-59q0 -8 5.5 -14t13.5 -6h37q7 0 12.5 6t5.5 14v59z" />
    <glyph glyph-name="ninedenominator.tall" unicode="&#xe013;" horiz-adv-x="260" 
d="M231 61q0 -25 -18 -43t-44 -18h-77q-26 0 -44 18t-18 43v27h66v-18q0 -11 11 -11h47q11 0 11 11v71q-15 -13 -30 -13h-43q-26 0 -44 18t-18 44v99q0 25 18 43t44 18h77q26 0 44 -18t18 -43v-228zM165 274q0 7 -5.5 12.5t-12.5 5.5h-32q-7 0 -13 -5.5t-6 -12.5v-67
q0 -8 5.5 -14t13.5 -6h32q7 0 12.5 6t5.5 14v67z" />
    <glyph glyph-name="zeronumerator.tall" unicode="&#xe014;" horiz-adv-x="260" 
d="M231 411q0 -25 -18 -43t-44 -18h-77q-26 0 -44 18t-18 43v228q0 25 18 43t44 18h77q26 0 44 -18t18 -43v-228zM165 624q0 7 -5.5 12.5t-12.5 5.5h-32q-7 0 -13 -5.5t-6 -12.5v-197q0 -8 5.5 -14t13.5 -6h32q7 0 12.5 6t5.5 14v197z" />
    <glyph glyph-name="onenumerator.tall" unicode="&#xe015;" horiz-adv-x="190" 
d="M140 350h-66v290h-44v60h110v-350z" />
    <glyph glyph-name="twonumerator.tall" unicode="&#xe016;" horiz-adv-x="260" 
d="M165 624q0 7 -5.5 12.5t-12.5 5.5h-32q-7 0 -13 -5.5t-6 -12.5v-46h-66v61q0 25 18 43t44 18h77q26 0 44 -18t18 -43v-71q0 -52 -60 -82l-62 -32q-13 -6 -13 -26v-19h135v-59h-201v87q0 53 61 83l61 31q13 8 13 25v48z" />
    <glyph glyph-name="threenumerator.tall" unicode="&#xe017;" horiz-adv-x="260" 
d="M96 438v-13q0 -7 6 -12.5t13 -5.5h38q7 0 12.5 5.5t5.5 12.5v51q0 10 -7.5 18t-18.5 8h-57v58h66q11 0 11 11v53q0 7 -5.5 12.5t-12.5 5.5h-32q-7 0 -13 -5.5t-6 -12.5v-18h-66v33q0 25 18 43t44 18h77q26 0 44 -18t18 -43v-46q0 -23 -13 -39.5t-31 -19.5v-3
q18 -1 34 -18.5t16 -41.5v-60q0 -25 -18 -43t-44 -18h-83q-26 0 -44 18t-18 43v27h66z" />
    <glyph glyph-name="fournumerator.tall" unicode="&#xe018;" horiz-adv-x="260" 
d="M193 700v-225h53v-58h-53v-67h-67v67h-122v48l123 235h66zM126 614l-72 -139h72v139z" />
    <glyph glyph-name="fivenumerator.tall" unicode="&#xe019;" horiz-adv-x="260" 
d="M96 427q0 -8 5.5 -14t13.5 -6h32q7 0 12.5 6t5.5 14v79q0 9 -11 9h-47q-11 0 -11 -13h-66v198h195v-60h-134v-76q11 11 25 11h53q26 0 44 -18t18 -43v-103q0 -25 -18 -43t-44 -18h-77q-26 0 -44 18t-18 43v27h66v-11z" />
    <glyph glyph-name="sixnumerator.tall" unicode="&#xe01a;" horiz-adv-x="260" 
d="M165 606v18q0 7 -5.5 12.5t-12.5 5.5h-32q-7 0 -13 -5.5t-6 -12.5v-66q16 14 30 14h43q25 0 43.5 -18t18.5 -44v-99q0 -25 -18 -43t-44 -18h-77q-26 0 -44 18t-18 43v228q0 25 18 43t44 18h77q26 0 44 -18t18 -43v-33h-66zM165 494q0 7 -5.5 12.5t-12.5 5.5h-32
q-7 0 -13 -5.5t-6 -12.5v-67q0 -8 5.5 -14t13.5 -6h32q7 0 12.5 6t5.5 14v67z" />
    <glyph glyph-name="sevennumerator.tall" unicode="&#xe01b;" horiz-adv-x="260" 
d="M172 507l-5 -5q-6 -6 -14.5 -20.5t-8.5 -22.5v-109h-67v114q0 14 7.5 30.5t13.5 24.5t22 26.5t17 19.5l5 6q23 29 23 44v25h-129v60h195v-94q0 -19 -11 -39.5t-20.5 -31t-27.5 -28.5z" />
    <glyph glyph-name="eightnumerator.tall" unicode="&#xe01c;" horiz-adv-x="260" 
d="M27 411v60q0 24 16 41.5t34 18.5v3q-18 3 -32.5 20t-14.5 39v46q0 25 18 43t44 18h77q26 0 44 -18t18 -43v-46q0 -22 -14.5 -39t-32.5 -20v-3q18 -1 34 -18.5t16 -41.5v-60q0 -25 -18 -43t-44 -18h-82q-26 0 -44.5 18t-18.5 43zM165 624q0 7 -5.5 12.5t-12.5 5.5h-32
q-7 0 -13 -5.5t-6 -12.5v-46q0 -8 5.5 -14t13.5 -6h32q7 0 12.5 6t5.5 14v46zM168 486q0 7 -5.5 12.5t-12.5 5.5h-37q-7 0 -13 -5.5t-6 -12.5v-59q0 -8 5.5 -14t13.5 -6h37q7 0 12.5 6t5.5 14v59z" />
    <glyph glyph-name="ninenumerator.tall" unicode="&#xe01d;" horiz-adv-x="260" 
d="M231 411q0 -25 -18 -43t-44 -18h-77q-26 0 -44 18t-18 43v27h66v-18q0 -11 11 -11h47q11 0 11 11v71q-15 -13 -30 -13h-43q-26 0 -44 18t-18 44v99q0 25 18 43t44 18h77q26 0 44 -18t18 -43v-228zM165 624q0 7 -5.5 12.5t-12.5 5.5h-32q-7 0 -13 -5.5t-6 -12.5v-67
q0 -8 5.5 -14t13.5 -6h32q7 0 12.5 6t5.5 14v67z" />
    <glyph glyph-name="new0" unicode="&#xe01e;" horiz-adv-x="0" 
 />
    <glyph glyph-name="new1" unicode="&#xe01f;" horiz-adv-x="0" 
 />
    <glyph glyph-name="new2" unicode="&#xe020;" horiz-adv-x="0" 
 />
    <glyph glyph-name="new3" unicode="&#xe021;" horiz-adv-x="0" 
 />
    <glyph glyph-name="new4" unicode="&#xe022;" horiz-adv-x="0" 
 />
    <glyph glyph-name="new5" unicode="&#xe023;" horiz-adv-x="0" 
 />
    <glyph glyph-name="new6" unicode="&#xe024;" horiz-adv-x="0" 
 />
    <glyph glyph-name="new7" unicode="&#xe025;" horiz-adv-x="0" 
 />
    <glyph glyph-name="new8" unicode="&#xe026;" horiz-adv-x="0" 
 />
    <glyph glyph-name="new9" unicode="&#xe027;" horiz-adv-x="0" 
 />
    <glyph glyph-name="colonmonetary.tall" unicode="&#xe030;" 
d="M205 650h42l9 100h44q-9 -106 -9 -107q28 -11 46 -36.5t18 -56.5v-75h-100v60q0 10 -7.5 17.5t-17.5 7.5h-60q-10 0 -17.5 -7.5t-7.5 -17.5v-370q0 -10 7.5 -17.5t17.5 -7.5h60q10 0 17.5 7.5t7.5 17.5v60h100v-75q0 -41 -29.5 -70.5t-70.5 -29.5h-16l-9 -100h-44l9 100
h-42l-9 -100h-44l9 106q-28 11 -46 37t-18 57v400q0 41 29.5 70.5t70.5 29.5h16l9 100h44z" />
    <glyph glyph-name="zero.tall" unicode="&#xe031;" 
d="M350 600v-500q0 -41 -29.5 -70.5t-70.5 -29.5h-100q-41 0 -70.5 29.5t-29.5 70.5v500q0 41 29.5 70.5t70.5 29.5h100q41 0 70.5 -29.5t29.5 -70.5zM250 585q0 10 -7.5 17.5t-17.5 7.5h-50q-10 0 -17.5 -7.5t-7.5 -17.5v-470q0 -10 7.5 -17.5t17.5 -7.5h50q10 0 17.5 7.5
t7.5 17.5v470z" />
    <glyph glyph-name="one.tall" unicode="&#xe032;" horiz-adv-x="290" 
d="M210 700v-700h-100v610h-76v90h176z" />
    <glyph glyph-name="two.tall" unicode="&#xe033;" 
d="M150 90h200v-90h-300v195q0 33 17 61.5t34 42.5t50 38l74 53q25 18 25 50v145q0 10 -7.5 17.5t-17.5 7.5h-50q-10 0 -17.5 -7.5t-7.5 -17.5v-85h-100v100q0 41 29.5 70.5t70.5 29.5h100q41 0 70.5 -29.5t29.5 -70.5v-175q0 -10 -1.5 -20t-3.5 -17.5t-7 -16t-8.5 -14.5
t-11 -13.5l-11.5 -11.5t-13.5 -12t-13.5 -11t-15 -11t-14 -11l-76 -57q-25 -20 -25 -50v-90z" />
    <glyph glyph-name="three.tall" unicode="&#xe034;" 
d="M145 0q-41 0 -70.5 29.5t-29.5 70.5v40h100v-25q0 -10 7.5 -17.5t17.5 -7.5h60q10 0 17.5 7.5t7.5 17.5v150q0 19 -15.5 34.5t-34.5 15.5h-61v90h76q10 0 17.5 7.5t7.5 17.5v155q0 10 -7.5 17.5t-17.5 7.5h-50q-10 0 -17.5 -7.5t-7.5 -17.5v-35h-100v50q0 41 29.5 70.5
t70.5 29.5h100q41 0 70.5 -29.5t29.5 -70.5v-139q0 -36 -21.5 -63t-54.5 -32v-5q34 -2 60 -30t26 -68v-163q0 -41 -29.5 -70.5t-70.5 -29.5h-110z" />
    <glyph glyph-name="four.tall" unicode="&#xe035;" 
d="M213 700h100v-450h67v-90h-67v-160h-100v160h-203v78zM213 250v292l-121 -292h121z" />
    <glyph glyph-name="five.tall" unicode="&#xe036;" 
d="M55 315v385h290v-90h-200v-213q4 14 20 24t30 10h60q41 0 70.5 -29.5t29.5 -70.5v-231q0 -41 -29.5 -70.5t-70.5 -29.5h-100q-41 0 -70.5 29.5t-29.5 70.5v40h100v-25q0 -10 7.5 -17.5t17.5 -7.5h50q10 0 17.5 7.5t7.5 17.5v200q0 10 -7.5 17.5t-17.5 7.5h-50
q-10 0 -17.5 -7.5t-7.5 -17.5h-100z" />
    <glyph glyph-name="six.tall" unicode="&#xe037;" 
d="M50 100v500q0 41 29.5 70.5t70.5 29.5h100q41 0 70.5 -29.5t29.5 -70.5v-50h-100v35q0 10 -7.5 17.5t-17.5 7.5h-50q-10 0 -17.5 -7.5t-7.5 -17.5v-194q7 12 25.5 23t32.5 11h42q41 0 70.5 -29.5t29.5 -70.5v-225q0 -41 -29.5 -70.5t-70.5 -29.5h-100q-41 0 -70.5 29.5
t-29.5 70.5zM250 310q0 10 -7.5 17.5t-17.5 7.5h-50q-10 0 -17.5 -7.5t-7.5 -17.5v-195q0 -10 7.5 -17.5t17.5 -7.5h50q10 0 17.5 7.5t7.5 17.5v195z" />
    <glyph glyph-name="seven.tall" unicode="&#xe038;" 
d="M350 492q0 -17 -5 -34.5t-11 -30t-19 -29.5t-20 -25.5t-23.5 -26.5t-21.5 -23l-8 -9q-11 -12 -26.5 -38.5t-15.5 -42.5v-233h-100v243q0 25 12 52t23 42t36 44t30 35l8 10q41 53 41 81v103h-190v90h290v-208z" />
    <glyph glyph-name="eight.tall" unicode="&#xe039;" 
d="M145 0q-41 0 -70.5 29.5t-29.5 70.5v163q0 40 26 68t60 30v5q-33 5 -57 32t-24 63v139q0 41 29.5 70.5t70.5 29.5h100q41 0 70.5 -29.5t29.5 -70.5v-139q0 -36 -24 -63t-57 -32v-5q34 -2 60 -30t26 -68v-163q0 -41 -29.5 -70.5t-70.5 -29.5h-110zM225 405q10 0 17.5 7.5
t7.5 17.5v155q0 10 -7.5 17.5t-17.5 7.5h-50q-10 0 -17.5 -7.5t-7.5 -17.5v-155q0 -10 7.5 -17.5t17.5 -7.5h50zM255 288q0 11 -7.5 19t-17.5 8h-60q-10 0 -17.5 -7.5t-7.5 -17.5v-175q0 -10 7.5 -17.5t17.5 -7.5h60q10 0 17.5 7.5t7.5 17.5v173z" />
    <glyph glyph-name="nine.tall" unicode="&#xe03a;" 
d="M350 600v-500q0 -41 -29.5 -70.5t-70.5 -29.5h-100q-41 0 -70.5 29.5t-29.5 70.5v40h100v-25q0 -10 7.5 -17.5t17.5 -7.5h50q10 0 17.5 7.5t7.5 17.5v194q-7 -12 -25.5 -23t-32.5 -11h-42q-41 0 -70.5 29.5t-29.5 70.5v225q0 41 29.5 70.5t70.5 29.5h100q41 0 70.5 -29.5
t29.5 -70.5zM150 390q0 -10 7.5 -17.5t17.5 -7.5h50q10 0 17.5 7.5t7.5 17.5v195q0 10 -7.5 17.5t-17.5 7.5h-50q-10 0 -17.5 -7.5t-7.5 -17.5v-195z" />
    <glyph glyph-name="zeroslash.tall" unicode="&#xe03b;" 
d="M350 600v-500q0 -41 -29.5 -70.5t-70.5 -29.5h-100q-41 0 -70.5 29.5t-29.5 70.5v500q0 41 29.5 70.5t70.5 29.5h100q41 0 70.5 -29.5t29.5 -70.5zM260 581v4q0 10 -7.5 17.5t-17.5 7.5h-70q-10 0 -17.5 -7.5t-7.5 -17.5v-269q0 -35 -9 -96zM140 122v-7q0 -10 7.5 -17.5
t17.5 -7.5h70q10 0 17.5 7.5t7.5 17.5v272q0 35 9 96z" />
    <glyph glyph-name="one.tall.tabular" unicode="&#xe03c;" 
d="M163 90v520h-76v90h176v-610h87v-90h-263v90h76z" />
    <glyph glyph-name="dollar.tall" unicode="&#xe03d;" horiz-adv-x="380" 
d="M235 650h5q41 0 70.5 -29.5t29.5 -70.5v-75h-100v60q0 10 -7.5 17.5t-17.5 7.5h-50q-10 0 -17.5 -7.5t-7.5 -17.5v-70q0 -27 25 -40l82 -41q45 -22 69 -51t24 -78v-105q0 -41 -29.5 -70.5t-70.5 -29.5h-5v-100h-90v100h-5q-41 0 -70.5 29.5t-29.5 70.5v75h100v-60
q0 -10 7.5 -17.5t17.5 -7.5h50q10 0 17.5 7.5t7.5 17.5v80q0 27 -25 40l-84 45q-47 25 -69 51t-22 74v95q0 41 29.5 70.5t70.5 29.5h5v100h90v-100z" />
    <glyph glyph-name="cent.tall" unicode="&#xe03e;" 
d="M155 550v100h90v-100h5q41 0 70.5 -29.5t29.5 -70.5v-50h-100v35q0 10 -7.5 17.5t-17.5 7.5h-50q-10 0 -17.5 -7.5t-7.5 -17.5v-270q0 -10 7.5 -17.5t17.5 -7.5h50q10 0 17.5 7.5t7.5 17.5v35h100v-50q0 -41 -29.5 -70.5t-70.5 -29.5h-5v-100h-90v100h-5
q-41 0 -70.5 29.5t-29.5 70.5v300q0 41 29.5 70.5t70.5 29.5h5z" />
    <glyph glyph-name="Euro.tall" unicode="&#xe03f;" 
d="M150 385v-65h135v-80h-135v-125q0 -10 7.5 -17.5t17.5 -7.5h60q10 0 17.5 7.5t7.5 17.5v35h100v-50q0 -41 -29.5 -70.5t-70.5 -29.5h-110q-41 0 -70.5 29.5t-29.5 70.5v140h-50v80h50v65h-50v80h50v135q0 41 29.5 70.5t70.5 29.5h110q41 0 70.5 -29.5t29.5 -70.5v-50
h-100v35q0 10 -7.5 17.5t-17.5 7.5h-60q-10 0 -17.5 -7.5t-7.5 -17.5v-120h135v-80h-135z" />
    <glyph glyph-name="sterling.tall" unicode="&#xe040;" 
d="M170 286v-196h200v-90h-300v286h-70v80h70v234q0 41 29.5 70.5t70.5 29.5h100q41 0 70.5 -29.5t29.5 -70.5v-100h-100v85q0 10 -7.5 17.5t-17.5 7.5h-50q-10 0 -17.5 -7.5t-7.5 -17.5v-219h130v-80h-130z" />
    <glyph glyph-name="yen.tall" unicode="&#xe041;" 
d="M250 266v-70h100v-80h-100v-116h-100v116h-100v80h100v70h-100v80h74l-98 354h103l50 -243l18 -77h6l17 77l51 243h103l-98 -354h74v-80h-100z" />
    <glyph glyph-name="florin.tall" unicode="&#xe042;" 
d="M73 320v80h88l31 186q8 50 41.5 81.5t79.5 31.5h80v-89h-75q-23 0 -28 -33l-30 -177h92v-80h-108l-52 -292q-9 -49 -49.5 -85.5t-85.5 -36.5h-50v94h45q15 0 27.5 12.5t15.5 29.5l49 278h-71z" />
    <glyph glyph-name="section.tall" unicode="&#xe043;" 
d="M320 157q30 -32 30 -85v-90q0 -41 -29.5 -70.5t-70.5 -29.5h-100q-41 0 -70.5 29.5t-29.5 70.5v50h100v-35q0 -10 7.5 -17.5t17.5 -7.5h50q10 0 17.5 7.5t7.5 17.5v70q0 13 -5 19t-20 11l-91 33q-48 18 -66 40t-18 72v115q0 37 31 70q-31 28 -31 83v90q0 41 29.5 70.5
t70.5 29.5h100q41 0 70.5 -29.5t29.5 -70.5v-50h-100v35q0 10 -7.5 17.5t-17.5 7.5h-50q-10 0 -17.5 -7.5t-7.5 -17.5v-70q0 -13 5 -19t20 -11l89 -28q46 -15 66 -40.5t20 -76.5v-115q0 -36 -30 -68zM250 342q0 17 -25 25l-50 15q-9 3 -17 -6t-8 -19v-117q0 -17 25 -25
l50 -15q9 -3 17 6t8 19v117z" />
    <glyph glyph-name="numbersign.tall" unicode="&#xe044;" 
d="M121 166l-33 -166h-68l34 166h-54v90h69l34 194h-66v90h82l30 160h65l-30 -160h102l31 160h65l-30 -160h48v-90h-62l-35 -194h62v-90h-77l-32 -166h-68l33 166h-100zM135 256h102l34 194h-102z" />
    <glyph glyph-name="percent.tall" unicode="&#xe045;" horiz-adv-x="560" 
d="M231 411q0 -25 -18 -43t-44 -18h-77q-26 0 -44 18t-18 43v228q0 25 18 43t44 18h77q26 0 44 -18t18 -43v-228zM165 624q0 7 -5.5 12.5t-12.5 5.5h-32q-7 0 -13 -5.5t-6 -12.5v-197q0 -8 5.5 -14t13.5 -6h32q7 0 12.5 6t5.5 14v197zM97 0l304 700h61l-304 -700h-61z
M530 61q0 -25 -18 -43t-44 -18h-77q-26 0 -44 18t-18 43v228q0 25 18 43t44 18h77q26 0 44 -18t18 -43v-228zM464 274q0 7 -5.5 12.5t-12.5 5.5h-32q-7 0 -13 -5.5t-6 -12.5v-197q0 -8 5.5 -14t13.5 -6h32q7 0 12.5 6t5.5 14v197z" />
    <glyph glyph-name="perthousand.tall" unicode="&#xe046;" horiz-adv-x="810" 
d="M780 61q0 -25 -18 -43t-44 -18h-77q-26 0 -44 18t-18 43v228q0 25 18 43t44 18h77q26 0 44 -18t18 -43v-228zM714 274q0 7 -5.5 12.5t-12.5 5.5h-32q-7 0 -13 -5.5t-6 -12.5v-197q0 -8 5.5 -14t13.5 -6h32q7 0 12.5 6t5.5 14v197zM231 411q0 -25 -18 -43t-44 -18h-77
q-26 0 -44 18t-18 43v228q0 25 18 43t44 18h77q26 0 44 -18t18 -43v-228zM165 624q0 7 -5.5 12.5t-12.5 5.5h-32q-7 0 -13 -5.5t-6 -12.5v-197q0 -8 5.5 -14t13.5 -6h32q7 0 12.5 6t5.5 14v197zM97 0l304 700h61l-304 -700h-61zM530 61q0 -25 -18 -43t-44 -18h-77
q-26 0 -44 18t-18 43v228q0 25 18 43t44 18h77q26 0 44 -18t18 -43v-228zM464 274q0 7 -5.5 12.5t-12.5 5.5h-32q-7 0 -13 -5.5t-6 -12.5v-197q0 -8 5.5 -14t13.5 -6h32q7 0 12.5 6t5.5 14v197z" />
    <glyph glyph-name="degree.tall" unicode="&#xe047;" horiz-adv-x="280" 
d="M250 625v-150q0 -31 -22 -53t-53 -22h-70q-31 0 -53 22t-22 53v150q0 31 22 53t53 22h70q31 0 53 -22t22 -53zM184 624q0 7 -5.5 12.5t-12.5 5.5h-51q-7 0 -13 -5.5t-6 -12.5v-147q0 -8 5.5 -14t13.5 -6h51q7 0 12.5 6t5.5 14v147z" />
    <glyph glyph-name="zeroinferior.tall" unicode="&#xe048;" horiz-adv-x="260" 
d="M231 -14q0 -25 -18 -43t-44 -18h-77q-26 0 -44 18t-18 43v228q0 25 18 43t44 18h77q26 0 44 -18t18 -43v-228zM165 199q0 7 -5.5 12.5t-12.5 5.5h-32q-7 0 -13 -5.5t-6 -12.5v-197q0 -8 5.5 -14t13.5 -6h32q7 0 12.5 6t5.5 14v197z" />
    <glyph glyph-name="oneinferior.tall" unicode="&#xe049;" horiz-adv-x="190" 
d="M140 -75h-66v290h-44v60h110v-350z" />
    <glyph glyph-name="twoinferior.tall" unicode="&#xe04a;" horiz-adv-x="260" 
d="M165 199q0 7 -5.5 12.5t-12.5 5.5h-32q-7 0 -13 -5.5t-6 -12.5v-46h-66v61q0 25 18 43t44 18h77q26 0 44 -18t18 -43v-71q0 -52 -60 -82l-62 -32q-13 -7 -13 -26v-19h135v-59h-201v87q0 52 61 83l61 31q13 8 13 25v48z" />
    <glyph glyph-name="threeinferior.tall" unicode="&#xe04b;" horiz-adv-x="260" 
d="M96 13v-13q0 -7 6 -12.5t13 -5.5h38q7 0 12.5 5.5t5.5 12.5v51q0 11 -7.5 18.5t-18.5 7.5h-57v58h66q11 0 11 11v53q0 7 -5.5 12.5t-12.5 5.5h-32q-7 0 -13 -5.5t-6 -12.5v-18h-66v33q0 25 18 43t44 18h77q26 0 44 -18t18 -43v-46q0 -23 -13 -39.5t-31 -19.5v-3
q18 -1 34 -18.5t16 -41.5v-60q0 -25 -18 -43t-44 -18h-83q-26 0 -44 18t-18 43v27h66z" />
    <glyph glyph-name="fourinferior.tall" unicode="&#xe04c;" horiz-adv-x="260" 
d="M193 275v-225h53v-58h-53v-67h-67v67h-122v48l123 235h66zM126 189l-72 -139h72v139z" />
    <glyph glyph-name="fiveinferior.tall" unicode="&#xe04d;" horiz-adv-x="260" 
d="M96 2q0 -8 5.5 -14t13.5 -6h32q7 0 12.5 6t5.5 14v79q0 9 -11 9h-47q-11 0 -11 -13h-66v198h195v-60h-134v-76q11 11 25 11h53q26 0 44 -18t18 -43v-103q0 -25 -18 -43t-44 -18h-77q-26 0 -44 18t-18 43v27h66v-11z" />
    <glyph glyph-name="sixinferior.tall" unicode="&#xe04e;" horiz-adv-x="260" 
d="M165 181v18q0 7 -5.5 12.5t-12.5 5.5h-32q-7 0 -13 -5.5t-6 -12.5v-66q16 14 30 14h43q25 0 43.5 -18.5t18.5 -43.5v-99q0 -25 -18 -43t-44 -18h-77q-26 0 -44 18t-18 43v228q0 25 18 43t44 18h77q26 0 44 -18t18 -43v-33h-66zM165 69q0 7 -5.5 12.5t-12.5 5.5h-32
q-7 0 -13 -5.5t-6 -12.5v-67q0 -8 5.5 -14t13.5 -6h32q7 0 12.5 6t5.5 14v67z" />
    <glyph glyph-name="seveninferior.tall" unicode="&#xe04f;" horiz-adv-x="260" 
d="M172 82l-5 -5q-6 -6 -14.5 -20.5t-8.5 -22.5v-109h-67v114q0 14 7.5 30.5t13.5 24.5t22 26.5t17 19.5l5 6q23 29 23 44v25h-129v60h195v-94q0 -19 -11 -39.5t-20.5 -31t-27.5 -28.5z" />
    <glyph glyph-name="eightinferior.tall" unicode="&#xe050;" horiz-adv-x="260" 
d="M27 -14v60q0 24 16 41.5t34 18.5v3q-18 3 -32.5 20t-14.5 39v46q0 25 18 43t44 18h77q26 0 44 -18t18 -43v-46q0 -22 -14.5 -39t-32.5 -20v-3q18 -1 34 -18.5t16 -41.5v-60q0 -25 -18 -43t-44 -18h-82q-26 0 -44.5 18t-18.5 43zM165 199q0 7 -5.5 12.5t-12.5 5.5h-32
q-7 0 -13 -5.5t-6 -12.5v-46q0 -8 5.5 -14t13.5 -6h32q7 0 12.5 6t5.5 14v46zM168 61q0 7 -5.5 12.5t-12.5 5.5h-37q-7 0 -13 -5.5t-6 -12.5v-59q0 -8 5.5 -14t13.5 -6h37q7 0 12.5 6t5.5 14v59z" />
    <glyph glyph-name="nineinferior.tall" unicode="&#xe051;" horiz-adv-x="260" 
d="M231 -14q0 -25 -18 -43t-44 -18h-77q-26 0 -44 18t-18 43v27h66v-18q0 -11 11 -11h47q11 0 11 11v71q-15 -13 -30 -13h-43q-26 0 -44 18.5t-18 43.5v99q0 25 18 43t44 18h77q26 0 44 -18t18 -43v-228zM165 199q0 7 -5.5 12.5t-12.5 5.5h-32q-7 0 -13 -5.5t-6 -12.5v-67
q0 -8 5.5 -14t13.5 -6h32q7 0 12.5 6t5.5 14v67z" />
    <glyph glyph-name="zerosuperior.tall" unicode="&#xe052;" horiz-adv-x="260" 
d="M231 411q0 -25 -18 -43t-44 -18h-77q-26 0 -44 18t-18 43v228q0 25 18 43t44 18h77q26 0 44 -18t18 -43v-228zM165 624q0 7 -5.5 12.5t-12.5 5.5h-32q-7 0 -13 -5.5t-6 -12.5v-197q0 -8 5.5 -14t13.5 -6h32q7 0 12.5 6t5.5 14v197z" />
    <glyph glyph-name="onesuperior.tall" unicode="&#xe053;" horiz-adv-x="190" 
d="M140 350h-66v290h-44v60h110v-350z" />
    <glyph glyph-name="twosuperior.tall" unicode="&#xe054;" horiz-adv-x="260" 
d="M165 624q0 7 -5.5 12.5t-12.5 5.5h-32q-7 0 -13 -5.5t-6 -12.5v-46h-66v61q0 25 18 43t44 18h77q26 0 44 -18t18 -43v-71q0 -52 -60 -82l-62 -32q-13 -6 -13 -26v-19h135v-59h-201v87q0 53 61 83l61 31q13 8 13 25v48z" />
    <glyph glyph-name="threesuperior.tall" unicode="&#xe055;" horiz-adv-x="260" 
d="M96 438v-13q0 -7 6 -12.5t13 -5.5h38q7 0 12.5 5.5t5.5 12.5v51q0 10 -7.5 18t-18.5 8h-57v58h66q11 0 11 11v53q0 7 -5.5 12.5t-12.5 5.5h-32q-7 0 -13 -5.5t-6 -12.5v-18h-66v33q0 25 18 43t44 18h77q26 0 44 -18t18 -43v-46q0 -23 -13 -39.5t-31 -19.5v-3
q18 -1 34 -18.5t16 -41.5v-60q0 -25 -18 -43t-44 -18h-83q-26 0 -44 18t-18 43v27h66z" />
    <glyph glyph-name="foursuperior.tall" unicode="&#xe056;" horiz-adv-x="260" 
d="M193 700v-225h53v-58h-53v-67h-67v67h-122v48l123 235h66zM126 614l-72 -139h72v139z" />
    <glyph glyph-name="fivesuperior.tall" unicode="&#xe057;" horiz-adv-x="260" 
d="M96 427q0 -8 5.5 -14t13.5 -6h32q7 0 12.5 6t5.5 14v79q0 9 -11 9h-47q-11 0 -11 -13h-66v198h195v-60h-134v-76q11 11 25 11h53q26 0 44 -18t18 -43v-103q0 -25 -18 -43t-44 -18h-77q-26 0 -44 18t-18 43v27h66v-11z" />
    <glyph glyph-name="sixsuperior.tall" unicode="&#xe058;" horiz-adv-x="260" 
d="M165 606v18q0 7 -5.5 12.5t-12.5 5.5h-32q-7 0 -13 -5.5t-6 -12.5v-66q16 14 30 14h43q25 0 43.5 -18t18.5 -44v-99q0 -25 -18 -43t-44 -18h-77q-26 0 -44 18t-18 43v228q0 25 18 43t44 18h77q26 0 44 -18t18 -43v-33h-66zM165 494q0 7 -5.5 12.5t-12.5 5.5h-32
q-7 0 -13 -5.5t-6 -12.5v-67q0 -8 5.5 -14t13.5 -6h32q7 0 12.5 6t5.5 14v67z" />
    <glyph glyph-name="sevensuperior.tall" unicode="&#xe059;" horiz-adv-x="260" 
d="M172 507l-5 -5q-6 -6 -14.5 -20.5t-8.5 -22.5v-109h-67v114q0 14 7.5 30.5t13.5 24.5t22 26.5t17 19.5l5 6q23 29 23 44v25h-129v60h195v-94q0 -19 -11 -39.5t-20.5 -31t-27.5 -28.5z" />
    <glyph glyph-name="eightsuperior.tall" unicode="&#xe05a;" horiz-adv-x="260" 
d="M27 411v60q0 24 16 41.5t34 18.5v3q-18 3 -32.5 20t-14.5 39v46q0 25 18 43t44 18h77q26 0 44 -18t18 -43v-46q0 -22 -14.5 -39t-32.5 -20v-3q18 -1 34 -18.5t16 -41.5v-60q0 -25 -18 -43t-44 -18h-82q-26 0 -44.5 18t-18.5 43zM165 624q0 7 -5.5 12.5t-12.5 5.5h-32
q-7 0 -13 -5.5t-6 -12.5v-46q0 -8 5.5 -14t13.5 -6h32q7 0 12.5 6t5.5 14v46zM168 486q0 7 -5.5 12.5t-12.5 5.5h-37q-7 0 -13 -5.5t-6 -12.5v-59q0 -8 5.5 -14t13.5 -6h37q7 0 12.5 6t5.5 14v59z" />
    <glyph glyph-name="ninesuperior.tall" unicode="&#xe05b;" horiz-adv-x="260" 
d="M231 411q0 -25 -18 -43t-44 -18h-77q-26 0 -44 18t-18 43v27h66v-18q0 -11 11 -11h47q11 0 11 11v71q-15 -13 -30 -13h-43q-26 0 -44 18t-18 44v99q0 25 18 43t44 18h77q26 0 44 -18t18 -43v-228zM165 624q0 7 -5.5 12.5t-12.5 5.5h-32q-7 0 -13 -5.5t-6 -12.5v-67
q0 -8 5.5 -14t13.5 -6h32q7 0 12.5 6t5.5 14v67z" />
    <glyph glyph-name="onequarter.tall" unicode="&#xe05c;" horiz-adv-x="575" 
d="M150 350h-66v290h-44v60h110v-350zM88 0l304 700h61l-304 -700h-61zM483 350v-225h53v-58h-53v-67h-67v67h-122v48l123 235h66zM416 264l-72 -139h72v139z" />
    <glyph glyph-name="onehalf.tall" unicode="&#xe05d;" horiz-adv-x="600" 
d="M152 350h-66v290h-44v60h110v-350zM84 0l304 700h61l-304 -700h-61zM495 274q0 7 -5.5 12.5t-12.5 5.5h-32q-7 0 -13 -5.5t-6 -12.5v-46h-66v61q0 25 18 43t44 18h77q26 0 44 -18t18 -43v-71q0 -52 -60 -82l-62 -32q-13 -6 -13 -26v-19h135v-59h-201v87q0 53 61 83l61 31
q13 8 13 25v48z" />
    <glyph glyph-name="threequarters.tall" unicode="&#xe05e;" horiz-adv-x="650" 
d="M111 438v-13q0 -7 6 -12.5t13 -5.5h38q7 0 12.5 5.5t5.5 12.5v51q0 10 -8 18t-18 8h-57v58h66q11 0 11 11v53q0 7 -5.5 12.5t-12.5 5.5h-32q-7 0 -13 -5.5t-6 -12.5v-18h-66v33q0 25 18 43t44 18h77q26 0 44 -18t18 -43v-46q0 -23 -13 -39.5t-31 -19.5v-3q18 -1 34 -18.5
t16 -41.5v-60q0 -25 -18 -43t-44 -18h-83q-26 0 -44 18t-18 43v27h66zM163 0l304 700h61l-304 -700h-61zM558 350v-225h53v-58h-53v-67h-67v67h-122v48l123 235h66zM491 264l-72 -139h72v139z" />
    <glyph glyph-name="fraction.tall" unicode="&#xe05f;" horiz-adv-x="140" 
d="M-96 0l304 700h61l-304 -700h-61z" />
    <glyph glyph-name="franc.tall" unicode="&#xe060;" 
d="M207 108v-108h-100v108h-65v72h65v520h250v-90h-150v-205h122v-90h-122v-135h87v-72h-87z" />
    <glyph glyph-name="lira.tall" unicode="&#xe061;" 
d="M170 266v-176h200v-90h-300v266h-70v40h70v40h-70v40h70v214q0 41 29.5 70.5t70.5 29.5h100q41 0 70.5 -29.5t29.5 -70.5v-100h-100v85q0 10 -7.5 17.5t-17.5 7.5h-50q-10 0 -17.5 -7.5t-7.5 -17.5q0 -199 2 -199v0v0h1v0h1v0h1h1h1h1h1h1h1h1h1h1h1h1h1h1h1h1h1h1h1h1h1
h2h1h1h1h1h1h1h2h1h1h1h1h2h1h1h2h1h1h1h2h1h2h1h1h2h1h2h1h2h1h2h1h2h1h2h1h2h1h2h1h2h2h1h2h1h2h2h1h2h2h1h2h2h2h1h2h2h2h1h2h2h2h2h1h10v-40h-130v-40h130v-40h-130z" />
    <glyph glyph-name="peso.tall" unicode="&#xe062;" 
d="M263 491h-110v-86h85q10 0 17.5 7.5t7.5 17.5v61zM153 531h110v54q0 10 -7.5 17.5t-17.5 7.5h-85v-79zM53 531v169h210q41 0 70.5 -29.5t29.5 -70.5v-69h37v-40h-37v-76q0 -41 -29.5 -70.5t-70.5 -29.5h-110v-315h-100v491h-53v40h53z" />
    <glyph glyph-name="peseta.tall" unicode="&#xe063;" horiz-adv-x="724" 
d="M260 423q10 0 17.5 7.5t7.5 17.5v137q0 10 -7.5 17.5t-17.5 7.5h-85v-187h85zM615 75q0 -11 -11 -11h-52q-11 0 -11 11v26h-72v-36q0 -26 20 -45.5t48 -19.5h82q28 0 48.5 19.5t20.5 45.5v73q0 26 -20.5 46t-48.5 20h-67q-4 0 -7.5 3.5t-3.5 7.5v43q0 4 3.5 7.5t7.5 3.5
h52q11 0 11 -11v-26h73v35q0 26 -20.5 46t-48.5 20h-82q-28 0 -48 -20t-20 -46v-73q0 -26 20 -45.5t48 -19.5h67q11 0 11 -11v-43zM353 360v-27h79v-66h-74v-191q0 -12 12 -12h62v-64h-79q-28 0 -48 20t-20 46v267h-110v-333h-100v700h210q41 0 70.5 -29.5t29.5 -70.5v-167
q0 -43 -32 -73z" />
    <glyph glyph-name="rupiah.tall" unicode="&#xe064;" horiz-adv-x="816" 
d="M260 406q10 0 17.5 7.5t7.5 17.5v154q0 10 -7.5 17.5t-17.5 7.5h-85v-204h85zM654 385q0 10 -7.5 17.5t-17.5 7.5h-50q-10 0 -17.5 -7.5t-7.5 -17.5v-270q0 -10 7.5 -17.5t17.5 -7.5h50q10 0 17.5 7.5t7.5 17.5v270zM454 40q-4 -17 -20 -28.5t-30 -11.5h-30
q-70 0 -92 100l-57 216h-50v-316h-100v700h210q41 0 70.5 -29.5t29.5 -70.5v-168q0 -35 -19 -59.5t-46 -32.5l62 -225q5 -25 25 -25h47v410h90v-40q4 17 20 28.5t30 11.5h60q41 0 70.5 -29.5t29.5 -70.5v-300q0 -41 -29.5 -70.5t-70.5 -29.5h-50q-14 0 -30 11.5t-20 28.5
v-240h-100v240z" />
    <glyph glyph-name="N.alt01" unicode="&#xe065;" horiz-adv-x="438" 
d="M374 0h-100v585q0 10 -7.5 17.5t-17.5 7.5h-60q-10 0 -17.5 -7.5t-7.5 -17.5v-585h-100v600q0 41 29.5 70.5t70.5 29.5h110q41 0 70.5 -29.5t29.5 -70.5v-600z" />
    <glyph glyph-name="Eacute.alt01" unicode="&#xe066;" horiz-adv-x="396" 
d="M262 0h-110q-41 0 -70.5 29.5t-29.5 70.5v163q0 40 26 68t60 30v5q-33 5 -54.5 32t-21.5 63v139q0 41 29.5 70.5t70.5 29.5h100q41 0 70.5 -29.5t29.5 -70.5v-100h-100v85q0 10 -7.5 17.5t-17.5 7.5h-50q-10 0 -17.5 -7.5t-7.5 -17.5v-155q0 -10 7.5 -17.5t17.5 -7.5h104
v-90h-89q-20 0 -35 -15.5t-15 -34.5v-150q0 -10 7.5 -17.5t17.5 -7.5h60q10 0 17.5 7.5t7.5 17.5v85h100v-100q0 -41 -29.5 -70.5t-70.5 -29.5zM241 880h100l-97 -142h-83z" />
    <glyph glyph-name="Egrave.alt01" unicode="&#xe067;" horiz-adv-x="396" 
d="M262 0h-110q-41 0 -70.5 29.5t-29.5 70.5v163q0 40 26 68t60 30v5q-33 5 -54.5 32t-21.5 63v139q0 41 29.5 70.5t70.5 29.5h100q41 0 70.5 -29.5t29.5 -70.5v-100h-100v85q0 10 -7.5 17.5t-17.5 7.5h-50q-10 0 -17.5 -7.5t-7.5 -17.5v-155q0 -10 7.5 -17.5t17.5 -7.5h104
v-90h-89q-20 0 -35 -15.5t-15 -34.5v-150q0 -10 7.5 -17.5t17.5 -7.5h60q10 0 17.5 7.5t7.5 17.5v85h100v-100q0 -41 -29.5 -70.5t-70.5 -29.5zM183 880l80 -142h-83l-97 142h100z" />
    <glyph glyph-name="Ecircumflex.alt01" unicode="&#xe068;" horiz-adv-x="396" 
d="M262 0h-110q-41 0 -70.5 29.5t-29.5 70.5v163q0 40 26 68t60 30v5q-33 5 -54.5 32t-21.5 63v139q0 41 29.5 70.5t70.5 29.5h100q41 0 70.5 -29.5t29.5 -70.5v-100h-100v85q0 10 -7.5 17.5t-17.5 7.5h-50q-10 0 -17.5 -7.5t-7.5 -17.5v-155q0 -10 7.5 -17.5t17.5 -7.5h104
v-90h-89q-20 0 -35 -15.5t-15 -34.5v-150q0 -10 7.5 -17.5t17.5 -7.5h60q10 0 17.5 7.5t7.5 17.5v85h100v-100q0 -41 -29.5 -70.5t-70.5 -29.5zM352 738h-90l-50 81l-50 -81h-90l103 142h74z" />
    <glyph glyph-name="Edieresis.alt01" unicode="&#xe069;" horiz-adv-x="396" 
d="M262 0h-110q-41 0 -70.5 29.5t-29.5 70.5v163q0 40 26 68t60 30v5q-33 5 -54.5 32t-21.5 63v139q0 41 29.5 70.5t70.5 29.5h100q41 0 70.5 -29.5t29.5 -70.5v-100h-100v85q0 10 -7.5 17.5t-17.5 7.5h-50q-10 0 -17.5 -7.5t-7.5 -17.5v-155q0 -10 7.5 -17.5t17.5 -7.5h104
v-90h-89q-20 0 -35 -15.5t-15 -34.5v-150q0 -10 7.5 -17.5t17.5 -7.5h60q10 0 17.5 7.5t7.5 17.5v85h100v-100q0 -41 -29.5 -70.5t-70.5 -29.5zM337 738h-100v100h100v-100zM187 738h-100v100h100v-100z" />
    <glyph glyph-name="Ecaron.alt01" unicode="&#xe06a;" horiz-adv-x="396" 
d="M262 0h-110q-41 0 -70.5 29.5t-29.5 70.5v163q0 40 26 68t60 30v5q-33 5 -54.5 32t-21.5 63v139q0 41 29.5 70.5t70.5 29.5h100q41 0 70.5 -29.5t29.5 -70.5v-100h-100v85q0 10 -7.5 17.5t-17.5 7.5h-50q-10 0 -17.5 -7.5t-7.5 -17.5v-155q0 -10 7.5 -17.5t17.5 -7.5h104
v-90h-89q-20 0 -35 -15.5t-15 -34.5v-150q0 -10 7.5 -17.5t17.5 -7.5h60q10 0 17.5 7.5t7.5 17.5v85h100v-100q0 -41 -29.5 -70.5t-70.5 -29.5zM352 880l-103 -142h-74l-103 142h90l50 -81l50 81h90z" />
    <glyph glyph-name="Edotaccent.alt01" unicode="&#xe06b;" horiz-adv-x="396" 
d="M262 0h-110q-41 0 -70.5 29.5t-29.5 70.5v163q0 40 26 68t60 30v5q-33 5 -54.5 32t-21.5 63v139q0 41 29.5 70.5t70.5 29.5h100q41 0 70.5 -29.5t29.5 -70.5v-100h-100v85q0 10 -7.5 17.5t-17.5 7.5h-50q-10 0 -17.5 -7.5t-7.5 -17.5v-155q0 -10 7.5 -17.5t17.5 -7.5h104
v-90h-89q-20 0 -35 -15.5t-15 -34.5v-150q0 -10 7.5 -17.5t17.5 -7.5h60q10 0 17.5 7.5t7.5 17.5v85h100v-100q0 -41 -29.5 -70.5t-70.5 -29.5zM262 738h-100v100h100v-100z" />
    <glyph glyph-name="Emacron.alt01" unicode="&#xe06c;" horiz-adv-x="396" 
d="M262 0h-110q-41 0 -70.5 29.5t-29.5 70.5v163q0 40 26 68t60 30v5q-33 5 -54.5 32t-21.5 63v139q0 41 29.5 70.5t70.5 29.5h100q41 0 70.5 -29.5t29.5 -70.5v-100h-100v85q0 10 -7.5 17.5t-17.5 7.5h-50q-10 0 -17.5 -7.5t-7.5 -17.5v-155q0 -10 7.5 -17.5t17.5 -7.5h104
v-90h-89q-20 0 -35 -15.5t-15 -34.5v-150q0 -10 7.5 -17.5t17.5 -7.5h60q10 0 17.5 7.5t7.5 17.5v85h100v-100q0 -41 -29.5 -70.5t-70.5 -29.5zM88 738v82h248v-82h-248z" />
    <glyph glyph-name="Eogonek.alt01" unicode="&#xe06d;" horiz-adv-x="396" 
d="M362 100q0 -30 -16.5 -55t-43.5 -37l63 -108l-77 -45l-70 121l40 24h-106q-41 0 -70.5 29.5t-29.5 70.5v163q0 40 26 68t60 30v5q-33 5 -54.5 32t-21.5 63v139q0 41 29.5 70.5t70.5 29.5h100q41 0 70.5 -29.5t29.5 -70.5v-100h-100v85q0 10 -7.5 17.5t-17.5 7.5h-50
q-10 0 -17.5 -7.5t-7.5 -17.5v-155q0 -10 7.5 -17.5t17.5 -7.5h104v-90h-89q-20 0 -35 -15.5t-15 -34.5v-150q0 -10 7.5 -17.5t17.5 -7.5h60q10 0 17.5 7.5t7.5 17.5v85h100v-100z" />
    <glyph glyph-name="Eacute.alt02" unicode="&#xe06e;" horiz-adv-x="354" 
d="M72 315h-50v90h50v195q0 41 29.5 70.5t70.5 29.5h150v-90h-125q-10 0 -17.5 -7.5t-7.5 -17.5v-180h122v-90h-122v-200q0 -10 7.5 -17.5t17.5 -7.5h125v-90h-150q-41 0 -70.5 29.5t-29.5 70.5v215zM244 880h100l-97 -142h-83z" />
    <glyph glyph-name="Egrave.alt02" unicode="&#xe06f;" horiz-adv-x="354" 
d="M72 315h-50v90h50v195q0 41 29.5 70.5t70.5 29.5h150v-90h-125q-10 0 -17.5 -7.5t-7.5 -17.5v-180h122v-90h-122v-200q0 -10 7.5 -17.5t17.5 -7.5h125v-90h-150q-41 0 -70.5 29.5t-29.5 70.5v215zM185 880l80 -142h-83l-97 142h100z" />
    <glyph glyph-name="Ecircumflex.alt02" unicode="&#xe070;" horiz-adv-x="354" 
d="M72 315h-50v90h50v195q0 41 29.5 70.5t70.5 29.5h150v-90h-125q-10 0 -17.5 -7.5t-7.5 -17.5v-180h122v-90h-122v-200q0 -10 7.5 -17.5t17.5 -7.5h125v-90h-150q-41 0 -70.5 29.5t-29.5 70.5v215zM350 738h-90l-50 81l-50 -81h-90l103 142h74z" />
    <glyph glyph-name="Edieresis.alt02" unicode="&#xe071;" horiz-adv-x="354" 
d="M72 315h-50v90h50v195q0 41 29.5 70.5t70.5 29.5h150v-90h-125q-10 0 -17.5 -7.5t-7.5 -17.5v-180h122v-90h-122v-200q0 -10 7.5 -17.5t17.5 -7.5h125v-90h-150q-41 0 -70.5 29.5t-29.5 70.5v215zM335 738h-100v100h100v-100zM185 738h-100v100h100v-100z" />
    <glyph glyph-name="Ecaron.alt02" unicode="&#xe072;" horiz-adv-x="354" 
d="M72 315h-50v90h50v195q0 41 29.5 70.5t70.5 29.5h150v-90h-125q-10 0 -17.5 -7.5t-7.5 -17.5v-180h122v-90h-122v-200q0 -10 7.5 -17.5t17.5 -7.5h125v-90h-150q-41 0 -70.5 29.5t-29.5 70.5v215zM350 880l-103 -142h-74l-103 142h90l50 -81l50 81h90z" />
    <glyph glyph-name="Edotaccent.alt02" unicode="&#xe073;" horiz-adv-x="354" 
d="M72 315h-50v90h50v195q0 41 29.5 70.5t70.5 29.5h150v-90h-125q-10 0 -17.5 -7.5t-7.5 -17.5v-180h122v-90h-122v-200q0 -10 7.5 -17.5t17.5 -7.5h125v-90h-150q-41 0 -70.5 29.5t-29.5 70.5v215zM270 738h-100v100h100v-100z" />
    <glyph glyph-name="Emacron.alt02" unicode="&#xe074;" horiz-adv-x="354" 
d="M72 315h-50v90h50v195q0 41 29.5 70.5t70.5 29.5h150v-90h-125q-10 0 -17.5 -7.5t-7.5 -17.5v-180h122v-90h-122v-200q0 -10 7.5 -17.5t17.5 -7.5h125v-90h-150q-41 0 -70.5 29.5t-29.5 70.5v215zM85 738v82h248v-82h-248z" />
    <glyph glyph-name="Eogonek.alt02" unicode="&#xe075;" horiz-adv-x="354" 
d="M72 315h-50v90h50v195q0 41 29.5 70.5t70.5 29.5h150v-90h-125q-10 0 -17.5 -7.5t-7.5 -17.5v-180h122v-90h-122v-200q0 -10 7.5 -17.5t17.5 -7.5h125v-90h-21l58 -100l-77 -45l-70 121l40 24h-80q-41 0 -70.5 29.5t-29.5 70.5v215z" />
    <glyph glyph-name="Lacute.alt01" unicode="&#xe076;" horiz-adv-x="323" 
d="M318 90v-90h-150q-41 0 -70.5 29.5t-29.5 70.5v600h100v-585q0 -10 7.5 -17.5t17.5 -7.5h125zM152 880h100l-97 -142h-83z" />
    <glyph glyph-name="Lcaron.alt01" unicode="&#xe077;" horiz-adv-x="333" 
d="M318 90v-90h-150q-41 0 -70.5 29.5t-29.5 70.5v600h100v-585q0 -10 7.5 -17.5t17.5 -7.5h125zM313 700v-173l-90 -53v226h90z" />
    <glyph glyph-name="Lcommaaccent.alt01" unicode="&#xe078;" horiz-adv-x="323" 
d="M318 90v-90h-150q-41 0 -70.5 29.5t-29.5 70.5v600h100v-585q0 -10 7.5 -17.5t17.5 -7.5h125zM239 -38v-173l-90 -53v226h90z" />
    <glyph glyph-name="Lslash.alt01" unicode="&#xe079;" horiz-adv-x="335" 
d="M175 700v-262l80 32v-89l-80 -32v-234q0 -10 7.5 -17.5t17.5 -7.5h125v-90h-150q-41 0 -70.5 29.5t-29.5 70.5v209l-70 -28v89l70 28v302h100z" />
    <glyph glyph-name="Ntilde.alt01" unicode="&#xe07a;" horiz-adv-x="438" 
d="M374 0h-100v585q0 10 -7.5 17.5t-17.5 7.5h-60q-10 0 -17.5 -7.5t-7.5 -17.5v-585h-100v600q0 41 29.5 70.5t70.5 29.5h110q41 0 70.5 -29.5t29.5 -70.5v-600zM208 765q-28 14 -34 14q-14 0 -44 -41l-64 38q29 49 53 68t54 19q21 0 45 -12l12 -6q28 -14 34 -14
q14 0 44 41l64 -38q-29 -49 -53 -68t-54 -19q-21 0 -45 12z" />
    <glyph glyph-name="Nacute.alt01" unicode="&#xe07b;" horiz-adv-x="438" 
d="M374 0h-100v585q0 10 -7.5 17.5t-17.5 7.5h-60q-10 0 -17.5 -7.5t-7.5 -17.5v-585h-100v600q0 41 29.5 70.5t70.5 29.5h110q41 0 70.5 -29.5t29.5 -70.5v-600zM250 880h100l-97 -142h-83z" />
    <glyph glyph-name="Ncaron.alt01" unicode="&#xe07c;" horiz-adv-x="438" 
d="M374 0h-100v585q0 10 -7.5 17.5t-17.5 7.5h-60q-10 0 -17.5 -7.5t-7.5 -17.5v-585h-100v600q0 41 29.5 70.5t70.5 29.5h110q41 0 70.5 -29.5t29.5 -70.5v-600zM359 880l-103 -142h-74l-103 142h90l50 -81l50 81h90z" />
    <glyph glyph-name="Ncommaaccent.alt01" unicode="&#xe07d;" horiz-adv-x="438" 
d="M374 0h-100v585q0 10 -7.5 17.5t-17.5 7.5h-60q-10 0 -17.5 -7.5t-7.5 -17.5v-585h-100v600q0 41 29.5 70.5t70.5 29.5h110q41 0 70.5 -29.5t29.5 -70.5v-600zM264 -38v-173l-90 -53v226h90z" />
    <glyph glyph-name="Esmall.alt01" unicode="&#xe07e;" horiz-adv-x="396" 
d="M262 0h-110q-41 0 -70.5 29.5t-29.5 70.5v113q0 40 26 68t60 30v5q-33 5 -54.5 32t-21.5 63v89q0 41 29.5 70.5t70.5 29.5h100q41 0 70.5 -29.5t29.5 -70.5v-75h-100v60q0 10 -7.5 17.5t-17.5 7.5h-50q-10 0 -17.5 -7.5t-7.5 -17.5v-105q0 -10 7.5 -17.5t17.5 -7.5h104
v-90h-89q-20 0 -35 -15.5t-15 -34.5v-100q0 -10 7.5 -17.5t17.5 -7.5h60q10 0 17.5 7.5t7.5 17.5v60h100v-75q0 -41 -29.5 -70.5t-70.5 -29.5z" />
    <glyph glyph-name="Esmall.alt02" unicode="&#xe07f;" horiz-adv-x="354" 
d="M72 265h-50v90h50v145q0 41 29.5 70.5t70.5 29.5h150v-90h-125q-10 0 -17.5 -7.5t-7.5 -17.5v-130h122v-90h-122v-150q0 -10 7.5 -17.5t17.5 -7.5h125v-90h-150q-41 0 -70.5 29.5t-29.5 70.5v165z" />
    <glyph glyph-name="Fsmall.alt01" unicode="&#xe080;" horiz-adv-x="344" 
d="M176 0h-100v265h-50v90h50v145q0 41 29.5 70.5t70.5 29.5h150v-90h-125q-10 0 -17.5 -7.5t-7.5 -17.5v-130h122v-90h-122v-265z" />
    <glyph glyph-name="Lsmall.alt01" unicode="&#xe081;" horiz-adv-x="323" 
d="M318 90v-90h-150q-41 0 -70.5 29.5t-29.5 70.5v500h100v-485q0 -10 7.5 -17.5t17.5 -7.5h125z" />
    <glyph glyph-name="Msmall.alt01" unicode="&#xe082;" horiz-adv-x="633" 
d="M474 0v485q0 10 -7.5 17.5t-17.5 7.5h-55q-10 0 -17.5 -7.5t-7.5 -17.5v-485h-100v485q0 10 -7.5 17.5t-17.5 7.5h-55q-10 0 -17.5 -7.5t-7.5 -17.5v-485h-100v500q0 41 29.5 70.5t70.5 29.5h95q14 0 32.5 -11t25.5 -23q7 12 25.5 23t32.5 11h94q41 0 70.5 -29.5
t29.5 -70.5v-500h-95z" />
    <glyph glyph-name="Nsmall.alt01" unicode="&#xe083;" horiz-adv-x="438" 
d="M374 0h-100v485q0 10 -7.5 17.5t-17.5 7.5h-60q-10 0 -17.5 -7.5t-7.5 -17.5v-485h-100v500q0 41 29.5 70.5t70.5 29.5h110q41 0 70.5 -29.5t29.5 -70.5v-500z" />
    <glyph glyph-name="Eacutesmall.alt01" unicode="&#xe084;" horiz-adv-x="396" 
d="M241 780h100l-97 -142h-83zM262 0h-110q-41 0 -70.5 29.5t-29.5 70.5v113q0 40 26 68t60 30v5q-33 5 -54.5 32t-21.5 63v89q0 41 29.5 70.5t70.5 29.5h100q41 0 70.5 -29.5t29.5 -70.5v-75h-100v60q0 10 -7.5 17.5t-17.5 7.5h-50q-10 0 -17.5 -7.5t-7.5 -17.5v-105
q0 -10 7.5 -17.5t17.5 -7.5h104v-90h-89q-20 0 -35 -15.5t-15 -34.5v-100q0 -10 7.5 -17.5t17.5 -7.5h60q10 0 17.5 7.5t7.5 17.5v60h100v-75q0 -41 -29.5 -70.5t-70.5 -29.5z" />
    <glyph glyph-name="Egravesmall.alt01" unicode="&#xe085;" horiz-adv-x="396" 
d="M262 0h-110q-41 0 -70.5 29.5t-29.5 70.5v113q0 40 26 68t60 30v5q-33 5 -54.5 32t-21.5 63v89q0 41 29.5 70.5t70.5 29.5h100q41 0 70.5 -29.5t29.5 -70.5v-75h-100v60q0 10 -7.5 17.5t-17.5 7.5h-50q-10 0 -17.5 -7.5t-7.5 -17.5v-105q0 -10 7.5 -17.5t17.5 -7.5h104
v-90h-89q-20 0 -35 -15.5t-15 -34.5v-100q0 -10 7.5 -17.5t17.5 -7.5h60q10 0 17.5 7.5t7.5 17.5v60h100v-75q0 -41 -29.5 -70.5t-70.5 -29.5zM183 780l80 -142h-83l-97 142h100z" />
    <glyph glyph-name="Ecircumflexsmall.alt01" unicode="&#xe086;" horiz-adv-x="396" 
d="M262 0h-110q-41 0 -70.5 29.5t-29.5 70.5v113q0 40 26 68t60 30v5q-33 5 -54.5 32t-21.5 63v89q0 41 29.5 70.5t70.5 29.5h100q41 0 70.5 -29.5t29.5 -70.5v-75h-100v60q0 10 -7.5 17.5t-17.5 7.5h-50q-10 0 -17.5 -7.5t-7.5 -17.5v-105q0 -10 7.5 -17.5t17.5 -7.5h104
v-90h-89q-20 0 -35 -15.5t-15 -34.5v-100q0 -10 7.5 -17.5t17.5 -7.5h60q10 0 17.5 7.5t7.5 17.5v60h100v-75q0 -41 -29.5 -70.5t-70.5 -29.5zM352 638h-90l-50 81l-50 -81h-90l103 142h74z" />
    <glyph glyph-name="Edieresissmall.alt01" unicode="&#xe087;" horiz-adv-x="396" 
d="M262 0h-110q-41 0 -70.5 29.5t-29.5 70.5v113q0 40 26 68t60 30v5q-33 5 -54.5 32t-21.5 63v89q0 41 29.5 70.5t70.5 29.5h100q41 0 70.5 -29.5t29.5 -70.5v-75h-100v60q0 10 -7.5 17.5t-17.5 7.5h-50q-10 0 -17.5 -7.5t-7.5 -17.5v-105q0 -10 7.5 -17.5t17.5 -7.5h104
v-90h-89q-20 0 -35 -15.5t-15 -34.5v-100q0 -10 7.5 -17.5t17.5 -7.5h60q10 0 17.5 7.5t7.5 17.5v60h100v-75q0 -41 -29.5 -70.5t-70.5 -29.5zM337 638h-100v100h100v-100zM187 638h-100v100h100v-100z" />
    <glyph glyph-name="Ecaronsmall.alt01" unicode="&#xe088;" horiz-adv-x="396" 
d="M262 0h-110q-41 0 -70.5 29.5t-29.5 70.5v113q0 40 26 68t60 30v5q-33 5 -54.5 32t-21.5 63v89q0 41 29.5 70.5t70.5 29.5h100q41 0 70.5 -29.5t29.5 -70.5v-75h-100v60q0 10 -7.5 17.5t-17.5 7.5h-50q-10 0 -17.5 -7.5t-7.5 -17.5v-105q0 -10 7.5 -17.5t17.5 -7.5h104
v-90h-89q-20 0 -35 -15.5t-15 -34.5v-100q0 -10 7.5 -17.5t17.5 -7.5h60q10 0 17.5 7.5t7.5 17.5v60h100v-75q0 -41 -29.5 -70.5t-70.5 -29.5zM352 780l-103 -142h-74l-103 142h90l50 -81l50 81h90z" />
    <glyph glyph-name="Edotaccentsmall.alt01" unicode="&#xe089;" horiz-adv-x="396" 
d="M262 0h-110q-41 0 -70.5 29.5t-29.5 70.5v113q0 40 26 68t60 30v5q-33 5 -54.5 32t-21.5 63v89q0 41 29.5 70.5t70.5 29.5h100q41 0 70.5 -29.5t29.5 -70.5v-75h-100v60q0 10 -7.5 17.5t-17.5 7.5h-50q-10 0 -17.5 -7.5t-7.5 -17.5v-105q0 -10 7.5 -17.5t17.5 -7.5h104
v-90h-89q-20 0 -35 -15.5t-15 -34.5v-100q0 -10 7.5 -17.5t17.5 -7.5h60q10 0 17.5 7.5t7.5 17.5v60h100v-75q0 -41 -29.5 -70.5t-70.5 -29.5zM262 638h-100v100h100v-100z" />
    <glyph glyph-name="Emacronsmall.alt01" unicode="&#xe08a;" horiz-adv-x="396" 
d="M262 0h-110q-41 0 -70.5 29.5t-29.5 70.5v113q0 40 26 68t60 30v5q-33 5 -54.5 32t-21.5 63v89q0 41 29.5 70.5t70.5 29.5h100q41 0 70.5 -29.5t29.5 -70.5v-75h-100v60q0 10 -7.5 17.5t-17.5 7.5h-50q-10 0 -17.5 -7.5t-7.5 -17.5v-105q0 -10 7.5 -17.5t17.5 -7.5h104
v-90h-89q-20 0 -35 -15.5t-15 -34.5v-100q0 -10 7.5 -17.5t17.5 -7.5h60q10 0 17.5 7.5t7.5 17.5v60h100v-75q0 -41 -29.5 -70.5t-70.5 -29.5zM88 638v82h248v-82h-248z" />
    <glyph glyph-name="Eogoneksmall.alt01" unicode="&#xe08b;" horiz-adv-x="396" 
d="M362 100q0 -30 -16.5 -55t-43.5 -37l63 -108l-77 -45l-70 121l40 24h-106q-41 0 -70.5 29.5t-29.5 70.5v113q0 40 26 68t60 30v5q-33 5 -54.5 32t-21.5 63v89q0 41 29.5 70.5t70.5 29.5h100q41 0 70.5 -29.5t29.5 -70.5v-75h-100v60q0 10 -7.5 17.5t-17.5 7.5h-50
q-10 0 -17.5 -7.5t-7.5 -17.5v-105q0 -10 7.5 -17.5t17.5 -7.5h104v-90h-89q-20 0 -35 -15.5t-15 -34.5v-100q0 -10 7.5 -17.5t17.5 -7.5h60q10 0 17.5 7.5t7.5 17.5v60h100v-75z" />
    <glyph glyph-name="Eacutesmall.alt02" unicode="&#xe08c;" horiz-adv-x="354" 
d="M72 265h-50v90h50v145q0 41 29.5 70.5t70.5 29.5h150v-90h-125q-10 0 -17.5 -7.5t-7.5 -17.5v-130h122v-90h-122v-150q0 -10 7.5 -17.5t17.5 -7.5h125v-90h-150q-41 0 -70.5 29.5t-29.5 70.5v165zM244 780h100l-97 -142h-83z" />
    <glyph glyph-name="Egravesmall.alt02" unicode="&#xe08d;" horiz-adv-x="354" 
d="M72 265h-50v90h50v145q0 41 29.5 70.5t70.5 29.5h150v-90h-125q-10 0 -17.5 -7.5t-7.5 -17.5v-130h122v-90h-122v-150q0 -10 7.5 -17.5t17.5 -7.5h125v-90h-150q-41 0 -70.5 29.5t-29.5 70.5v165zM185 780l80 -142h-83l-97 142h100z" />
    <glyph glyph-name="Ecircumflexsmall.alt02" unicode="&#xe08e;" horiz-adv-x="354" 
d="M72 265h-50v90h50v145q0 41 29.5 70.5t70.5 29.5h150v-90h-125q-10 0 -17.5 -7.5t-7.5 -17.5v-130h122v-90h-122v-150q0 -10 7.5 -17.5t17.5 -7.5h125v-90h-150q-41 0 -70.5 29.5t-29.5 70.5v165zM350 638h-90l-50 81l-50 -81h-90l103 142h74z" />
    <glyph glyph-name="Edieresissmall.alt02" unicode="&#xe08f;" horiz-adv-x="354" 
d="M72 265h-50v90h50v145q0 41 29.5 70.5t70.5 29.5h150v-90h-125q-10 0 -17.5 -7.5t-7.5 -17.5v-130h122v-90h-122v-150q0 -10 7.5 -17.5t17.5 -7.5h125v-90h-150q-41 0 -70.5 29.5t-29.5 70.5v165zM335 638h-100v100h100v-100zM185 638h-100v100h100v-100z" />
    <glyph glyph-name="Ecaronsmall.alt02" unicode="&#xe090;" horiz-adv-x="354" 
d="M72 265h-50v90h50v145q0 41 29.5 70.5t70.5 29.5h150v-90h-125q-10 0 -17.5 -7.5t-7.5 -17.5v-130h122v-90h-122v-150q0 -10 7.5 -17.5t17.5 -7.5h125v-90h-150q-41 0 -70.5 29.5t-29.5 70.5v165zM350 780l-103 -142h-74l-103 142h90l50 -81l50 81h90z" />
    <glyph glyph-name="Edotaccentsmall.alt02" unicode="&#xe091;" horiz-adv-x="354" 
d="M72 265h-50v90h50v145q0 41 29.5 70.5t70.5 29.5h150v-90h-125q-10 0 -17.5 -7.5t-7.5 -17.5v-130h122v-90h-122v-150q0 -10 7.5 -17.5t17.5 -7.5h125v-90h-150q-41 0 -70.5 29.5t-29.5 70.5v165zM270 638h-100v100h100v-100z" />
    <glyph glyph-name="Emacronsmall.alt02" unicode="&#xe092;" horiz-adv-x="354" 
d="M72 265h-50v90h50v145q0 41 29.5 70.5t70.5 29.5h150v-90h-125q-10 0 -17.5 -7.5t-7.5 -17.5v-130h122v-90h-122v-150q0 -10 7.5 -17.5t17.5 -7.5h125v-90h-150q-41 0 -70.5 29.5t-29.5 70.5v165zM85 638v82h248v-82h-248z" />
    <glyph glyph-name="Eogoneksmall.alt02" unicode="&#xe093;" horiz-adv-x="354" 
d="M72 265h-50v90h50v145q0 41 29.5 70.5t70.5 29.5h150v-90h-125q-10 0 -17.5 -7.5t-7.5 -17.5v-130h122v-90h-122v-150q0 -10 7.5 -17.5t17.5 -7.5h125v-90h-21l58 -100l-77 -45l-70 121l40 24h-80q-41 0 -70.5 29.5t-29.5 70.5v165z" />
    <glyph glyph-name="Lacutesmall.alt01" unicode="&#xe094;" horiz-adv-x="323" 
d="M318 90v-90h-150q-41 0 -70.5 29.5t-29.5 70.5v500h100v-485q0 -10 7.5 -17.5t17.5 -7.5h125zM152 780h100l-97 -142h-83z" />
    <glyph glyph-name="Lcaronsmall.alt01" unicode="&#xe095;" horiz-adv-x="333" 
d="M318 90v-90h-150q-41 0 -70.5 29.5t-29.5 70.5v500h100v-485q0 -10 7.5 -17.5t17.5 -7.5h125zM313 600v-173l-90 -53v226h90z" />
    <glyph glyph-name="Lcommaaccentsmall.alt01" unicode="&#xe096;" horiz-adv-x="323" 
d="M318 90v-90h-150q-41 0 -70.5 29.5t-29.5 70.5v500h100v-485q0 -10 7.5 -17.5t17.5 -7.5h125zM239 -38v-173l-90 -53v226h90z" />
    <glyph glyph-name="Lslashsmall.alt01" unicode="&#xe097;" horiz-adv-x="335" 
d="M175 299v-184q0 -10 7.5 -17.5t17.5 -7.5h125v-90h-150q-41 0 -70.5 29.5t-29.5 70.5v159l-70 -28v89l70 28v252h100v-212l80 32v-89z" />
    <glyph glyph-name="Ntildesmall.alt01" unicode="&#xe098;" horiz-adv-x="438" 
d="M374 0h-100v485q0 10 -7.5 17.5t-17.5 7.5h-60q-10 0 -17.5 -7.5t-7.5 -17.5v-485h-100v500q0 41 29.5 70.5t70.5 29.5h110q41 0 70.5 -29.5t29.5 -70.5v-500zM208 665q-28 14 -34 14q-14 0 -44 -41l-64 38q29 49 53 68t54 19q21 0 45 -12l12 -6q28 -14 34 -14
q14 0 44 41l64 -38q-29 -49 -53 -68t-54 -19q-21 0 -45 12z" />
    <glyph glyph-name="Nacutesmall.alt01" unicode="&#xe099;" horiz-adv-x="438" 
d="M374 0h-100v485q0 10 -7.5 17.5t-17.5 7.5h-60q-10 0 -17.5 -7.5t-7.5 -17.5v-485h-100v500q0 41 29.5 70.5t70.5 29.5h110q41 0 70.5 -29.5t29.5 -70.5v-500zM250 780h100l-97 -142h-83z" />
    <glyph glyph-name="Ncaronsmall.alt01" unicode="&#xe09a;" horiz-adv-x="438" 
d="M374 0h-100v485q0 10 -7.5 17.5t-17.5 7.5h-60q-10 0 -17.5 -7.5t-7.5 -17.5v-485h-100v500q0 41 29.5 70.5t70.5 29.5h110q41 0 70.5 -29.5t29.5 -70.5v-500zM359 780l-103 -142h-74l-103 142h90l50 -81l50 81h90z" />
    <glyph glyph-name="Ncommaaccentsmall.alt01" unicode="&#xe09b;" horiz-adv-x="438" 
d="M374 0h-100v485q0 10 -7.5 17.5t-17.5 7.5h-60q-10 0 -17.5 -7.5t-7.5 -17.5v-485h-100v500q0 41 29.5 70.5t70.5 29.5h110q41 0 70.5 -29.5t29.5 -70.5v-500zM264 -38v-173l-90 -53v226h90z" />
    <glyph glyph-name="at.cap" unicode="&#xf633;" horiz-adv-x="792" 
d="M374 -59q-71 0 -128.5 22t-93.5 56t-60 78t-33 86t-8 82v77q2 77 23 145.5t62 126.5t109.5 92.5t157.5 34.5q91 0 158.5 -23.5t105.5 -64.5t56.5 -90t18.5 -106v-52q0 -73 -19.5 -127.5t-50 -82.5t-61.5 -41.5t-61 -13.5q-55 0 -81 17.5t-37 56.5l-21 -22q-1 -1 -6 -6.5
t-7.5 -7.5t-8 -7.5t-9.5 -8t-10.5 -7t-12.5 -6.5t-14 -4.5t-16.5 -3.5t-18.5 -1q-42 0 -71 34t-28 88q-1 12 3 35l19 105q11 63 52 109t105 46q58 0 88 -60l10 56h88l-54 -303q-3 -16 6 -28t30 -12q39 0 71 49t35 158v40q2 91 -64.5 149.5t-195.5 58.5q-130 0 -198.5 -91
t-70.5 -236v-68q-1 -44 12 -86.5t40 -81t76.5 -62t113.5 -23.5q90 0 129 12t65 37l14 13l64 -42l-19 -21q-68 -75 -254 -75zM324 408l-17 -83q-5 -25 -5 -42q0 -54 53 -54q31 0 53 19.5t27 50.5l15 81q4 22 4 31q0 60 -52 60q-30 0 -51.5 -18t-26.5 -45z" />
    <glyph glyph-name="zeroslash" unicode="&#xf638;" 
d="M350 500v-400q0 -41 -29.5 -70.5t-70.5 -29.5h-100q-41 0 -70.5 29.5t-29.5 70.5v400q0 41 29.5 70.5t70.5 29.5h100q41 0 70.5 -29.5t29.5 -70.5zM260 481v4q0 10 -7.5 17.5t-17.5 7.5h-70q-10 0 -17.5 -7.5t-7.5 -17.5v-169q0 -35 -9 -96zM140 122v-7q0 -10 7.5 -17.5
t17.5 -7.5h70q10 0 17.5 7.5t7.5 17.5v172q0 35 9 96z" />
    <glyph glyph-name="zerodenominator" unicode="&#xf655;" horiz-adv-x="260" 
d="M231 61q0 -25 -18 -43t-44 -18h-77q-26 0 -44 18t-18 43v228q0 25 18 43t44 18h77q26 0 44 -18t18 -43v-228zM165 274q0 7 -5.5 12.5t-12.5 5.5h-32q-7 0 -13 -5.5t-6 -12.5v-197q0 -8 5.5 -14t13.5 -6h32q7 0 12.5 6t5.5 14v197z" />
    <glyph glyph-name="onedenominator" unicode="&#xf656;" horiz-adv-x="190" 
d="M140 0h-66v290h-44v60h110v-350z" />
    <glyph glyph-name="twodenominator" unicode="&#xf657;" horiz-adv-x="260" 
d="M165 274q0 7 -5.5 12.5t-12.5 5.5h-32q-7 0 -13 -5.5t-6 -12.5v-46h-66v61q0 25 18 43t44 18h77q26 0 44 -18t18 -43v-71q0 -52 -60 -82l-62 -32q-13 -6 -13 -26v-19h135v-59h-201v87q0 53 61 83l61 31q13 8 13 25v48z" />
    <glyph glyph-name="threedenominator" unicode="&#xf658;" horiz-adv-x="260" 
d="M96 88v-13q0 -7 6 -12.5t13 -5.5h38q7 0 12.5 5.5t5.5 12.5v51q0 10 -7.5 18t-18.5 8h-57v58h66q11 0 11 11v53q0 7 -5.5 12.5t-12.5 5.5h-32q-7 0 -13 -5.5t-6 -12.5v-18h-66v33q0 25 18 43t44 18h77q26 0 44 -18t18 -43v-46q0 -23 -13 -39.5t-31 -19.5v-3
q18 -1 34 -18.5t16 -41.5v-60q0 -25 -18 -43t-44 -18h-83q-26 0 -44 18t-18 43v27h66z" />
    <glyph glyph-name="fourdenominator" unicode="&#xf659;" horiz-adv-x="260" 
d="M193 350v-225h53v-58h-53v-67h-67v67h-122v48l123 235h66zM126 264l-72 -139h72v139z" />
    <glyph glyph-name="fivedenominator" unicode="&#xf65a;" horiz-adv-x="260" 
d="M96 77q0 -8 5.5 -14t13.5 -6h32q7 0 12.5 6t5.5 14v79q0 9 -11 9h-47q-11 0 -11 -13h-66v198h195v-60h-134v-76q11 11 25 11h53q26 0 44 -18t18 -43v-103q0 -25 -18 -43t-44 -18h-77q-26 0 -44 18t-18 43v27h66v-11z" />
    <glyph glyph-name="sixdenominator" unicode="&#xf65b;" horiz-adv-x="260" 
d="M165 256v18q0 7 -5.5 12.5t-12.5 5.5h-32q-7 0 -13 -5.5t-6 -12.5v-66q16 14 30 14h43q25 0 43.5 -18t18.5 -44v-99q0 -25 -18 -43t-44 -18h-77q-26 0 -44 18t-18 43v228q0 25 18 43t44 18h77q26 0 44 -18t18 -43v-33h-66zM165 144q0 7 -5.5 12.5t-12.5 5.5h-32
q-7 0 -13 -5.5t-6 -12.5v-67q0 -8 5.5 -14t13.5 -6h32q7 0 12.5 6t5.5 14v67z" />
    <glyph glyph-name="sevendenominator" unicode="&#xf65c;" horiz-adv-x="260" 
d="M172 157l-5 -5q-6 -6 -14.5 -20.5t-8.5 -22.5v-109h-67v114q0 14 7.5 30.5t13.5 24.5t22 26.5t17 19.5l5 6q23 29 23 44v25h-129v60h195v-94q0 -19 -11 -39.5t-20.5 -31t-27.5 -28.5z" />
    <glyph glyph-name="eightdenominator" unicode="&#xf65d;" horiz-adv-x="260" 
d="M27 61v60q0 24 16 41.5t34 18.5v3q-18 3 -32.5 20t-14.5 39v46q0 25 18 43t44 18h77q26 0 44 -18t18 -43v-46q0 -22 -14.5 -39t-32.5 -20v-3q18 -1 34 -18.5t16 -41.5v-60q0 -25 -18 -43t-44 -18h-82q-26 0 -44.5 18t-18.5 43zM165 274q0 7 -5.5 12.5t-12.5 5.5h-32
q-7 0 -13 -5.5t-6 -12.5v-46q0 -8 5.5 -14t13.5 -6h32q7 0 12.5 6t5.5 14v46zM168 136q0 7 -5.5 12.5t-12.5 5.5h-37q-7 0 -13 -5.5t-6 -12.5v-59q0 -8 5.5 -14t13.5 -6h37q7 0 12.5 6t5.5 14v59z" />
    <glyph glyph-name="ninedenominator" unicode="&#xf65e;" horiz-adv-x="260" 
d="M231 61q0 -25 -18 -43t-44 -18h-77q-26 0 -44 18t-18 43v27h66v-18q0 -11 11 -11h47q11 0 11 11v71q-15 -13 -30 -13h-43q-26 0 -44 18t-18 44v99q0 25 18 43t44 18h77q26 0 44 -18t18 -43v-228zM165 274q0 7 -5.5 12.5t-12.5 5.5h-32q-7 0 -13 -5.5t-6 -12.5v-67
q0 -8 5.5 -14t13.5 -6h32q7 0 12.5 6t5.5 14v67z" />
    <glyph glyph-name="zeronumerator" unicode="&#xf661;" horiz-adv-x="260" 
d="M231 311q0 -25 -18 -43t-44 -18h-77q-26 0 -44 18t-18 43v228q0 25 18 43t44 18h77q26 0 44 -18t18 -43v-228zM165 524q0 7 -5.5 12.5t-12.5 5.5h-32q-7 0 -13 -5.5t-6 -12.5v-197q0 -8 5.5 -14t13.5 -6h32q7 0 12.5 6t5.5 14v197z" />
    <glyph glyph-name="onenumerator" unicode="&#xf662;" horiz-adv-x="190" 
d="M140 250h-66v290h-44v60h110v-350z" />
    <glyph glyph-name="twonumerator" unicode="&#xf663;" horiz-adv-x="260" 
d="M165 524q0 7 -5.5 12.5t-12.5 5.5h-32q-7 0 -13 -5.5t-6 -12.5v-46h-66v61q0 25 18 43t44 18h77q26 0 44 -18t18 -43v-71q0 -52 -60 -82l-62 -32q-13 -6 -13 -26v-19h135v-59h-201v87q0 53 61 83l61 31q13 8 13 25v48z" />
    <glyph glyph-name="threenumerator" unicode="&#xf664;" horiz-adv-x="260" 
d="M96 338v-13q0 -7 6 -12.5t13 -5.5h38q7 0 12.5 5.5t5.5 12.5v51q0 10 -7.5 18t-18.5 8h-57v58h66q11 0 11 11v53q0 7 -5.5 12.5t-12.5 5.5h-32q-7 0 -13 -5.5t-6 -12.5v-18h-66v33q0 25 18 43t44 18h77q26 0 44 -18t18 -43v-46q0 -23 -13 -39.5t-31 -19.5v-3
q18 -1 34 -18.5t16 -41.5v-60q0 -25 -18 -43t-44 -18h-83q-26 0 -44 18t-18 43v27h66z" />
    <glyph glyph-name="fournumerator" unicode="&#xf665;" horiz-adv-x="260" 
d="M193 600v-225h53v-58h-53v-67h-67v67h-122v48l123 235h66zM126 514l-72 -139h72v139z" />
    <glyph glyph-name="fivenumerator" unicode="&#xf666;" horiz-adv-x="260" 
d="M96 327q0 -8 5.5 -14t13.5 -6h32q7 0 12.5 6t5.5 14v79q0 9 -11 9h-47q-11 0 -11 -13h-66v198h195v-60h-134v-76q11 11 25 11h53q26 0 44 -18t18 -43v-103q0 -25 -18 -43t-44 -18h-77q-26 0 -44 18t-18 43v27h66v-11z" />
    <glyph glyph-name="sixnumerator" unicode="&#xf667;" horiz-adv-x="260" 
d="M165 506v18q0 7 -5.5 12.5t-12.5 5.5h-32q-7 0 -13 -5.5t-6 -12.5v-66q16 14 30 14h43q25 0 43.5 -18t18.5 -44v-99q0 -25 -18 -43t-44 -18h-77q-26 0 -44 18t-18 43v228q0 25 18 43t44 18h77q26 0 44 -18t18 -43v-33h-66zM165 394q0 7 -5.5 12.5t-12.5 5.5h-32
q-7 0 -13 -5.5t-6 -12.5v-67q0 -8 5.5 -14t13.5 -6h32q7 0 12.5 6t5.5 14v67z" />
    <glyph glyph-name="sevennumerator" unicode="&#xf668;" horiz-adv-x="260" 
d="M172 407l-5 -5q-6 -6 -14.5 -20.5t-8.5 -22.5v-109h-67v114q0 14 7.5 30.5t13.5 24.5t22 26.5t17 19.5l5 6q23 29 23 44v25h-129v60h195v-94q0 -19 -11 -39.5t-20.5 -31t-27.5 -28.5z" />
    <glyph glyph-name="eightnumerator" unicode="&#xf669;" horiz-adv-x="260" 
d="M27 311v60q0 24 16 41.5t34 18.5v3q-18 3 -32.5 20t-14.5 39v46q0 25 18 43t44 18h77q26 0 44 -18t18 -43v-46q0 -22 -14.5 -39t-32.5 -20v-3q18 -1 34 -18.5t16 -41.5v-60q0 -25 -18 -43t-44 -18h-82q-26 0 -44.5 18t-18.5 43zM165 524q0 7 -5.5 12.5t-12.5 5.5h-32
q-7 0 -13 -5.5t-6 -12.5v-46q0 -8 5.5 -14t13.5 -6h32q7 0 12.5 6t5.5 14v46zM168 386q0 7 -5.5 12.5t-12.5 5.5h-37q-7 0 -13 -5.5t-6 -12.5v-59q0 -8 5.5 -14t13.5 -6h37q7 0 12.5 6t5.5 14v59z" />
    <glyph glyph-name="ninenumerator" unicode="&#xf66a;" horiz-adv-x="260" 
d="M231 311q0 -25 -18 -43t-44 -18h-77q-26 0 -44 18t-18 43v27h66v-18q0 -11 11 -11h47q11 0 11 11v71q-15 -13 -30 -13h-43q-26 0 -44 18t-18 44v99q0 25 18 43t44 18h77q26 0 44 -18t18 -43v-228zM165 524q0 7 -5.5 12.5t-12.5 5.5h-32q-7 0 -13 -5.5t-6 -12.5v-67
q0 -8 5.5 -14t13.5 -6h32q7 0 12.5 6t5.5 14v67z" />
    <glyph glyph-name="Abreve.small" unicode="&#xf66d;" horiz-adv-x="438" 
d="M374 0h-100v240h-110v-240h-100v500q0 41 29.5 70.5t70.5 29.5h110q41 0 70.5 -29.5t29.5 -70.5v-500zM274 330v155q0 10 -7.5 17.5t-17.5 7.5h-60q-10 0 -17.5 -7.5t-7.5 -17.5v-155h110zM189 638q-41 0 -70.5 29.5t-29.5 70.5v42h80v-47q0 -10 7.5 -17.5t17.5 -7.5h50
q10 0 17.5 7.5t7.5 17.5v47h80v-42q0 -41 -29.5 -70.5t-70.5 -29.5h-60z" />
    <glyph glyph-name="Amacron.small" unicode="&#xf66e;" horiz-adv-x="438" 
d="M374 0h-100v240h-110v-240h-100v500q0 41 29.5 70.5t70.5 29.5h110q41 0 70.5 -29.5t29.5 -70.5v-500zM274 330v155q0 10 -7.5 17.5t-17.5 7.5h-60q-10 0 -17.5 -7.5t-7.5 -17.5v-155h110zM95 638v82h248v-82h-248z" />
    <glyph glyph-name="Aogonek.small" unicode="&#xf66f;" horiz-adv-x="438" 
d="M374 0h-34l58 -100l-77 -45l-70 121l40 24h-17v240h-110v-240h-100v500q0 41 29.5 70.5t70.5 29.5h110q41 0 70.5 -29.5t29.5 -70.5v-500zM274 330v155q0 10 -7.5 17.5t-17.5 7.5h-60q-10 0 -17.5 -7.5t-7.5 -17.5v-155h110z" />
    <glyph glyph-name="Cacute.small" unicode="&#xf671;" 
d="M367 175v-75q0 -41 -29.5 -70.5t-70.5 -29.5h-110q-41 0 -70.5 29.5t-29.5 70.5v400q0 41 29.5 70.5t70.5 29.5h110q41 0 70.5 -29.5t29.5 -70.5v-75h-100v60q0 10 -7.5 17.5t-17.5 7.5h-60q-10 0 -17.5 -7.5t-7.5 -17.5v-370q0 -10 7.5 -17.5t17.5 -7.5h60
q10 0 17.5 7.5t7.5 17.5v60h100zM250 780h100l-97 -142h-83z" />
    <glyph glyph-name="Ccaron.small" unicode="&#xf672;" 
d="M367 175v-75q0 -41 -29.5 -70.5t-70.5 -29.5h-110q-41 0 -70.5 29.5t-29.5 70.5v400q0 41 29.5 70.5t70.5 29.5h110q41 0 70.5 -29.5t29.5 -70.5v-75h-100v60q0 10 -7.5 17.5t-17.5 7.5h-60q-10 0 -17.5 -7.5t-7.5 -17.5v-370q0 -10 7.5 -17.5t17.5 -7.5h60
q10 0 17.5 7.5t7.5 17.5v60h100zM352 780l-103 -142h-74l-103 142h90l50 -81l50 81h90z" />
    <glyph glyph-name="Dcaron.small" unicode="&#xf675;" horiz-adv-x="435" 
d="M378 500v-400q0 -41 -29.5 -70.5t-70.5 -29.5h-210v600h210q41 0 70.5 -29.5t29.5 -70.5zM278 115v370q0 10 -7.5 17.5t-17.5 7.5h-85v-420h85q10 0 17.5 7.5t7.5 17.5zM357 780l-103 -142h-74l-103 142h90l50 -81l50 81h90z" />
    <glyph glyph-name="Dcroat.small" unicode="&#xf676;" horiz-adv-x="442" 
d="M175 343h56v-83h-56v-170h85q10 0 17.5 7.5t7.5 17.5v370q0 10 -7.5 17.5t-17.5 7.5h-85v-167zM75 260h-52v83h52v257h210q41 0 70.5 -29.5t29.5 -70.5v-400q0 -41 -29.5 -70.5t-70.5 -29.5h-210v260z" />
    <glyph glyph-name="Ecaron.small" unicode="&#xf678;" horiz-adv-x="350" 
d="M68 600h250v-90h-150v-155h122v-90h-122v-175h150v-90h-250v600zM333 780l-103 -142h-74l-103 142h90l50 -81l50 81h90z" />
    <glyph glyph-name="Edotaccent.small" unicode="&#xf679;" horiz-adv-x="350" 
d="M68 600h250v-90h-150v-155h122v-90h-122v-175h150v-90h-250v600zM243 638h-100v100h100v-100z" />
    <glyph glyph-name="Emacron.small" unicode="&#xf67a;" horiz-adv-x="350" 
d="M68 600h250v-90h-150v-155h122v-90h-122v-175h150v-90h-250v600zM68 638v82h248v-82h-248z" />
    <glyph glyph-name="Eogonek.small" unicode="&#xf67c;" horiz-adv-x="350" 
d="M68 600h250v-90h-150v-155h122v-90h-122v-175h150v-90h-21l58 -100l-77 -45l-70 121l40 24h-180v600z" />
    <glyph glyph-name="Gbreve.small" unicode="&#xf67d;" horiz-adv-x="422" 
d="M267 235h-60v90h160v-225q0 -41 -29.5 -70.5t-70.5 -29.5h-110q-41 0 -70.5 29.5t-29.5 70.5v400q0 41 29.5 70.5t70.5 29.5h110q41 0 70.5 -29.5t29.5 -70.5v-75h-100v60q0 10 -7.5 17.5t-17.5 7.5h-60q-10 0 -17.5 -7.5t-7.5 -17.5v-370q0 -10 7.5 -17.5t17.5 -7.5h60
q10 0 17.5 7.5t7.5 17.5v120zM182 638q-41 0 -70.5 29.5t-29.5 70.5v42h80v-47q0 -10 7.5 -17.5t17.5 -7.5h50q10 0 17.5 7.5t7.5 17.5v47h80v-42q0 -41 -29.5 -70.5t-70.5 -29.5h-60z" />
    <glyph glyph-name="Gcommaaccent.small" unicode="&#xf67f;" horiz-adv-x="422" 
d="M267 235h-60v90h160v-225q0 -41 -29.5 -70.5t-70.5 -29.5h-110q-41 0 -70.5 29.5t-29.5 70.5v400q0 41 29.5 70.5t70.5 29.5h110q41 0 70.5 -29.5t29.5 -70.5v-75h-100v60q0 10 -7.5 17.5t-17.5 7.5h-60q-10 0 -17.5 -7.5t-7.5 -17.5v-370q0 -10 7.5 -17.5t17.5 -7.5h60
q10 0 17.5 7.5t7.5 17.5v120zM258 -38v-173l-90 -53v226h90z" />
    <glyph glyph-name="Iogonek.small" unicode="&#xf686;" horiz-adv-x="236" 
d="M168 0h-31l58 -100l-77 -45l-70 121l40 24h-20v600h100v-600z" />
    <glyph glyph-name="Kcommaaccent.small" unicode="&#xf689;" horiz-adv-x="434" 
d="M272 339v-5q45 0 76.5 -29t31.5 -74v-231h-100v215q0 19 -15 34.5t-35 15.5h-62v-265h-100v600h100v-270h4l127 270h109zM268 -38v-173l-90 -53v226h90z" />
    <glyph glyph-name="Lacute.small" unicode="&#xf68a;" horiz-adv-x="323" 
d="M168 90h150v-90h-250v600h100v-510zM148 780h100l-97 -142h-83z" />
    <glyph glyph-name="Lcaron.small" unicode="&#xf68b;" horiz-adv-x="333" 
d="M168 90h150v-90h-250v600h100v-510zM313 600v-173l-90 -53v226h90z" />
    <glyph glyph-name="Lcommaaccent.small" unicode="&#xf68c;" horiz-adv-x="323" 
d="M168 90h150v-90h-250v600h100v-510zM239 -38v-173l-90 -53v226h90z" />
    <glyph glyph-name="Nacute.small" unicode="&#xf68e;" horiz-adv-x="442" 
d="M68 600h90v-40q7 14 25 27t33 13h62q41 0 70.5 -29.5t29.5 -70.5v-500h-100v485q0 10 -7.5 17.5t-17.5 7.5h-60q-10 0 -17.5 -7.5t-7.5 -17.5v-485h-100v600zM276 780h100l-97 -142h-83z" />
    <glyph glyph-name="Ncaron.small" unicode="&#xf68f;" horiz-adv-x="442" 
d="M68 600h90v-40q7 14 25 27t33 13h62q41 0 70.5 -29.5t29.5 -70.5v-500h-100v485q0 10 -7.5 17.5t-17.5 7.5h-60q-10 0 -17.5 -7.5t-7.5 -17.5v-485h-100v600zM376 780l-103 -142h-74l-103 142h90l50 -81l50 81h90z" />
    <glyph glyph-name="Ncommaaccent.small" unicode="&#xf690;" horiz-adv-x="442" 
d="M68 600h90v-40q7 14 25 27t33 13h62q41 0 70.5 -29.5t29.5 -70.5v-500h-100v485q0 10 -7.5 17.5t-17.5 7.5h-60q-10 0 -17.5 -7.5t-7.5 -17.5v-485h-100v600zM268 -38v-173l-90 -53v226h90z" />
    <glyph glyph-name="Ohungarumlaut.small" unicode="&#xf692;" horiz-adv-x="424" 
d="M367 500v-400q0 -41 -29.5 -70.5t-70.5 -29.5h-110q-41 0 -70.5 29.5t-29.5 70.5v400q0 41 29.5 70.5t70.5 29.5h110q41 0 70.5 -29.5t29.5 -70.5zM267 485q0 10 -7.5 17.5t-17.5 7.5h-60q-10 0 -17.5 -7.5t-7.5 -17.5v-370q0 -10 7.5 -17.5t17.5 -7.5h60q10 0 17.5 7.5
t7.5 17.5v370zM317 780h80l-97 -142h-63zM205 780h80l-97 -142h-63z" />
    <glyph glyph-name="Omacron.small" unicode="&#xf693;" horiz-adv-x="424" 
d="M367 500v-400q0 -41 -29.5 -70.5t-70.5 -29.5h-110q-41 0 -70.5 29.5t-29.5 70.5v400q0 41 29.5 70.5t70.5 29.5h110q41 0 70.5 -29.5t29.5 -70.5zM267 485q0 10 -7.5 17.5t-17.5 7.5h-60q-10 0 -17.5 -7.5t-7.5 -17.5v-370q0 -10 7.5 -17.5t17.5 -7.5h60q10 0 17.5 7.5
t7.5 17.5v370zM88 638v82h248v-82h-248z" />
    <glyph glyph-name="Racute.small" unicode="&#xf695;" horiz-adv-x="440" 
d="M236 780h100l-97 -142h-83zM288 190q0 20 -15 35t-35 15h-70v-240h-100v600h210q41 0 70.5 -29.5t29.5 -70.5v-114q0 -36 -21.5 -63t-54.5 -32v-5q34 -2 60 -30t26 -68v-188h-100v190zM253 330q10 0 17.5 7.5t7.5 17.5v130q0 10 -7.5 17.5t-17.5 7.5h-85v-180h85z" />
    <glyph glyph-name="Rcaron.small" unicode="&#xf696;" horiz-adv-x="440" 
d="M288 190q0 20 -15 35t-35 15h-70v-240h-100v600h210q41 0 70.5 -29.5t29.5 -70.5v-114q0 -36 -21.5 -63t-54.5 -32v-5q34 -2 60 -30t26 -68v-188h-100v190zM253 330q10 0 17.5 7.5t7.5 17.5v130q0 10 -7.5 17.5t-17.5 7.5h-85v-180h85zM349 780l-103 -142h-74l-103 142
h90l50 -81l50 81h90z" />
    <glyph glyph-name="Rcommaaccent.small" unicode="&#xf697;" horiz-adv-x="440" 
d="M288 190q0 20 -15 35t-35 15h-70v-240h-100v600h210q41 0 70.5 -29.5t29.5 -70.5v-114q0 -36 -21.5 -63t-54.5 -32v-5q34 -2 60 -30t26 -68v-188h-100v190zM253 330q10 0 17.5 7.5t7.5 17.5v130q0 10 -7.5 17.5t-17.5 7.5h-85v-180h85zM275 -38v-173l-90 -53v226h90z" />
    <glyph glyph-name="Sacute.small" unicode="&#xf698;" horiz-adv-x="402" 
d="M46 425v75q0 41 29.5 70.5t70.5 29.5h110q41 0 70.5 -29.5t29.5 -70.5v-75h-100v60q0 10 -7.5 17.5t-17.5 7.5h-60q-10 0 -17.5 -7.5t-7.5 -17.5v-45q0 -35 25 -50l84 -53q47 -30 74 -62.5t27 -79.5v-95q0 -41 -29.5 -70.5t-70.5 -29.5h-110q-41 0 -70.5 29.5t-29.5 70.5
v75h100v-60q0 -10 7.5 -17.5t17.5 -7.5h60q10 0 17.5 7.5t7.5 17.5v65q0 34 -25 50l-86 57q-33 22 -50.5 36.5t-33 41.5t-15.5 60zM231 780h100l-97 -142h-83z" />
    <glyph glyph-name="Scedilla.small" unicode="&#xf699;" horiz-adv-x="402" 
d="M46 425v75q0 41 29.5 70.5t70.5 29.5h110q41 0 70.5 -29.5t29.5 -70.5v-75h-100v60q0 10 -7.5 17.5t-17.5 7.5h-60q-10 0 -17.5 -7.5t-7.5 -17.5v-45q0 -35 25 -50l84 -53q47 -30 74 -62.5t27 -79.5v-95q0 -41 -29.5 -70.5t-70.5 -29.5h-34l40 -24l-70 -121l-77 45
l57 100h-26q-41 0 -70.5 29.5t-29.5 70.5v75h100v-60q0 -10 7.5 -17.5t17.5 -7.5h60q10 0 17.5 7.5t7.5 17.5v65q0 34 -25 50l-86 57q-33 22 -50.5 36.5t-33 41.5t-15.5 60z" />
    <glyph glyph-name="Scommaaccent.small" unicode="&#xf69b;" horiz-adv-x="402" 
d="M46 425v75q0 41 29.5 70.5t70.5 29.5h110q41 0 70.5 -29.5t29.5 -70.5v-75h-100v60q0 10 -7.5 17.5t-17.5 7.5h-60q-10 0 -17.5 -7.5t-7.5 -17.5v-45q0 -35 25 -50l84 -53q47 -30 74 -62.5t27 -79.5v-95q0 -41 -29.5 -70.5t-70.5 -29.5h-110q-41 0 -70.5 29.5t-29.5 70.5
v75h100v-60q0 -10 7.5 -17.5t17.5 -7.5h60q10 0 17.5 7.5t7.5 17.5v65q0 34 -25 50l-86 57q-33 22 -50.5 36.5t-33 41.5t-15.5 60zM247 -38v-173l-90 -53v226h90z" />
    <glyph glyph-name="Tcaron.small" unicode="&#xf69d;" horiz-adv-x="320" 
d="M10 600h300v-90h-100v-510h-100v510h-100v90zM300 780l-103 -142h-74l-103 142h90l50 -81l50 81h90z" />
    <glyph glyph-name="Tcommaaccent.small" unicode="&#xf69e;" horiz-adv-x="320" 
d="M10 600h300v-90h-100v-510h-100v510h-100v90zM205 -38v-173l-90 -53v226h90z" />
    <glyph glyph-name="Uhungarumlaut.small" unicode="&#xf6a0;" horiz-adv-x="438" 
d="M374 600v-500q0 -41 -29.5 -70.5t-70.5 -29.5h-110q-41 0 -70.5 29.5t-29.5 70.5v500h100v-485q0 -10 7.5 -17.5t17.5 -7.5h60q10 0 17.5 7.5t7.5 17.5v485h100zM320 780h80l-97 -142h-63zM208 780h80l-97 -142h-63z" />
    <glyph glyph-name="Umacron.small" unicode="&#xf6a1;" horiz-adv-x="438" 
d="M374 600v-500q0 -41 -29.5 -70.5t-70.5 -29.5h-110q-41 0 -70.5 29.5t-29.5 70.5v500h100v-485q0 -10 7.5 -17.5t17.5 -7.5h60q10 0 17.5 7.5t7.5 17.5v485h100zM94 638v82h248v-82h-248z" />
    <glyph glyph-name="Uogonek.small" unicode="&#xf6a2;" horiz-adv-x="438" 
d="M374 600v-500q0 -41 -29.5 -70.5t-70.5 -29.5h-15l58 -100l-77 -45l-70 121l40 24h-46q-41 0 -70.5 29.5t-29.5 70.5v500h100v-485q0 -10 7.5 -17.5t17.5 -7.5h60q10 0 17.5 7.5t7.5 17.5v485h100z" />
    <glyph glyph-name="Uring.small" unicode="&#xf6a3;" horiz-adv-x="438" 
d="M374 600v-500q0 -41 -29.5 -70.5t-70.5 -29.5h-110q-41 0 -70.5 29.5t-29.5 70.5v500h100v-485q0 -10 7.5 -17.5t17.5 -7.5h60q10 0 17.5 7.5t7.5 17.5v485h100zM219 798q37 0 63 -26t26 -63t-26 -63t-63 -26t-63 26t-26 63t26 63t63 26zM219 755q-19 0 -32 -13.5
t-13 -32.5t13 -32.5t32 -13.5t32 13.5t13 32.5t-13 32.5t-32 13.5z" />
    <glyph glyph-name="Zacute.small" unicode="&#xf6ab;" horiz-adv-x="340" 
d="M20 600h300v-84l-200 -426h200v-90h-300v84l200 426h-200v90zM200 780h100l-97 -142h-83z" />
    <glyph glyph-name="Zdotaccent.small" unicode="&#xf6ac;" horiz-adv-x="340" 
d="M20 600h300v-84l-200 -426h200v-90h-300v84l200 426h-200v90zM220 638h-100v100h100v-100z" />
    <glyph glyph-name="Idotaccent.small" unicode="&#xf6ad;" horiz-adv-x="236" 
d="M168 0h-100v600h100v-600zM168 638h-100v100h100v-100z" />
    <glyph glyph-name="parenleft.cap" unicode="&#xf6ae;" horiz-adv-x="254" 
d="M132 330q0 -148 31.5 -237.5t90.5 -174.5h-84q-68 65 -109 170t-41 240q0 136 41 241.5t109 170.5h84q-59 -85 -90.5 -174t-31.5 -236z" />
    <glyph glyph-name="parenright.cap" unicode="&#xf6af;" horiz-adv-x="254" 
d="M122 330q0 147 -31.5 236t-90.5 174h84q68 -65 109 -170.5t41 -241.5q0 -135 -41 -240t-109 -170h-84q59 85 90.5 174.5t31.5 237.5z" />
    <glyph glyph-name="bracketleft.cap" unicode="&#xf6b0;" horiz-adv-x="275" 
d="M75 -81v821h175v-72h-75v-678h75v-71h-175z" />
    <glyph glyph-name="bracketright.cap" unicode="&#xf6b1;" horiz-adv-x="275" 
d="M200 -81h-175v71h75v678h-75v72h175v-821z" />
    <glyph glyph-name="braceleft.cap" unicode="&#xf6b2;" horiz-adv-x="325" 
d="M158 335l60 -64q14 -14 11 -31l-29 -180q-11 -70 54 -70h46v-71h-54q-73 0 -113 41t-29 113l23 151q10 69 -37 69h-56v83h56q49 0 37 70l-23 140q-12 72 28.5 113t113.5 41h54v-71h-46q-31 0 -45.5 -18t-8.5 -52l29 -167q3 -17 -11 -31l-60 -64v-2z" />
    <glyph glyph-name="braceright.cap" unicode="&#xf6b3;" horiz-adv-x="325" 
d="M167 335v2l-60 64q-14 14 -11 31l29 167q6 34 -8.5 52t-45.5 18h-46v71h54q73 0 113.5 -41t28.5 -113l-23 -140q-12 -70 37 -70h56v-83h-56q-47 0 -37 -69l23 -151q11 -72 -29 -113t-113 -41h-54v71h46q65 0 54 70l-29 180q-3 17 11 31z" />
    <glyph glyph-name="exclamdown.cap" unicode="&#xf6b4;" horiz-adv-x="270" 
d="M188 594h-106v106h106v-106zM167 500l20 -300v-200h-104v200l20 300h64z" />
    <glyph glyph-name="questiondown.cap" unicode="&#xf6b5;" horiz-adv-x="385" 
d="M161 421v79h94v-84q0 -30 -11.5 -54.5t-28.5 -41.5t-33.5 -32.5t-28 -37t-11.5 -46.5v-89q0 -10 7.5 -17.5t17.5 -7.5h50q10 0 17.5 7.5t7.5 17.5v85h100v-100q0 -41 -29.5 -70.5t-70.5 -29.5h-100q-41 0 -70.5 29.5t-29.5 70.5v125q0 34 18.5 63t41 46t41 40.5
t18.5 46.5zM152 594v106h106v-106h-106z" />
    <glyph glyph-name="guillemotleft.cap" unicode="&#xf6b6;" horiz-adv-x="391" 
d="M122 344l8 -8l75 -123h-89l-79 106v49l79 106h89l-75 -122zM286 344l8 -8l75 -123h-89l-79 106v49l79 106h89l-75 -122z" />
    <glyph glyph-name="guillemotright.cap" unicode="&#xf6b7;" horiz-adv-x="391" 
d="M269 344l-8 8l-75 122h89l79 -106v-49l-79 -106h-89l75 123zM105 344l-8 8l-75 122h89l79 -106v-49l-79 -106h-89l75 123z" />
    <glyph glyph-name="guilsinglleft.cap" unicode="&#xf6b8;" horiz-adv-x="227" 
d="M122 344l8 -8l75 -123h-89l-79 106v49l79 106h89l-75 -122z" />
    <glyph glyph-name="guilsinglright.cap" unicode="&#xf6b9;" horiz-adv-x="227" 
d="M105 344l-8 8l-75 122h89l79 -106v-49l-79 -106h-89l75 123z" />
    <glyph glyph-name="hyphen.cap" unicode="&#xf6ba;" horiz-adv-x="250" 
d="M40 303v102h170v-102h-170z" />
    <glyph glyph-name="endash.cap" unicode="&#xf6bb;" horiz-adv-x="450" 
d="M40 303v81h370v-81h-370z" />
    <glyph glyph-name="emdash.cap" unicode="&#xf6bc;" horiz-adv-x="800" 
d="M760 384v-81h-720v81h720z" />
    <glyph glyph-name="periodcentered.cap" unicode="&#xf6bd;" horiz-adv-x="150" 
d="M128 407v-106h-106v106h106z" />
    <glyph glyph-name="commaaccent" unicode="&#xf6c3;" 
d="M245 -38v-173l-90 -53v226h90z" />
    <glyph glyph-name="rupiah" unicode="&#xf6dd;" horiz-adv-x="816" 
d="M260 330q10 0 17.5 7.5t7.5 17.5v130q0 10 -7.5 17.5t-17.5 7.5h-85v-180h85zM654 385q0 10 -7.5 17.5t-17.5 7.5h-50q-10 0 -17.5 -7.5t-7.5 -17.5v-270q0 -10 7.5 -17.5t17.5 -7.5h50q10 0 17.5 7.5t7.5 17.5v270zM454 40q-4 -17 -20 -28.5t-30 -11.5h-30
q-65 0 -100 100l-49 140h-50v-240h-100v600h210q41 0 70.5 -29.5t29.5 -70.5v-144q0 -35 -19 -59.5t-46 -32.5l54 -149q8 -25 25 -25h55v410h90v-40q4 17 20 28.5t30 11.5h60q41 0 70.5 -29.5t29.5 -70.5v-300q0 -41 -29.5 -70.5t-70.5 -29.5h-50q-14 0 -30 11.5t-20 28.5
v-240h-100v240z" />
    <glyph glyph-name="asuperior" unicode="&#xf6e9;" horiz-adv-x="271" 
d="M101 507h-66v32q0 25 18.5 43t43.5 18h77q25 0 43.5 -18t18.5 -43v-289h-60v16q-16 -16 -30 -16h-49q-26 0 -44 17.5t-18 42.5v88q0 25 18 42.5t44 17.5h73v66q0 7 -5.5 12.5t-12.5 5.5h-32q-7 0 -13 -5.5t-6 -12.5v-17zM101 387v-62q0 -7 6 -12.5t13 -5.5h32
q7 0 12.5 5.5t5.5 12.5v80h-50q-7 0 -13 -5.5t-6 -12.5z" />
    <glyph glyph-name="bsuperior" unicode="&#xf6ea;" horiz-adv-x="271" 
d="M35 700h66v-113q13 13 26 13h47q25 0 43.5 -18t18.5 -43v-228q0 -25 -18.5 -43t-43.5 -18h-53q-13 0 -25 12v-12h-61v450zM170 524q0 7 -5.5 12.5t-12.5 5.5h-32q-7 0 -13 -5.5t-6 -12.5v-199q0 -7 6 -12.5t13 -5.5h32q7 0 12.5 5.5t5.5 12.5v199z" />
    <glyph glyph-name="dsuperior" unicode="&#xf6eb;" horiz-adv-x="271" 
d="M236 700v-450h-61v12q-12 -12 -25 -12h-53q-25 0 -43.5 18t-18.5 43v228q0 25 18.5 43t43.5 18h47q13 0 26 -13v113h66zM101 524v-199q0 -7 5.5 -12.5t12.5 -5.5h32q7 0 13 5.5t6 12.5v199q0 7 -6 12.5t-13 5.5h-32q-7 0 -12.5 -5.5t-5.5 -12.5z" />
    <glyph glyph-name="esuperior" unicode="&#xf6ec;" horiz-adv-x="271" 
d="M170 524q0 7 -5.5 12.5t-12.5 5.5h-32q-7 0 -13 -5.5t-6 -12.5v-66h69v66zM170 343h66v-33q0 -25 -18 -42.5t-44 -17.5h-77q-26 0 -44 17.5t-18 42.5v229q0 25 18.5 43t43.5 18h77q25 0 43.5 -18t18.5 -43v-134h-135v-80q0 -7 6 -12.5t13 -5.5h32q7 0 12.5 5.5t5.5 12.5
v18z" />
    <glyph glyph-name="isuperior" unicode="&#xf6ed;" horiz-adv-x="137" 
d="M35 648v52h66v-52h-66zM35 250v350h66v-350h-66z" />
    <glyph glyph-name="lsuperior" unicode="&#xf6ee;" horiz-adv-x="157" 
d="M145 250h-45q-25 0 -43.5 18t-18.5 43v389h66v-380q0 -11 11 -11h30v-59z" />
    <glyph glyph-name="msuperior" unicode="&#xf6ef;" horiz-adv-x="394" 
d="M299 524q0 7 -5.5 12.5t-12.5 5.5h-29q-7 0 -13 -5.5t-6 -12.5v-274h-66v274q0 7 -5.5 12.5t-12.5 5.5h-29q-7 0 -13 -5.5t-6 -12.5v-274h-66v350h61v-14q16 14 29 14h53q15 0 34 -19q17 19 34 19h54q25 0 43.5 -18t18.5 -43v-289h-63v274z" />
    <glyph glyph-name="osuperior" unicode="&#xf6f0;" horiz-adv-x="271" 
d="M236 310q0 -25 -18 -42.5t-44 -17.5h-77q-26 0 -44 17.5t-18 42.5v229q0 25 18.5 43t43.5 18h77q25 0 43.5 -18t18.5 -43v-229zM170 325v199q0 7 -5.5 12.5t-12.5 5.5h-32q-7 0 -13 -5.5t-6 -12.5v-199q0 -7 6 -12.5t13 -5.5h32q7 0 12.5 5.5t5.5 12.5z" />
    <glyph glyph-name="rsuperior" unicode="&#xf6f1;" horiz-adv-x="186" 
d="M127 536q-10 0 -18 -7.5t-8 -16.5v-262h-66v350h61v-29q18 29 43 29h38v-64h-50z" />
    <glyph glyph-name="ssuperior" unicode="&#xf6f2;" horiz-adv-x="260" 
d="M29 539q0 25 18.5 43t44.5 18h76q25 0 43.5 -18t18.5 -43v-32h-66v24q0 10 -11 10h-47q-10 0 -10 -10v-28q0 -14 11 -21l70 -46q28 -18 40.5 -37t12.5 -49v-40q0 -25 -18 -42.5t-44 -17.5h-76q-26 0 -44.5 17.5t-18.5 42.5v33h67v-24q0 -10 10 -10h47q11 0 11 10v28
q0 12 -12 21l-71 49q-27 19 -39.5 36.5t-12.5 45.5v40z" />
    <glyph glyph-name="tsuperior" unicode="&#xf6f3;" horiz-adv-x="175" 
d="M15 540v60h32v66h66v-66h47v-60h-47v-220q0 -11 11 -11h36v-59h-51q-25 0 -43.5 18t-18.5 43v229h-32z" />
    <glyph glyph-name="Lslashsmall" unicode="&#xf6f9;" horiz-adv-x="335" 
d="M175 299v-209h150v-90h-250v259l-70 -28v89l70 28v252h100v-212l80 32v-89z" />
    <glyph glyph-name="OEsmall" unicode="&#xf6fa;" horiz-adv-x="548" 
d="M267 0h-110q-41 0 -70.5 29.5t-29.5 70.5v400q0 41 29.5 70.5t70.5 29.5h110h249v-90h-150v-155h122v-90h-122v-175h150v-90h-249zM267 485q0 10 -7.5 17.5t-17.5 7.5h-60q-10 0 -17.5 -7.5t-7.5 -17.5v-370q0 -10 7.5 -17.5t17.5 -7.5h60q10 0 17.5 7.5t7.5 17.5v370z
" />
    <glyph glyph-name="Scaronsmall" unicode="&#xf6fd;" horiz-adv-x="402" 
d="M46 425v75q0 41 29.5 70.5t70.5 29.5h110q41 0 70.5 -29.5t29.5 -70.5v-75h-100v60q0 10 -7.5 17.5t-17.5 7.5h-60q-10 0 -17.5 -7.5t-7.5 -17.5v-45q0 -35 25 -50l84 -53q47 -30 74 -62.5t27 -79.5v-95q0 -41 -29.5 -70.5t-70.5 -29.5h-110q-41 0 -70.5 29.5t-29.5 70.5
v75h100v-60q0 -10 7.5 -17.5t17.5 -7.5h60q10 0 17.5 7.5t7.5 17.5v65q0 34 -25 50l-86 57q-33 22 -50.5 36.5t-33 41.5t-15.5 60zM341 780l-103 -142h-74l-103 142h90l50 -81l50 81h90z" />
    <glyph glyph-name="Zcaronsmall" unicode="&#xf6ff;" horiz-adv-x="340" 
d="M20 600h300v-84l-200 -426h200v-90h-300v84l200 426h-200v90zM310 780l-103 -142h-74l-103 142h90l50 -81l50 81h90z" />
    <glyph glyph-name="exclamsmall" unicode="&#xf721;" horiz-adv-x="270" 
d="M167 200h-64l-20 200v200h104v-200zM188 106v-106h-106v106h106z" />
    <glyph glyph-name="ampersandsmall" unicode="&#xf726;" horiz-adv-x="429" 
d="M364 100q0 -41 -29.5 -70.5t-70.5 -29.5h-110q-41 0 -70.5 29.5t-29.5 70.5v113q0 40 26 68t60 30v5q-33 5 -54.5 32t-21.5 63v89q0 41 29.5 70.5t70.5 29.5h100q41 0 70.5 -29.5t29.5 -70.5v-50h-100v35q0 10 -7.5 17.5t-17.5 7.5h-50q-10 0 -17.5 -7.5t-7.5 -17.5v-105
q0 -10 7.5 -17.5t17.5 -7.5h225v-85h-59q9 -7 9 -20v-150zM264 270h-60q-20 0 -35 -15t-15 -35v-105q0 -10 7.5 -17.5t17.5 -7.5h60q10 0 17.5 7.5t7.5 17.5v155z" />
    <glyph glyph-name="questionsmall" unicode="&#xf73f;" horiz-adv-x="385" 
d="M224 229v-29h-94v34q0 30 11.5 54.5t28 41.5t33.5 32.5t28.5 37t11.5 46.5v39q0 10 -7.5 17.5t-17.5 7.5h-50q-10 0 -17.5 -7.5t-7.5 -17.5v-60h-100v75q0 41 29.5 70.5t70.5 29.5h100q41 0 70.5 -29.5t29.5 -70.5v-75q0 -34 -18.5 -63t-41 -46t-41 -40.5t-18.5 -46.5z
M233 106v-106h-106v106h106z" />
    <glyph glyph-name="Asmall" unicode="&#xf761;" horiz-adv-x="438" 
d="M374 0h-100v240h-110v-240h-100v500q0 41 29.5 70.5t70.5 29.5h110q41 0 70.5 -29.5t29.5 -70.5v-500zM274 330v155q0 10 -7.5 17.5t-17.5 7.5h-60q-10 0 -17.5 -7.5t-7.5 -17.5v-155h110z" />
    <glyph glyph-name="Bsmall" unicode="&#xf762;" horiz-adv-x="440" 
d="M302 316v-5q34 -2 60 -30t26 -68v-113q0 -41 -29.5 -70.5t-70.5 -29.5h-220v600h210q41 0 70.5 -29.5t29.5 -70.5v-89q0 -36 -21.5 -63t-54.5 -32zM253 355q10 0 17.5 7.5t7.5 17.5v105q0 10 -7.5 17.5t-17.5 7.5h-85v-155h85zM168 265v-175h95q10 0 17.5 7.5t7.5 17.5
v100q0 19 -15 34.5t-35 15.5h-70z" />
    <glyph glyph-name="Csmall" unicode="&#xf763;" 
d="M367 175v-75q0 -41 -29.5 -70.5t-70.5 -29.5h-110q-41 0 -70.5 29.5t-29.5 70.5v400q0 41 29.5 70.5t70.5 29.5h110q41 0 70.5 -29.5t29.5 -70.5v-75h-100v60q0 10 -7.5 17.5t-17.5 7.5h-60q-10 0 -17.5 -7.5t-7.5 -17.5v-370q0 -10 7.5 -17.5t17.5 -7.5h60
q10 0 17.5 7.5t7.5 17.5v60h100z" />
    <glyph glyph-name="Dsmall" unicode="&#xf764;" horiz-adv-x="435" 
d="M378 500v-400q0 -41 -29.5 -70.5t-70.5 -29.5h-210v600h210q41 0 70.5 -29.5t29.5 -70.5zM278 115v370q0 10 -7.5 17.5t-17.5 7.5h-85v-420h85q10 0 17.5 7.5t7.5 17.5z" />
    <glyph glyph-name="Esmall" unicode="&#xf765;" horiz-adv-x="350" 
d="M68 600h250v-90h-150v-155h122v-90h-122v-175h150v-90h-250v600z" />
    <glyph glyph-name="Fsmall" unicode="&#xf766;" horiz-adv-x="336" 
d="M68 600h250v-90h-150v-155h122v-90h-122v-265h-100v600z" />
    <glyph glyph-name="Gsmall" unicode="&#xf767;" horiz-adv-x="422" 
d="M267 235h-60v90h160v-225q0 -41 -29.5 -70.5t-70.5 -29.5h-110q-41 0 -70.5 29.5t-29.5 70.5v400q0 41 29.5 70.5t70.5 29.5h110q41 0 70.5 -29.5t29.5 -70.5v-75h-100v60q0 10 -7.5 17.5t-17.5 7.5h-60q-10 0 -17.5 -7.5t-7.5 -17.5v-370q0 -10 7.5 -17.5t17.5 -7.5h60
q10 0 17.5 7.5t7.5 17.5v120z" />
    <glyph glyph-name="Hsmall" unicode="&#xf768;" horiz-adv-x="446" 
d="M378 600v-600h-100v265h-110v-265h-100v600h100v-245h110v245h100z" />
    <glyph glyph-name="Ismall" unicode="&#xf769;" horiz-adv-x="236" 
d="M168 0h-100v600h100v-600z" />
    <glyph glyph-name="Jsmall" unicode="&#xf76a;" horiz-adv-x="371" 
d="M312 600v-500q0 -41 -29.5 -70.5t-70.5 -29.5h-100q-41 0 -70.5 29.5t-29.5 70.5v100h100v-85q0 -10 7.5 -17.5t17.5 -7.5h50q10 0 17.5 7.5t7.5 17.5v485h100z" />
    <glyph glyph-name="Ksmall" unicode="&#xf76b;" horiz-adv-x="434" 
d="M272 339v-5q45 0 76.5 -29t31.5 -74v-231h-100v215q0 19 -15 34.5t-35 15.5h-62v-265h-100v600h100v-270h4l127 270h109z" />
    <glyph glyph-name="Lsmall" unicode="&#xf76c;" horiz-adv-x="323" 
d="M168 90h150v-90h-250v600h100v-510z" />
    <glyph glyph-name="Msmall" unicode="&#xf76d;" horiz-adv-x="637" 
d="M68 600h90v-40q7 14 25 27t33 13h69q15 0 33 -13t25 -27q7 14 25 27t33 13h72q41 0 70.5 -29.5t29.5 -70.5v-500h-95v485q0 10 -7.5 17.5t-17.5 7.5h-55q-10 0 -17.5 -7.5t-7.5 -17.5v-485h-100v485q0 10 -7.5 17.5t-17.5 7.5h-55q-10 0 -17.5 -7.5t-7.5 -17.5v-485h-100
v600z" />
    <glyph glyph-name="Nsmall" unicode="&#xf76e;" horiz-adv-x="442" 
d="M68 600h90v-40q7 14 25 27t33 13h62q41 0 70.5 -29.5t29.5 -70.5v-500h-100v485q0 10 -7.5 17.5t-17.5 7.5h-60q-10 0 -17.5 -7.5t-7.5 -17.5v-485h-100v600z" />
    <glyph glyph-name="Osmall" unicode="&#xf76f;" horiz-adv-x="424" 
d="M367 500v-400q0 -41 -29.5 -70.5t-70.5 -29.5h-110q-41 0 -70.5 29.5t-29.5 70.5v400q0 41 29.5 70.5t70.5 29.5h110q41 0 70.5 -29.5t29.5 -70.5zM267 485q0 10 -7.5 17.5t-17.5 7.5h-60q-10 0 -17.5 -7.5t-7.5 -17.5v-370q0 -10 7.5 -17.5t17.5 -7.5h60q10 0 17.5 7.5
t7.5 17.5v370z" />
    <glyph glyph-name="Psmall" unicode="&#xf770;" horiz-adv-x="410" 
d="M378 500v-160q0 -41 -29.5 -70.5t-70.5 -29.5h-110v-240h-100v600h210q41 0 70.5 -29.5t29.5 -70.5zM253 330q10 0 17.5 7.5t7.5 17.5v130q0 10 -7.5 17.5t-17.5 7.5h-85v-180h85z" />
    <glyph glyph-name="Qsmall" unicode="&#xf771;" horiz-adv-x="424" 
d="M327 21l50 -86l-77 -45l-64 110h-79q-41 0 -70.5 29.5t-29.5 70.5v400q0 41 29.5 70.5t70.5 29.5h110q41 0 70.5 -29.5t29.5 -70.5v-400q0 -49 -40 -79zM267 485q0 10 -7.5 17.5t-17.5 7.5h-60q-10 0 -17.5 -7.5t-7.5 -17.5v-370q0 -10 7.5 -17.5t17.5 -7.5h60
q10 0 17.5 7.5t7.5 17.5v370z" />
    <glyph glyph-name="Rsmall" unicode="&#xf772;" horiz-adv-x="440" 
d="M288 190q0 20 -15 35t-35 15h-70v-240h-100v600h210q41 0 70.5 -29.5t29.5 -70.5v-114q0 -36 -21.5 -63t-54.5 -32v-5q34 -2 60 -30t26 -68v-188h-100v190zM253 330q10 0 17.5 7.5t7.5 17.5v130q0 10 -7.5 17.5t-17.5 7.5h-85v-180h85z" />
    <glyph glyph-name="Ssmall" unicode="&#xf773;" horiz-adv-x="402" 
d="M46 425v75q0 41 29.5 70.5t70.5 29.5h110q41 0 70.5 -29.5t29.5 -70.5v-75h-100v60q0 10 -7.5 17.5t-17.5 7.5h-60q-10 0 -17.5 -7.5t-7.5 -17.5v-45q0 -35 25 -50l84 -53q47 -30 74 -62.5t27 -79.5v-95q0 -41 -29.5 -70.5t-70.5 -29.5h-110q-41 0 -70.5 29.5t-29.5 70.5
v75h100v-60q0 -10 7.5 -17.5t17.5 -7.5h60q10 0 17.5 7.5t7.5 17.5v65q0 34 -25 50l-86 57q-33 22 -50.5 36.5t-33 41.5t-15.5 60z" />
    <glyph glyph-name="Tsmall" unicode="&#xf774;" horiz-adv-x="320" 
d="M10 600h300v-90h-100v-510h-100v510h-100v90z" />
    <glyph glyph-name="Usmall" unicode="&#xf775;" horiz-adv-x="438" 
d="M374 600v-500q0 -41 -29.5 -70.5t-70.5 -29.5h-110q-41 0 -70.5 29.5t-29.5 70.5v500h100v-485q0 -10 7.5 -17.5t17.5 -7.5h60q10 0 17.5 7.5t7.5 17.5v485h100z" />
    <glyph glyph-name="Vsmall" unicode="&#xf776;" horiz-adv-x="434" 
d="M165 0q-2 2 -22 26t-29 37t-24 35.5t-21.5 41.5t-6.5 37v423h100v-408q0 -16 19.5 -47.5t30.5 -44.5l9 -11l9 11q9 10 25.5 43t16.5 49v408h100v-423q0 -18 -6.5 -37t-21.5 -41.5t-24 -35.5t-29 -37t-22 -26h-104z" />
    <glyph glyph-name="Wsmall" unicode="&#xf777;" horiz-adv-x="633" 
d="M474 600h95v-500q0 -41 -29.5 -70.5t-70.5 -29.5h-94q-14 0 -32.5 11t-25.5 23q-7 -12 -25.5 -23t-32.5 -11h-95q-41 0 -70.5 29.5t-29.5 70.5v500h100v-485q0 -10 7.5 -17.5t17.5 -7.5h55q10 0 17.5 7.5t7.5 17.5v485h100v-485q0 -10 7.5 -17.5t17.5 -7.5h55
q10 0 17.5 7.5t7.5 17.5v485z" />
    <glyph glyph-name="Xsmall" unicode="&#xf778;" horiz-adv-x="418" 
d="M141 312q-2 3 -18.5 21.5t-21.5 24.5t-17 22.5t-16.5 27.5t-9 26.5t-4.5 30.5v135h100v-120q0 -16 17.5 -45t28.5 -41l9 -11l9 11q11 12 28.5 41t17.5 45v120h100v-135q0 -15 -4.5 -30.5t-9 -26.5t-16.5 -27.5t-17 -22.5t-21.5 -24.5t-18.5 -21.5q29 -33 41.5 -48.5
t29 -47.5t16.5 -61v-155h-100v140q0 27 -47 86l-8 10l-8 -10q-47 -59 -47 -86v-140h-100v155q0 29 16.5 61t29 47.5t41.5 48.5z" />
    <glyph glyph-name="Ysmall" unicode="&#xf779;" horiz-adv-x="394" 
d="M247 0h-100v238q-4 5 -24 27t-30 34.5t-24 32.5t-20.5 38.5t-6.5 36.5v193h100v-178q0 -16 17.5 -45t28.5 -41l9 -11l9 11q11 12 28.5 41t17.5 45v178h100v-193q0 -18 -6.5 -36.5t-20.5 -38.5t-24 -32.5t-30 -34.5t-24 -27v-238z" />
    <glyph glyph-name="Zsmall" unicode="&#xf77a;" horiz-adv-x="340" 
d="M20 600h300v-84l-200 -426h200v-90h-300v84l200 426h-200v90z" />
    <glyph glyph-name="exclamdownsmall" unicode="&#xf7a1;" horiz-adv-x="270" 
d="M103 400h64l20 -200v-200h-104v200zM82 494v106h106v-106h-106z" />
    <glyph glyph-name="questiondownsmall" unicode="&#xf7bf;" horiz-adv-x="385" 
d="M162 371v29h94v-34q0 -30 -11.5 -54.5t-28 -41.5t-33.5 -32.5t-28.5 -37t-11.5 -46.5v-39q0 -10 7.5 -17.5t17.5 -7.5h50q10 0 17.5 7.5t7.5 17.5v60h100v-75q0 -41 -29.5 -70.5t-70.5 -29.5h-100q-41 0 -70.5 29.5t-29.5 70.5v75q0 34 18.5 63t41 46t41 40.5t18.5 46.5z
M153 494v106h106v-106h-106z" />
    <glyph glyph-name="Agravesmall" unicode="&#xf7e0;" horiz-adv-x="438" 
d="M374 0h-100v240h-110v-240h-100v500q0 41 29.5 70.5t70.5 29.5h110q41 0 70.5 -29.5t29.5 -70.5v-500zM274 330v155q0 10 -7.5 17.5t-17.5 7.5h-60q-10 0 -17.5 -7.5t-7.5 -17.5v-155h110zM188 780l80 -142h-83l-97 142h100z" />
    <glyph glyph-name="Aacutesmall" unicode="&#xf7e1;" horiz-adv-x="438" 
d="M374 0h-100v240h-110v-240h-100v500q0 41 29.5 70.5t70.5 29.5h110q41 0 70.5 -29.5t29.5 -70.5v-500zM274 330v155q0 10 -7.5 17.5t-17.5 7.5h-60q-10 0 -17.5 -7.5t-7.5 -17.5v-155h110zM255 780h100l-97 -142h-83z" />
    <glyph glyph-name="Acircumflexsmall" unicode="&#xf7e2;" horiz-adv-x="438" 
d="M374 0h-100v240h-110v-240h-100v500q0 41 29.5 70.5t70.5 29.5h110q41 0 70.5 -29.5t29.5 -70.5v-500zM274 330v155q0 10 -7.5 17.5t-17.5 7.5h-60q-10 0 -17.5 -7.5t-7.5 -17.5v-155h110zM359 638h-90l-50 81l-50 -81h-90l103 142h74z" />
    <glyph glyph-name="Atildesmall" unicode="&#xf7e3;" horiz-adv-x="438" 
d="M374 0h-100v240h-110v-240h-100v500q0 41 29.5 70.5t70.5 29.5h110q41 0 70.5 -29.5t29.5 -70.5v-500zM274 330v155q0 10 -7.5 17.5t-17.5 7.5h-60q-10 0 -17.5 -7.5t-7.5 -17.5v-155h110zM208 665q-28 14 -34 14q-14 0 -44 -41l-64 38q29 49 53 68t54 19q21 0 45 -12
l12 -6q28 -14 34 -14q14 0 44 41l64 -38q-29 -49 -53 -68t-54 -19q-21 0 -45 12z" />
    <glyph glyph-name="Adieresissmall" unicode="&#xf7e4;" horiz-adv-x="438" 
d="M374 0h-100v240h-110v-240h-100v500q0 41 29.5 70.5t70.5 29.5h110q41 0 70.5 -29.5t29.5 -70.5v-500zM274 330v155q0 10 -7.5 17.5t-17.5 7.5h-60q-10 0 -17.5 -7.5t-7.5 -17.5v-155h110zM344 638h-100v100h100v-100zM194 638h-100v100h100v-100z" />
    <glyph glyph-name="Aringsmall" unicode="&#xf7e5;" horiz-adv-x="438" 
d="M374 0h-100v240h-110v-240h-100v500q0 41 29.5 70.5t70.5 29.5h110q41 0 70.5 -29.5t29.5 -70.5v-500zM274 330v155q0 10 -7.5 17.5t-17.5 7.5h-60q-10 0 -17.5 -7.5t-7.5 -17.5v-155h110zM219 798q37 0 63 -26t26 -63t-26 -63t-63 -26t-63 26t-26 63t26 63t63 26z
M219 755q-19 0 -32 -13.5t-13 -32.5t13 -32.5t32 -13.5t32 13.5t13 32.5t-13 32.5t-32 13.5z" />
    <glyph glyph-name="AEsmall" unicode="&#xf7e6;" horiz-adv-x="481" 
d="M300 355h121v-90h-121v-175h149v-90h-249v265h-110v-265h-100v500q0 41 29.5 70.5t70.5 29.5h110h249v-90h-150zM200 355v130q0 10 -7.5 17.5t-17.5 7.5h-60q-10 0 -17.5 -7.5t-7.5 -17.5v-130h110z" />
    <glyph glyph-name="Ccedillasmall" unicode="&#xf7e7;" 
d="M367 175v-75q0 -41 -29.5 -70.5t-70.5 -29.5h-110q-41 0 -70.5 29.5t-29.5 70.5v400q0 41 29.5 70.5t70.5 29.5h110q41 0 70.5 -29.5t29.5 -70.5v-75h-100v60q0 10 -7.5 17.5t-17.5 7.5h-60q-10 0 -17.5 -7.5t-7.5 -17.5v-370q0 -10 7.5 -17.5t17.5 -7.5h60
q10 0 17.5 7.5t7.5 17.5v60h100zM191 22l77 -46l-70 -121l-77 45z" />
    <glyph glyph-name="Egravesmall" unicode="&#xf7e8;" horiz-adv-x="350" 
d="M167 780l80 -142h-83l-97 142h100zM68 600h250v-90h-150v-155h122v-90h-122v-175h150v-90h-250v600z" />
    <glyph glyph-name="Eacutesmall" unicode="&#xf7e9;" horiz-adv-x="350" 
d="M68 600h250v-90h-150v-155h122v-90h-122v-175h150v-90h-250v600zM225 780h100l-97 -142h-83z" />
    <glyph glyph-name="Ecircumflexsmall" unicode="&#xf7ea;" horiz-adv-x="350" 
d="M68 600h250v-90h-150v-155h122v-90h-122v-175h150v-90h-250v600zM340 638h-90l-50 81l-50 -81h-90l103 142h74z" />
    <glyph glyph-name="Edieresissmall" unicode="&#xf7eb;" horiz-adv-x="350" 
d="M68 600h250v-90h-150v-155h122v-90h-122v-175h150v-90h-250v600zM318 638h-100v100h100v-100zM168 638h-100v100h100v-100z" />
    <glyph glyph-name="Igravesmall" unicode="&#xf7ec;" horiz-adv-x="236" 
d="M168 0h-100v600h100v-600zM88 780l80 -142h-83l-97 142h100z" />
    <glyph glyph-name="Iacutesmall" unicode="&#xf7ed;" horiz-adv-x="236" 
d="M148 780h100l-97 -142h-83zM168 0h-100v600h100v-600z" />
    <glyph glyph-name="Icircumflexsmall" unicode="&#xf7ee;" horiz-adv-x="236" 
d="M168 0h-100v600h100v-600zM258 638h-90l-50 81l-50 -81h-90l103 142h74z" />
    <glyph glyph-name="Idieresissmall" unicode="&#xf7ef;" horiz-adv-x="236" 
d="M168 0h-100v600h100v-600zM243 638h-100v100h100v-100zM93 638h-100v100h100v-100z" />
    <glyph glyph-name="Ethsmall" unicode="&#xf7f0;" horiz-adv-x="442" 
d="M175 343h56v-83h-56v-170h85q10 0 17.5 7.5t7.5 17.5v370q0 10 -7.5 17.5t-17.5 7.5h-85v-167zM75 260h-52v83h52v257h210q41 0 70.5 -29.5t29.5 -70.5v-400q0 -41 -29.5 -70.5t-70.5 -29.5h-210v260z" />
    <glyph glyph-name="Ntildesmall" unicode="&#xf7f1;" horiz-adv-x="442" 
d="M68 600h90v-40q7 14 25 27t33 13h62q41 0 70.5 -29.5t29.5 -70.5v-500h-100v485q0 10 -7.5 17.5t-17.5 7.5h-60q-10 0 -17.5 -7.5t-7.5 -17.5v-485h-100v600zM211 665q-28 14 -34 14q-14 0 -44 -41l-64 38q29 49 53 68t54 19q21 0 45 -12l12 -6q28 -14 34 -14q14 0 44 41
l64 -38q-29 -49 -53 -68t-54 -19q-21 0 -45 12z" />
    <glyph glyph-name="Ogravesmall" unicode="&#xf7f2;" horiz-adv-x="424" 
d="M367 500v-400q0 -41 -29.5 -70.5t-70.5 -29.5h-110q-41 0 -70.5 29.5t-29.5 70.5v400q0 41 29.5 70.5t70.5 29.5h110q41 0 70.5 -29.5t29.5 -70.5zM267 485q0 10 -7.5 17.5t-17.5 7.5h-60q-10 0 -17.5 -7.5t-7.5 -17.5v-370q0 -10 7.5 -17.5t17.5 -7.5h60q10 0 17.5 7.5
t7.5 17.5v370zM187 780l80 -142h-83l-97 142h100z" />
    <glyph glyph-name="Oacutesmall" unicode="&#xf7f3;" horiz-adv-x="424" 
d="M367 500v-400q0 -41 -29.5 -70.5t-70.5 -29.5h-110q-41 0 -70.5 29.5t-29.5 70.5v400q0 41 29.5 70.5t70.5 29.5h110q41 0 70.5 -29.5t29.5 -70.5zM267 485q0 10 -7.5 17.5t-17.5 7.5h-60q-10 0 -17.5 -7.5t-7.5 -17.5v-370q0 -10 7.5 -17.5t17.5 -7.5h60q10 0 17.5 7.5
t7.5 17.5v370zM247 780h100l-97 -142h-83z" />
    <glyph glyph-name="Ocircumflexsmall" unicode="&#xf7f4;" horiz-adv-x="424" 
d="M367 500v-400q0 -41 -29.5 -70.5t-70.5 -29.5h-110q-41 0 -70.5 29.5t-29.5 70.5v400q0 41 29.5 70.5t70.5 29.5h110q41 0 70.5 -29.5t29.5 -70.5zM267 485q0 10 -7.5 17.5t-17.5 7.5h-60q-10 0 -17.5 -7.5t-7.5 -17.5v-370q0 -10 7.5 -17.5t17.5 -7.5h60q10 0 17.5 7.5
t7.5 17.5v370zM352 638h-90l-50 81l-50 -81h-90l103 142h74z" />
    <glyph glyph-name="Otildesmall" unicode="&#xf7f5;" horiz-adv-x="424" 
d="M367 500v-400q0 -41 -29.5 -70.5t-70.5 -29.5h-110q-41 0 -70.5 29.5t-29.5 70.5v400q0 41 29.5 70.5t70.5 29.5h110q41 0 70.5 -29.5t29.5 -70.5zM267 485q0 10 -7.5 17.5t-17.5 7.5h-60q-10 0 -17.5 -7.5t-7.5 -17.5v-370q0 -10 7.5 -17.5t17.5 -7.5h60q10 0 17.5 7.5
t7.5 17.5v370zM201 665q-28 14 -34 14q-14 0 -44 -41l-64 38q29 49 53 68t54 19q21 0 45 -12l12 -6q28 -14 34 -14q14 0 44 41l64 -38q-29 -49 -53 -68t-54 -19q-21 0 -45 12z" />
    <glyph glyph-name="Odieresissmall" unicode="&#xf7f6;" horiz-adv-x="424" 
d="M367 500v-400q0 -41 -29.5 -70.5t-70.5 -29.5h-110q-41 0 -70.5 29.5t-29.5 70.5v400q0 41 29.5 70.5t70.5 29.5h110q41 0 70.5 -29.5t29.5 -70.5zM267 485q0 10 -7.5 17.5t-17.5 7.5h-60q-10 0 -17.5 -7.5t-7.5 -17.5v-370q0 -10 7.5 -17.5t17.5 -7.5h60q10 0 17.5 7.5
t7.5 17.5v370zM337 638h-100v100h100v-100zM187 638h-100v100h100v-100z" />
    <glyph glyph-name="Oslashsmall" unicode="&#xf7f8;" horiz-adv-x="424" 
d="M268 498q-8 12 -21 12h-70q-10 0 -17.5 -7.5t-7.5 -17.5v-203q0 -35 -9 -96zM82 34q-25 28 -25 66v400q0 41 29.5 70.5t70.5 29.5h110q20 0 39 -8l23 58h43q-32 -81 -32 -82q27 -29 27 -68v-400q0 -41 -29.5 -70.5t-70.5 -29.5h-110q-20 0 -39 8l-23 -58h-46zM156 103
q6 -13 21 -13h70q10 0 17.5 7.5t7.5 17.5v209q0 35 9 96z" />
    <glyph glyph-name="Ugravesmall" unicode="&#xf7f9;" horiz-adv-x="438" 
d="M374 600v-500q0 -41 -29.5 -70.5t-70.5 -29.5h-110q-41 0 -70.5 29.5t-29.5 70.5v500h100v-485q0 -10 7.5 -17.5t17.5 -7.5h60q10 0 17.5 7.5t7.5 17.5v485h100zM194 780l80 -142h-83l-97 142h100z" />
    <glyph glyph-name="Uacutesmall" unicode="&#xf7fa;" horiz-adv-x="438" 
d="M374 600v-500q0 -41 -29.5 -70.5t-70.5 -29.5h-110q-41 0 -70.5 29.5t-29.5 70.5v500h100v-485q0 -10 7.5 -17.5t17.5 -7.5h60q10 0 17.5 7.5t7.5 17.5v485h100zM249 780h100l-97 -142h-83z" />
    <glyph glyph-name="Ucircumflexsmall" unicode="&#xf7fb;" horiz-adv-x="438" 
d="M374 600v-500q0 -41 -29.5 -70.5t-70.5 -29.5h-110q-41 0 -70.5 29.5t-29.5 70.5v500h100v-485q0 -10 7.5 -17.5t17.5 -7.5h60q10 0 17.5 7.5t7.5 17.5v485h100zM359 638h-90l-50 81l-50 -81h-90l103 142h74z" />
    <glyph glyph-name="Udieresissmall" unicode="&#xf7fc;" horiz-adv-x="438" 
d="M374 600v-500q0 -41 -29.5 -70.5t-70.5 -29.5h-110q-41 0 -70.5 29.5t-29.5 70.5v500h100v-485q0 -10 7.5 -17.5t17.5 -7.5h60q10 0 17.5 7.5t7.5 17.5v485h100zM344 638h-100v100h100v-100zM194 638h-100v100h100v-100z" />
    <glyph glyph-name="Yacutesmall" unicode="&#xf7fd;" horiz-adv-x="394" 
d="M247 0h-100v238q-4 5 -24 27t-30 34.5t-24 32.5t-20.5 38.5t-6.5 36.5v193h100v-178q0 -16 17.5 -45t28.5 -41l9 -11l9 11q11 12 28.5 41t17.5 45v178h100v-193q0 -18 -6.5 -36.5t-20.5 -38.5t-24 -32.5t-30 -34.5t-24 -27v-238zM235 780h100l-97 -142h-83z" />
    <glyph glyph-name="Thornsmall" unicode="&#xf7fe;" horiz-adv-x="418" 
d="M68 600h100v-104h110q41 0 70.5 -29.5t29.5 -70.5v-185q0 -41 -29.5 -70.5t-70.5 -29.5h-110v-111h-100v600zM253 201q10 0 17.5 7.5t7.5 17.5v155q0 10 -7.5 17.5t-17.5 7.5h-85v-205h85z" />
    <glyph glyph-name="Ydieresissmall" unicode="&#xf7ff;" horiz-adv-x="394" 
d="M247 0h-100v238q-4 5 -24 27t-30 34.5t-24 32.5t-20.5 38.5t-6.5 36.5v193h100v-178q0 -16 17.5 -45t28.5 -41l9 -11l9 11q11 12 28.5 41t17.5 45v178h100v-193q0 -18 -6.5 -36.5t-20.5 -38.5t-24 -32.5t-30 -34.5t-24 -27v-238zM322 638h-100v100h100v-100zM172 638
h-100v100h100v-100z" />
    </font>
</defs>
</svg>
